<svg width="21" height="20" viewBox="0 0 21 20" fill="none" xmlns="http://www.w3.org/2000/svg">
<g clip-path="url(#clip0_1234_8155)">
<path d="M10.491 1.66699C5.89105 1.66699 2.15771 5.40033 2.15771 10.0003C2.15771 14.6003 5.89105 18.3337 10.491 18.3337C15.091 18.3337 18.8244 14.6003 18.8244 10.0003C18.8244 5.40033 15.091 1.66699 10.491 1.66699ZM10.491 16.667C6.81605 16.667 3.82438 13.6753 3.82438 10.0003C3.82438 6.32533 6.81605 3.33366 10.491 3.33366C14.166 3.33366 17.1577 6.32533 17.1577 10.0003C17.1577 13.6753 14.166 16.667 10.491 16.667ZM14.316 6.31699L8.82438 11.8087L6.66605 9.65866L5.49105 10.8337L8.82438 14.167L15.491 7.50033L14.316 6.31699Z" fill="#EBBE17"/>
</g>
<defs>
<clipPath id="clip0_1234_8155">
<rect width="20" height="20" fill="white" transform="translate(0.491211)"/>
</clipPath>
</defs>
</svg>
