<svg width="32" height="32" viewBox="0 0 32 32" fill="none" xmlns="http://www.w3.org/2000/svg">
<g clip-path="url(#clip0_1229_20174)">
<path d="M16.0002 8.00033C17.4729 8.00033 18.6668 6.80642 18.6668 5.33366C18.6668 3.8609 17.4729 2.66699 16.0002 2.66699C14.5274 2.66699 13.3335 3.8609 13.3335 5.33366C13.3335 6.80642 14.5274 8.00033 16.0002 8.00033Z" fill="#DE9235"/>
<path d="M25.3332 17.3336V14.6669C23.2798 14.6936 21.2132 13.6669 19.9065 12.2269L18.1865 10.3202C17.9598 10.0669 17.6798 9.86689 17.3732 9.72022C17.3598 9.72022 17.3598 9.70689 17.3465 9.70689H17.3332C16.8665 9.44022 16.3332 9.30689 15.7465 9.36022C14.3465 9.48022 13.3332 10.7202 13.3332 12.1202V20.0002C13.3332 21.4669 14.5332 22.6669 15.9998 22.6669H22.6665V29.3336H25.3332V22.0002C25.3332 20.5336 24.1332 19.3336 22.6665 19.3336H18.6665V14.7336C20.3865 16.1602 22.9998 17.3202 25.3332 17.3336ZM13.3332 26.6669C11.1198 26.6669 9.33317 24.8802 9.33317 22.6669C9.33317 20.9202 10.4532 19.4536 11.9998 18.8936V16.1336C8.95984 16.7469 6.6665 19.4402 6.6665 22.6669C6.6665 26.3469 9.65317 29.3336 13.3332 29.3336C16.5598 29.3336 19.2532 27.0402 19.8665 24.0002H17.1065C16.5598 25.5469 15.0798 26.6669 13.3332 26.6669Z" fill="#DE9235"/>
</g>
<defs>
<clipPath id="clip0_1229_20174">
<rect width="32" height="32" fill="white"/>
</clipPath>
</defs>
</svg>
