<svg width="24" height="24" viewBox="0 0 24 24" fill="none" xmlns="http://www.w3.org/2000/svg">
<g clip-path="url(#clip0_687_327)">
<path d="M1.71898 4.04785C1.71898 2.94785 2.60898 2.04785 3.70898 2.04785H19.709C20.809 2.04785 21.709 2.94785 21.709 4.04785V16.0479C21.709 17.1479 20.809 18.0479 19.709 18.0479H5.70898L1.70898 22.0479L1.71898 4.04785Z" fill="white"/>
<path d="M10.631 11.902C10.337 9.704 13.319 9.214 13.319 7.856C13.319 7.002 12.647 6.526 11.541 6.526C10.687 6.526 9.98698 6.918 9.30098 7.632L8.15298 6.582C9.04898 5.546 10.281 4.86 11.779 4.86C13.809 4.86 15.293 5.812 15.293 7.674C15.293 9.718 12.227 9.97 12.451 11.902H10.631ZM11.555 15.64C10.827 15.64 10.309 15.122 10.309 14.394C10.309 13.666 10.841 13.162 11.555 13.162C12.255 13.162 12.787 13.666 12.787 14.394C12.787 15.122 12.255 15.64 11.555 15.64Z" fill="#DF6370"/>
</g>
<defs>
<clipPath id="clip0_687_327">
<rect width="24" height="24" fill="white"/>
</clipPath>
</defs>
</svg>
