<svg width="32" height="32" viewBox="0 0 32 32" fill="none" xmlns="http://www.w3.org/2000/svg">
<g clip-path="url(#clip0_687_357)">
<path d="M26.6666 8.00033H21.3333V5.33366C21.3333 3.86699 20.1333 2.66699 18.6666 2.66699H13.3333C11.8666 2.66699 10.6666 3.86699 10.6666 5.33366V8.00033H5.33329C3.86663 8.00033 2.66663 9.20033 2.66663 10.667V26.667C2.66663 28.1337 3.86663 29.3337 5.33329 29.3337H26.6666C28.1333 29.3337 29.3333 28.1337 29.3333 26.667V10.667C29.3333 9.20033 28.1333 8.00033 26.6666 8.00033ZM13.3333 5.33366H18.6666V8.00033H13.3333V5.33366ZM26.6666 26.667H5.33329V10.667H26.6666V26.667Z" fill="#DE3547"/>
<path d="M17.3333 13.334H14.6666V17.334H10.6666V20.0007H14.6666V24.0007H17.3333V20.0007H21.3333V17.334H17.3333V13.334Z" fill="#DE3547"/>
</g>
<defs>
<clipPath id="clip0_687_357">
<rect width="32" height="32" fill="white"/>
</clipPath>
</defs>
</svg>
