<svg width="17" height="18" viewBox="0 0 17 18" fill="none" xmlns="http://www.w3.org/2000/svg">
<path d="M8.49129 0.666992C3.89129 0.666992 0.157959 4.40033 0.157959 9.00033C0.157959 13.6003 3.89129 17.3337 8.49129 17.3337C13.0913 17.3337 16.8246 13.6003 16.8246 9.00033C16.8246 4.40033 13.0913 0.666992 8.49129 0.666992ZM8.49129 15.667C4.81629 15.667 1.82463 12.6753 1.82463 9.00033C1.82463 5.32533 4.81629 2.33366 8.49129 2.33366C12.1663 2.33366 15.158 5.32533 15.158 9.00033C15.158 12.6753 12.1663 15.667 8.49129 15.667ZM12.3163 5.31699L6.82463 10.8087L4.66629 8.65866L3.49129 9.83366L6.82463 13.167L13.4913 6.50033L12.3163 5.31699Z" fill="#E48999"/>
</svg>
