<svg width="32" height="34" viewBox="0 0 32 34" fill="none" xmlns="http://www.w3.org/2000/svg">
<path d="M28.1401 6.10295C27.4291 4.75461 26.2597 3.78076 24.7153 3.30944C22.6871 2.69195 21.1077 3.11554 19.4351 3.56598C18.3511 3.85533 17.2321 4.15662 16.017 4.12977C16.0141 4.12977 16.0082 4.12977 16.0053 4.12977C16.0024 4.12977 15.9966 4.12977 15.9937 4.12977C14.7785 4.15961 13.6566 3.85533 12.5755 3.56598C10.9029 3.11554 9.32061 2.69195 7.29538 3.30944C5.74222 3.78076 4.59702 4.70252 3.886 6.05086C2.63007 8.43431 2.71166 12.2287 4.11621 17.0255C7.0506 27.0336 8.74655 31.4217 11.0224 30.9682C12.1355 30.7475 12.5522 28.6594 12.9544 26.6428C13.4497 24.1609 13.9626 21.5955 15.9733 21.5955C15.982 21.5955 15.9907 21.5955 15.9995 21.5955C16.0082 21.5955 16.017 21.5955 16.0257 21.5955C18.0393 21.5955 18.5492 24.1609 19.0446 26.6428C19.4467 28.6594 19.8634 30.7475 20.9766 30.9682C23.2553 31.4217 24.9484 27.0336 27.8828 17.0255C29.2902 12.2287 29.3689 8.43431 28.113 6.05086L28.1401 6.10295Z" fill="white" stroke="#DE3547" stroke-width="3" stroke-linecap="round"/>
<path d="M19.8863 10C18.8346 10.5706 17.4547 10.8836 16.0022 10.8836C14.5497 10.8836 13.1698 10.5706 12.118 10" stroke="#DE3547" stroke-width="2" stroke-linecap="round"/>
</svg>
