<svg width="358" height="174" viewBox="0 0 358 174" fill="none" xmlns="http://www.w3.org/2000/svg">
<g clip-path="url(#clip0_2201_12568)">
<path d="M67.06 26.316H80.524V30.312H67.06V26.316ZM47.548 18H63.784V21.492H47.548V18ZM47.224 32.328H63.748V35.964H47.224V32.328ZM47.116 26.028H64.072V29.556H47.116V26.028ZM72.892 28.08H77.104V48.06H72.892V28.08ZM53.596 14.724H57.772V19.548H53.596V14.724ZM53.596 29.34H57.772V48.168H53.596V29.34ZM65.116 17.244L70.156 18.684C70.132 18.996 69.832 19.2 69.256 19.296V29.88C69.256 31.224 69.184 32.7 69.04 34.308C68.92 35.892 68.668 37.524 68.284 39.204C67.9 40.86 67.336 42.468 66.592 44.028C65.848 45.588 64.864 47.016 63.64 48.312C63.472 47.976 63.196 47.616 62.812 47.232C62.452 46.848 62.068 46.476 61.66 46.116C61.276 45.78 60.904 45.528 60.544 45.36C61.6 44.256 62.428 43.068 63.028 41.796C63.652 40.5 64.108 39.168 64.396 37.8C64.708 36.432 64.9 35.076 64.972 33.732C65.068 32.364 65.116 31.056 65.116 29.808V17.244ZM76.888 14.796L80.344 17.928C79.12 18.48 77.788 18.984 76.348 19.44C74.908 19.896 73.432 20.304 71.92 20.664C70.432 21 68.992 21.3 67.6 21.564C67.48 21.108 67.288 20.556 67.024 19.908C66.76 19.26 66.496 18.72 66.232 18.288C67.528 18 68.836 17.676 70.156 17.316C71.476 16.932 72.712 16.524 73.864 16.092C75.04 15.66 76.048 15.228 76.888 14.796ZM57.484 36.108C57.748 36.252 58.132 36.516 58.636 36.9C59.164 37.284 59.716 37.704 60.292 38.16C60.868 38.592 61.384 39 61.84 39.384C62.32 39.744 62.68 40.008 62.92 40.176L60.4 43.272C60.112 42.936 59.74 42.528 59.284 42.048C58.852 41.544 58.372 41.04 57.844 40.536C57.34 40.032 56.848 39.552 56.368 39.096C55.888 38.64 55.48 38.268 55.144 37.98L57.484 36.108ZM49.348 22.032L52.696 21.24C53.008 21.888 53.284 22.62 53.524 23.436C53.764 24.228 53.92 24.912 53.992 25.488L50.5 26.46C50.452 25.86 50.32 25.152 50.104 24.336C49.912 23.496 49.66 22.728 49.348 22.032ZM58.312 21.168L62.164 21.924C61.828 22.74 61.504 23.532 61.192 24.3C60.88 25.044 60.592 25.68 60.328 26.208L56.872 25.488C57.04 25.08 57.22 24.624 57.412 24.12C57.604 23.616 57.784 23.112 57.952 22.608C58.12 22.08 58.24 21.6 58.312 21.168ZM53.632 34.416L56.656 35.568C56.08 36.864 55.384 38.172 54.568 39.492C53.752 40.788 52.864 42 51.904 43.128C50.944 44.256 49.984 45.204 49.024 45.972C48.712 45.516 48.28 44.988 47.728 44.388C47.176 43.764 46.672 43.272 46.216 42.912C47.152 42.312 48.088 41.556 49.024 40.644C49.96 39.708 50.824 38.712 51.616 37.656C52.432 36.576 53.104 35.496 53.632 34.416ZM96.436 16.452C96.34 17.196 96.244 18 96.148 18.864C96.076 19.728 96.016 20.52 95.968 21.24C95.944 22.224 95.896 23.424 95.824 24.84C95.776 26.232 95.728 27.696 95.68 29.232C95.656 30.768 95.62 32.28 95.572 33.768C95.548 35.256 95.536 36.552 95.536 37.656C95.536 38.856 95.752 39.816 96.184 40.536C96.64 41.232 97.24 41.736 97.984 42.048C98.728 42.336 99.568 42.48 100.504 42.48C101.992 42.48 103.348 42.288 104.572 41.904C105.796 41.496 106.912 40.956 107.92 40.284C108.928 39.612 109.828 38.832 110.62 37.944C111.436 37.056 112.168 36.12 112.816 35.136L116.092 39.096C115.516 39.96 114.76 40.872 113.824 41.832C112.888 42.792 111.772 43.692 110.476 44.532C109.204 45.372 107.728 46.056 106.048 46.584C104.368 47.112 102.508 47.376 100.468 47.376C98.5 47.376 96.784 47.064 95.32 46.44C93.88 45.84 92.752 44.904 91.936 43.632C91.144 42.336 90.748 40.668 90.748 38.628C90.748 37.644 90.76 36.528 90.784 35.28C90.808 34.008 90.844 32.688 90.892 31.32C90.94 29.952 90.976 28.62 91 27.324C91.024 26.004 91.048 24.816 91.072 23.76C91.096 22.704 91.108 21.864 91.108 21.24C91.108 20.376 91.072 19.536 91 18.72C90.928 17.88 90.808 17.1 90.64 16.38L96.436 16.452ZM129.88 19.26C129.784 19.692 129.7 20.184 129.628 20.736C129.58 21.288 129.532 21.828 129.484 22.356C129.46 22.884 129.448 23.316 129.448 23.652C129.424 24.444 129.412 25.26 129.412 26.1C129.436 26.94 129.46 27.804 129.484 28.692C129.532 29.556 129.592 30.42 129.664 31.284C129.832 33.012 130.072 34.536 130.384 35.856C130.696 37.176 131.104 38.208 131.608 38.952C132.112 39.672 132.748 40.032 133.516 40.032C133.924 40.032 134.32 39.804 134.704 39.348C135.112 38.892 135.472 38.304 135.784 37.584C136.12 36.84 136.408 36.06 136.648 35.244C136.912 34.428 137.14 33.66 137.332 32.94L140.932 37.332C140.14 39.42 139.348 41.088 138.556 42.336C137.788 43.56 136.984 44.448 136.144 45C135.304 45.528 134.392 45.792 133.408 45.792C132.112 45.792 130.876 45.36 129.7 44.496C128.548 43.632 127.564 42.24 126.748 40.32C125.932 38.376 125.356 35.796 125.02 32.58C124.9 31.476 124.804 30.312 124.732 29.088C124.684 27.864 124.648 26.7 124.624 25.596C124.624 24.492 124.624 23.58 124.624 22.86C124.624 22.356 124.6 21.756 124.552 21.06C124.504 20.364 124.432 19.74 124.336 19.188L129.88 19.26ZM147.88 20.088C148.552 20.904 149.2 21.9 149.824 23.076C150.448 24.252 151.024 25.512 151.552 26.856C152.08 28.2 152.548 29.58 152.956 30.996C153.364 32.388 153.688 33.756 153.928 35.1C154.192 36.42 154.36 37.632 154.432 38.736L149.68 40.572C149.56 39.108 149.344 37.512 149.032 35.784C148.72 34.056 148.3 32.316 147.772 30.564C147.244 28.812 146.608 27.156 145.864 25.596C145.144 24.036 144.292 22.692 143.308 21.564L147.88 20.088ZM168.04 14.328H179.992V18.216H172.324V37.332H168.04V14.328ZM184.384 28.728H216.64V33.012H184.384V28.728ZM187.084 19.836H214.012V24.12H187.084V19.836ZM198.1 14.436H202.708V48.24H198.1V14.436ZM197.344 31.212L201.088 32.76C200.224 34.176 199.24 35.568 198.136 36.936C197.032 38.28 195.832 39.552 194.536 40.752C193.264 41.952 191.932 43.056 190.54 44.064C189.172 45.048 187.78 45.912 186.364 46.656C186.124 46.272 185.812 45.852 185.428 45.396C185.068 44.94 184.684 44.496 184.276 44.064C183.892 43.608 183.52 43.224 183.16 42.912C184.552 42.312 185.932 41.592 187.3 40.752C188.692 39.888 190.012 38.94 191.26 37.908C192.508 36.876 193.648 35.796 194.68 34.668C195.712 33.516 196.6 32.364 197.344 31.212ZM203.5 31.248C204.22 32.4 205.096 33.552 206.128 34.704C207.184 35.832 208.336 36.912 209.584 37.944C210.832 38.976 212.128 39.924 213.472 40.788C214.84 41.628 216.208 42.348 217.576 42.948C217.24 43.212 216.868 43.572 216.46 44.028C216.076 44.46 215.704 44.916 215.344 45.396C214.984 45.876 214.684 46.308 214.444 46.692C213.052 45.948 211.672 45.072 210.304 44.064C208.936 43.056 207.616 41.952 206.344 40.752C205.072 39.528 203.884 38.244 202.78 36.9C201.7 35.556 200.728 34.176 199.864 32.76L203.5 31.248ZM221.716 30.132H254.08V34.272H221.716V30.132ZM223.408 18.324H252.676V22.464H223.408V18.324ZM235.612 14.4H240.184V48.204H235.612V14.4ZM246.304 22.356L250.84 23.688C250.408 24.504 249.964 25.32 249.508 26.136C249.052 26.952 248.608 27.72 248.176 28.44C247.744 29.16 247.336 29.796 246.952 30.348L243.208 29.088C243.568 28.488 243.94 27.804 244.324 27.036C244.732 26.244 245.104 25.44 245.44 24.624C245.8 23.808 246.088 23.052 246.304 22.356ZM225.82 23.904L229.672 22.428C230.128 23.076 230.56 23.784 230.968 24.552C231.376 25.296 231.736 26.04 232.048 26.784C232.384 27.504 232.624 28.164 232.768 28.764L228.628 30.42C228.508 29.82 228.304 29.148 228.016 28.404C227.752 27.66 227.428 26.892 227.044 26.1C226.66 25.284 226.252 24.552 225.82 23.904ZM234.892 31.824L238.384 33.228C237.544 34.644 236.572 36.024 235.468 37.368C234.388 38.688 233.2 39.948 231.904 41.148C230.632 42.324 229.312 43.416 227.944 44.424C226.576 45.408 225.184 46.248 223.768 46.944C223.552 46.584 223.264 46.176 222.904 45.72C222.544 45.264 222.172 44.82 221.788 44.388C221.404 43.956 221.044 43.608 220.708 43.344C222.1 42.744 223.48 42.036 224.848 41.22C226.216 40.38 227.524 39.456 228.772 38.448C230.02 37.416 231.16 36.348 232.192 35.244C233.248 34.116 234.148 32.976 234.892 31.824ZM241.048 31.86C241.768 33.012 242.632 34.152 243.64 35.28C244.672 36.408 245.8 37.476 247.024 38.484C248.272 39.492 249.568 40.416 250.912 41.256C252.28 42.096 253.648 42.804 255.016 43.38C254.704 43.668 254.344 44.028 253.936 44.46C253.552 44.892 253.18 45.336 252.82 45.792C252.484 46.248 252.208 46.656 251.992 47.016C250.576 46.32 249.184 45.48 247.816 44.496C246.472 43.512 245.164 42.42 243.892 41.22C242.644 40.02 241.48 38.748 240.4 37.404C239.32 36.06 238.36 34.68 237.52 33.264L241.048 31.86ZM270.28 48.312H258.328V44.424H265.996V25.308H270.28V48.312ZM295.912 19.336C295.805 19.912 295.635 20.6587 295.4 21.576C295.165 22.4933 294.824 23.528 294.376 24.68C294.035 25.4693 293.64 26.2907 293.192 27.144C292.765 27.976 292.328 28.7227 291.88 29.384C292.157 29.256 292.509 29.1493 292.936 29.064C293.363 28.9573 293.8 28.8827 294.248 28.84C294.717 28.776 295.133 28.744 295.496 28.744C296.84 28.744 297.949 29.128 298.824 29.896C299.72 30.664 300.168 31.8053 300.168 33.32C300.168 33.7467 300.168 34.2693 300.168 34.888C300.189 35.5067 300.211 36.1573 300.232 36.84C300.253 37.5013 300.275 38.152 300.296 38.792C300.317 39.432 300.328 40.008 300.328 40.52H296.488C296.531 40.1573 296.552 39.7307 296.552 39.24C296.573 38.728 296.584 38.1947 296.584 37.64C296.605 37.0853 296.616 36.552 296.616 36.04C296.637 35.5067 296.648 35.0267 296.648 34.6C296.648 33.576 296.371 32.872 295.816 32.488C295.283 32.0827 294.685 31.88 294.024 31.88C293.128 31.88 292.221 32.104 291.304 32.552C290.408 32.9787 289.651 33.4907 289.032 34.088C288.563 34.5573 288.083 35.08 287.592 35.656C287.123 36.232 286.611 36.8827 286.056 37.608L282.632 35.048C284.019 33.768 285.213 32.5307 286.216 31.336C287.24 30.1413 288.104 28.9573 288.808 27.784C289.512 26.6107 290.088 25.4373 290.536 24.264C290.856 23.4107 291.112 22.5253 291.304 21.608C291.517 20.6693 291.645 19.7947 291.688 18.984L295.912 19.336ZM283.88 22.28C284.691 22.408 285.629 22.504 286.696 22.568C287.763 22.632 288.701 22.664 289.512 22.664C290.92 22.664 292.456 22.632 294.12 22.568C295.805 22.504 297.512 22.3973 299.24 22.248C300.968 22.0773 302.611 21.864 304.168 21.608L304.136 25.32C303.005 25.4693 301.779 25.608 300.456 25.736C299.155 25.8427 297.821 25.9387 296.456 26.024C295.112 26.088 293.821 26.1413 292.584 26.184C291.347 26.2053 290.248 26.216 289.288 26.216C288.861 26.216 288.328 26.216 287.688 26.216C287.069 26.1947 286.429 26.1733 285.768 26.152C285.107 26.1093 284.477 26.0667 283.88 26.024V22.28ZM309.224 31.368C308.883 31.4747 308.477 31.6133 308.008 31.784C307.56 31.9333 307.101 32.0933 306.632 32.264C306.184 32.4133 305.779 32.5627 305.416 32.712C304.392 33.1173 303.176 33.608 301.768 34.184C300.381 34.76 298.931 35.432 297.416 36.2C296.456 36.712 295.645 37.2133 294.984 37.704C294.323 38.1947 293.821 38.696 293.48 39.208C293.139 39.6987 292.968 40.2427 292.968 40.84C292.968 41.288 293.064 41.6613 293.256 41.96C293.448 42.2373 293.736 42.4613 294.12 42.632C294.504 42.8027 294.984 42.92 295.56 42.984C296.136 43.048 296.819 43.08 297.608 43.08C298.973 43.08 300.477 43.0053 302.12 42.856C303.763 42.6853 305.288 42.4613 306.696 42.184L306.568 46.312C305.885 46.3973 305.021 46.4827 303.976 46.568C302.931 46.6747 301.843 46.7493 300.712 46.792C299.603 46.8347 298.536 46.856 297.512 46.856C295.848 46.856 294.355 46.696 293.032 46.376C291.709 46.056 290.664 45.512 289.896 44.744C289.149 43.9547 288.776 42.8773 288.776 41.512C288.776 40.4027 289.021 39.4 289.512 38.504C290.024 37.608 290.696 36.7973 291.528 36.072C292.36 35.3467 293.267 34.696 294.248 34.12C295.251 33.5227 296.232 32.9787 297.192 32.488C298.173 31.976 299.059 31.5387 299.848 31.176C300.637 30.8133 301.373 30.4933 302.056 30.216C302.76 29.9173 303.432 29.6187 304.072 29.32C304.691 29.0427 305.288 28.776 305.864 28.52C306.44 28.2427 307.027 27.9547 307.624 27.656L309.224 31.368ZM56.852 78.696H76.4V82.8H56.852V78.696ZM56.852 87.048H76.4V91.152H56.852V87.048ZM56.852 95.364H76.4V99.576H56.852V95.364ZM53.756 70.38H79.424V101.844H74.816V74.592H58.112V101.844H53.756V70.38ZM101.708 68.436H106.028V78.228C106.028 78.9 106.172 79.32 106.46 79.488C106.772 79.656 107.444 79.74 108.476 79.74C108.692 79.74 108.992 79.74 109.376 79.74C109.784 79.74 110.24 79.74 110.744 79.74C111.272 79.74 111.8 79.74 112.328 79.74C112.856 79.74 113.336 79.74 113.768 79.74C114.2 79.74 114.536 79.74 114.776 79.74C115.376 79.74 115.82 79.644 116.108 79.452C116.42 79.26 116.636 78.864 116.756 78.264C116.9 77.664 117.008 76.776 117.08 75.6C117.536 75.912 118.16 76.224 118.952 76.536C119.744 76.824 120.428 77.028 121.004 77.148C120.836 78.852 120.548 80.184 120.14 81.144C119.732 82.08 119.132 82.728 118.34 83.088C117.548 83.448 116.456 83.628 115.064 83.628C114.848 83.628 114.5 83.628 114.02 83.628C113.564 83.628 113.036 83.628 112.436 83.628C111.86 83.628 111.272 83.628 110.672 83.628C110.072 83.628 109.532 83.628 109.052 83.628C108.596 83.628 108.272 83.628 108.08 83.628C106.4 83.628 105.092 83.472 104.156 83.16C103.244 82.848 102.608 82.296 102.248 81.504C101.888 80.712 101.708 79.632 101.708 78.264V68.436ZM115.64 69.984L118.844 73.116C117.524 73.644 116.072 74.148 114.488 74.628C112.904 75.084 111.284 75.504 109.628 75.888C107.996 76.272 106.412 76.608 104.876 76.896C104.78 76.44 104.6 75.9 104.336 75.276C104.072 74.652 103.832 74.124 103.616 73.692C105.056 73.38 106.508 73.032 107.972 72.648C109.46 72.24 110.864 71.808 112.184 71.352C113.528 70.872 114.68 70.416 115.64 69.984ZM101.636 85.716H119.24V102.06H114.956V89.244H105.74V102.204H101.636V85.716ZM103.796 91.476H116.396V94.824H103.796V91.476ZM103.652 97.2H116.396V100.656H103.652V97.2ZM86.876 86.796C88.004 86.556 89.276 86.268 90.692 85.932C92.132 85.596 93.632 85.236 95.192 84.852C96.776 84.444 98.348 84.036 99.908 83.628L100.448 87.588C98.288 88.188 96.104 88.776 93.896 89.352C91.712 89.928 89.72 90.456 87.92 90.936L86.876 86.796ZM87.452 75.204H99.872V79.2H87.452V75.204ZM91.952 68.4H96.164V97.56C96.164 98.616 96.056 99.432 95.84 100.008C95.624 100.584 95.204 101.052 94.58 101.412C93.98 101.724 93.236 101.928 92.348 102.024C91.46 102.12 90.38 102.168 89.108 102.168C89.036 101.616 88.88 100.956 88.64 100.188C88.424 99.42 88.184 98.76 87.92 98.208C88.616 98.232 89.288 98.256 89.936 98.28C90.584 98.28 91.028 98.28 91.268 98.28C91.508 98.256 91.676 98.196 91.772 98.1C91.892 98.004 91.952 97.836 91.952 97.596V68.4ZM147.068 69.984C147.044 70.176 147.008 70.488 146.96 70.92C146.936 71.328 146.912 71.748 146.888 72.18C146.864 72.588 146.84 72.888 146.816 73.08C146.792 73.56 146.78 74.208 146.78 75.024C146.78 75.816 146.78 76.704 146.78 77.688C146.78 78.672 146.78 79.668 146.78 80.676C146.804 81.66 146.816 82.596 146.816 83.484C146.84 84.348 146.852 85.068 146.852 85.644L142.352 84.132C142.352 83.676 142.352 83.076 142.352 82.332C142.352 81.564 142.352 80.736 142.352 79.848C142.352 78.936 142.34 78.036 142.316 77.148C142.316 76.26 142.304 75.456 142.28 74.736C142.256 74.016 142.232 73.476 142.208 73.116C142.16 72.372 142.1 71.724 142.028 71.172C141.956 70.596 141.896 70.2 141.848 69.984H147.068ZM126.728 74.448C127.784 74.448 128.984 74.436 130.328 74.412C131.672 74.388 133.076 74.364 134.54 74.34C136.004 74.316 137.444 74.292 138.86 74.268C140.276 74.244 141.608 74.232 142.856 74.232C144.104 74.208 145.184 74.196 146.096 74.196C147.008 74.196 148.004 74.196 149.084 74.196C150.164 74.172 151.232 74.16 152.288 74.16C153.344 74.16 154.304 74.16 155.168 74.16C156.056 74.16 156.74 74.16 157.22 74.16L157.184 78.408C156.056 78.36 154.568 78.324 152.72 78.3C150.872 78.252 148.616 78.228 145.952 78.228C144.32 78.228 142.664 78.252 140.984 78.3C139.304 78.324 137.636 78.36 135.98 78.408C134.324 78.456 132.728 78.516 131.192 78.588C129.656 78.636 128.204 78.708 126.836 78.804L126.728 74.448ZM146.204 85.104C146.204 87.072 145.964 88.704 145.484 90C145.028 91.296 144.332 92.28 143.396 92.952C142.46 93.6 141.296 93.924 139.904 93.924C139.232 93.924 138.524 93.78 137.78 93.492C137.06 93.204 136.388 92.784 135.764 92.232C135.14 91.68 134.636 90.996 134.252 90.18C133.892 89.364 133.712 88.404 133.712 87.3C133.712 85.932 134.036 84.756 134.684 83.772C135.332 82.764 136.196 81.984 137.276 81.432C138.38 80.856 139.592 80.568 140.912 80.568C142.496 80.568 143.816 80.928 144.872 81.648C145.952 82.344 146.756 83.292 147.284 84.492C147.836 85.692 148.112 87.048 148.112 88.56C148.112 89.736 147.92 90.96 147.536 92.232C147.152 93.504 146.516 94.752 145.628 95.976C144.764 97.176 143.588 98.268 142.1 99.252C140.636 100.236 138.8 101.04 136.592 101.664L132.74 97.848C134.276 97.536 135.704 97.128 137.024 96.624C138.344 96.12 139.496 95.484 140.48 94.716C141.488 93.948 142.268 93 142.82 91.872C143.396 90.744 143.684 89.388 143.684 87.804C143.684 86.652 143.396 85.788 142.82 85.212C142.268 84.636 141.596 84.348 140.804 84.348C140.348 84.348 139.904 84.456 139.472 84.672C139.04 84.888 138.692 85.212 138.428 85.644C138.164 86.076 138.032 86.604 138.032 87.228C138.032 88.044 138.308 88.704 138.86 89.208C139.436 89.688 140.084 89.928 140.804 89.928C141.38 89.928 141.884 89.748 142.316 89.388C142.772 89.028 143.072 88.428 143.216 87.588C143.36 86.748 143.24 85.62 142.856 84.204L146.204 85.104ZM178.856 70.02C178.76 70.356 178.664 70.692 178.568 71.028C178.496 71.34 178.424 71.64 178.352 71.928C178.136 73.056 177.932 74.352 177.74 75.816C177.548 77.256 177.392 78.768 177.272 80.352C177.152 81.912 177.092 83.448 177.092 84.96C177.092 86.832 177.188 88.56 177.38 90.144C177.572 91.704 177.836 93.156 178.172 94.5C178.532 95.82 178.916 97.08 179.324 98.28L175.184 99.54C174.824 98.46 174.476 97.176 174.14 95.688C173.828 94.2 173.564 92.604 173.348 90.9C173.132 89.172 173.024 87.432 173.024 85.68C173.024 84.48 173.06 83.28 173.132 82.08C173.228 80.856 173.324 79.656 173.42 78.48C173.516 77.28 173.624 76.14 173.744 75.06C173.888 73.956 174.008 72.96 174.104 72.072C174.128 71.736 174.152 71.376 174.176 70.992C174.2 70.584 174.2 70.224 174.176 69.912L178.856 70.02ZM172.448 74.016C174.728 74.016 176.864 73.968 178.856 73.872C180.872 73.776 182.804 73.608 184.652 73.368C186.524 73.128 188.384 72.78 190.232 72.324L190.268 76.5C189.02 76.716 187.64 76.92 186.128 77.112C184.64 77.28 183.08 77.424 181.448 77.544C179.84 77.664 178.256 77.76 176.696 77.832C175.136 77.88 173.672 77.904 172.304 77.904C171.68 77.904 170.972 77.892 170.18 77.868C169.412 77.844 168.644 77.82 167.876 77.796C167.132 77.748 166.484 77.712 165.932 77.688L165.824 73.512C166.232 73.56 166.82 73.632 167.588 73.728C168.356 73.8 169.172 73.872 170.036 73.944C170.924 73.992 171.728 74.016 172.448 74.016ZM187.964 79.272C187.892 79.488 187.784 79.788 187.64 80.172C187.496 80.556 187.352 80.952 187.208 81.36C187.088 81.768 186.992 82.092 186.92 82.332C186.224 84.492 185.372 86.472 184.364 88.272C183.38 90.048 182.312 91.608 181.16 92.952C180.008 94.272 178.868 95.352 177.74 96.192C176.564 97.08 175.22 97.86 173.708 98.532C172.196 99.18 170.672 99.504 169.136 99.504C168.272 99.504 167.468 99.324 166.724 98.964C165.98 98.604 165.38 98.04 164.924 97.272C164.492 96.48 164.276 95.484 164.276 94.284C164.276 92.988 164.54 91.716 165.068 90.468C165.596 89.22 166.328 88.032 167.264 86.904C168.2 85.776 169.292 84.78 170.54 83.916C171.788 83.028 173.132 82.332 174.572 81.828C175.748 81.396 177.032 81.048 178.424 80.784C179.84 80.52 181.232 80.388 182.6 80.388C184.832 80.388 186.824 80.796 188.576 81.612C190.352 82.428 191.744 83.544 192.752 84.96C193.76 86.376 194.264 88.032 194.264 89.928C194.264 91.2 194.06 92.448 193.652 93.672C193.244 94.872 192.572 95.988 191.636 97.02C190.724 98.052 189.512 98.94 188 99.684C186.488 100.428 184.628 100.968 182.42 101.304L180.044 97.524C182.348 97.26 184.22 96.744 185.66 95.976C187.1 95.184 188.144 94.236 188.792 93.132C189.464 92.028 189.8 90.888 189.8 89.712C189.8 88.656 189.512 87.708 188.936 86.868C188.384 86.028 187.544 85.356 186.416 84.852C185.312 84.324 183.944 84.06 182.312 84.06C180.68 84.06 179.216 84.24 177.92 84.6C176.648 84.96 175.58 85.344 174.716 85.752C173.516 86.328 172.448 87.06 171.512 87.948C170.576 88.812 169.844 89.724 169.316 90.684C168.788 91.644 168.524 92.532 168.524 93.348C168.524 93.924 168.656 94.368 168.92 94.68C169.184 94.968 169.604 95.112 170.18 95.112C171.044 95.112 172.04 94.836 173.168 94.284C174.296 93.708 175.412 92.904 176.516 91.872C177.812 90.672 179.036 89.232 180.188 87.552C181.34 85.872 182.288 83.784 183.032 81.288C183.104 81.048 183.176 80.736 183.248 80.352C183.32 79.968 183.38 79.584 183.428 79.2C183.5 78.792 183.548 78.468 183.572 78.228L187.964 79.272ZM201.428 75.42C202.196 75.516 203.012 75.588 203.876 75.636C204.764 75.66 205.544 75.672 206.216 75.672C207.704 75.672 209.204 75.588 210.716 75.42C212.252 75.252 213.728 75.036 215.144 74.772C216.56 74.484 217.844 74.16 218.996 73.8L219.14 77.976C218.108 78.24 216.872 78.516 215.432 78.804C214.016 79.068 212.516 79.296 210.932 79.488C209.348 79.656 207.788 79.74 206.252 79.74C205.532 79.74 204.8 79.728 204.056 79.704C203.312 79.68 202.544 79.644 201.752 79.596L201.428 75.42ZM215.432 70.02C215.288 70.62 215.096 71.4 214.856 72.36C214.616 73.32 214.34 74.328 214.028 75.384C213.74 76.44 213.428 77.484 213.092 78.516C212.564 80.244 211.868 82.08 211.004 84.024C210.14 85.968 209.204 87.864 208.196 89.712C207.188 91.56 206.168 93.204 205.136 94.644L200.78 92.412C201.596 91.404 202.4 90.288 203.192 89.064C203.984 87.84 204.728 86.58 205.424 85.284C206.12 83.988 206.744 82.74 207.296 81.54C207.872 80.316 208.328 79.212 208.664 78.228C209.12 76.956 209.516 75.54 209.852 73.98C210.212 72.396 210.416 70.908 210.464 69.516L215.432 70.02ZM223.856 81.216C223.808 81.984 223.784 82.752 223.784 83.52C223.808 84.264 223.832 85.032 223.856 85.824C223.88 86.376 223.904 87.084 223.928 87.948C223.976 88.788 224.024 89.688 224.072 90.648C224.12 91.584 224.156 92.484 224.18 93.348C224.228 94.188 224.252 94.86 224.252 95.364C224.252 96.468 224.024 97.476 223.568 98.388C223.112 99.276 222.38 99.984 221.372 100.512C220.388 101.04 219.032 101.304 217.304 101.304C215.816 101.304 214.472 101.076 213.272 100.62C212.072 100.188 211.112 99.54 210.392 98.676C209.672 97.788 209.312 96.684 209.312 95.364C209.312 94.188 209.624 93.132 210.248 92.196C210.872 91.236 211.772 90.492 212.948 89.964C214.148 89.412 215.588 89.136 217.268 89.136C219.38 89.136 221.324 89.436 223.1 90.036C224.876 90.612 226.472 91.356 227.888 92.268C229.304 93.18 230.516 94.092 231.524 95.004L229.112 98.856C228.464 98.28 227.72 97.632 226.88 96.912C226.064 96.192 225.14 95.52 224.108 94.896C223.1 94.272 221.996 93.756 220.796 93.348C219.62 92.94 218.348 92.736 216.98 92.736C215.948 92.736 215.12 92.94 214.496 93.348C213.872 93.756 213.56 94.284 213.56 94.932C213.56 95.604 213.824 96.144 214.352 96.552C214.904 96.96 215.672 97.164 216.656 97.164C217.472 97.164 218.12 97.032 218.6 96.768C219.08 96.48 219.416 96.084 219.608 95.58C219.8 95.052 219.896 94.464 219.896 93.816C219.896 93.264 219.872 92.484 219.824 91.476C219.776 90.468 219.716 89.352 219.644 88.128C219.596 86.904 219.548 85.68 219.5 84.456C219.452 83.232 219.404 82.152 219.356 81.216H223.856ZM230.048 83.124C229.352 82.548 228.488 81.936 227.456 81.288C226.424 80.64 225.356 80.028 224.252 79.452C223.172 78.852 222.224 78.372 221.408 78.012L223.712 74.448C224.36 74.736 225.092 75.096 225.908 75.528C226.748 75.936 227.588 76.368 228.428 76.824C229.292 77.28 230.084 77.736 230.804 78.192C231.548 78.624 232.148 79.008 232.604 79.344L230.048 83.124ZM252.944 70.272C252.8 70.752 252.656 71.34 252.512 72.036C252.368 72.732 252.26 73.272 252.188 73.656C252.02 74.472 251.804 75.468 251.54 76.644C251.3 77.82 251.024 79.068 250.712 80.388C250.424 81.708 250.124 82.968 249.812 84.168C249.5 85.44 249.116 86.82 248.66 88.308C248.204 89.772 247.712 91.272 247.184 92.808C246.68 94.32 246.164 95.772 245.636 97.164C245.108 98.532 244.592 99.756 244.088 100.836L239.084 99.144C239.612 98.232 240.176 97.128 240.776 95.832C241.376 94.512 241.952 93.096 242.504 91.584C243.08 90.072 243.608 88.572 244.088 87.084C244.568 85.596 244.976 84.216 245.312 82.944C245.552 82.104 245.78 81.24 245.996 80.352C246.212 79.464 246.404 78.6 246.572 77.76C246.74 76.92 246.884 76.14 247.004 75.42C247.148 74.676 247.256 74.028 247.328 73.476C247.4 72.804 247.448 72.132 247.472 71.46C247.496 70.788 247.484 70.248 247.436 69.84L252.944 70.272ZM243.764 75.636C245.228 75.636 246.752 75.564 248.336 75.42C249.92 75.276 251.516 75.072 253.124 74.808C254.732 74.544 256.328 74.232 257.912 73.872V78.372C256.424 78.708 254.84 78.996 253.16 79.236C251.48 79.476 249.824 79.668 248.192 79.812C246.56 79.932 245.06 79.992 243.692 79.992C242.828 79.992 242.048 79.98 241.352 79.956C240.656 79.908 239.984 79.872 239.336 79.848L239.228 75.348C240.164 75.444 240.968 75.516 241.64 75.564C242.312 75.612 243.02 75.636 243.764 75.636ZM255.068 81.144C256.076 81.048 257.192 80.964 258.416 80.892C259.64 80.82 260.828 80.784 261.98 80.784C263.012 80.784 264.056 80.808 265.112 80.856C266.192 80.904 267.26 80.988 268.316 81.108L268.208 85.428C267.32 85.308 266.336 85.212 265.256 85.14C264.2 85.044 263.12 84.996 262.016 84.996C260.792 84.996 259.604 85.032 258.452 85.104C257.324 85.152 256.196 85.248 255.068 85.392V81.144ZM257.012 90.216C256.868 90.72 256.748 91.248 256.652 91.8C256.556 92.328 256.508 92.796 256.508 93.204C256.508 93.588 256.592 93.948 256.76 94.284C256.928 94.62 257.192 94.92 257.552 95.184C257.912 95.424 258.404 95.616 259.028 95.76C259.676 95.904 260.48 95.976 261.44 95.976C262.664 95.976 263.888 95.916 265.112 95.796C266.36 95.652 267.632 95.46 268.928 95.22L268.748 99.828C267.74 99.948 266.624 100.056 265.4 100.152C264.176 100.272 262.844 100.332 261.404 100.332C258.38 100.332 256.064 99.84 254.456 98.856C252.872 97.848 252.08 96.432 252.08 94.608C252.08 93.792 252.152 92.964 252.296 92.124C252.44 91.284 252.584 90.504 252.728 89.784L257.012 90.216ZM274.652 88.272C275.204 87.84 275.708 87.408 276.164 86.976C276.644 86.52 277.16 86.016 277.712 85.464C278.12 85.032 278.588 84.504 279.116 83.88C279.644 83.232 280.208 82.536 280.808 81.792C281.408 81.048 282.008 80.304 282.608 79.56C283.232 78.792 283.82 78.084 284.372 77.436C285.644 75.996 286.88 75.228 288.08 75.132C289.28 75.012 290.54 75.6 291.86 76.896C292.676 77.688 293.516 78.588 294.38 79.596C295.268 80.604 296.132 81.612 296.972 82.62C297.812 83.628 298.592 84.516 299.312 85.284C299.888 85.932 300.5 86.604 301.148 87.3C301.82 87.996 302.528 88.728 303.272 89.496C304.016 90.264 304.796 91.032 305.612 91.8C306.428 92.568 307.256 93.336 308.096 94.104L304.388 98.424C303.548 97.584 302.66 96.672 301.724 95.688C300.788 94.704 299.864 93.696 298.952 92.664C298.064 91.632 297.224 90.684 296.432 89.82C295.712 88.932 294.944 87.996 294.128 87.012C293.336 86.004 292.568 85.044 291.824 84.132C291.08 83.22 290.42 82.452 289.844 81.828C289.436 81.348 289.064 81.048 288.728 80.928C288.416 80.808 288.104 80.832 287.792 81C287.504 81.168 287.192 81.48 286.856 81.936C286.496 82.392 286.076 82.932 285.596 83.556C285.14 84.18 284.648 84.852 284.12 85.572C283.616 86.268 283.124 86.952 282.644 87.624C282.164 88.272 281.72 88.848 281.312 89.352C280.904 89.952 280.496 90.552 280.088 91.152C279.704 91.752 279.356 92.292 279.044 92.772L274.652 88.272Z" fill="white"/>
<path d="M43.112 135.528C43.112 135.357 43.112 135.048 43.112 134.6C43.112 134.141 43.112 133.603 43.112 132.984C43.112 132.355 43.112 131.704 43.112 131.032C43.112 130.349 43.112 129.688 43.112 129.048C43.112 128.408 43.112 127.843 43.112 127.352C43.112 126.861 43.112 126.504 43.112 126.28C43.112 126.024 43.1013 125.731 43.08 125.4C43.0587 125.059 43.0213 124.755 42.968 124.488H44.936C44.9147 124.744 44.888 125.037 44.856 125.368C44.8347 125.699 44.824 126.003 44.824 126.28C44.824 126.643 44.824 127.101 44.824 127.656C44.824 128.2 44.824 128.792 44.824 129.432C44.824 130.072 44.824 130.717 44.824 131.368C44.824 132.019 44.824 132.632 44.824 133.208C44.824 133.773 44.824 134.264 44.824 134.68C44.824 135.096 44.824 135.379 44.824 135.528C44.824 135.699 44.8293 135.907 44.84 136.152C44.8507 136.397 44.8667 136.648 44.888 136.904C44.9093 137.149 44.9307 137.373 44.952 137.576H42.984C43.0267 137.299 43.0587 136.968 43.08 136.584C43.1013 136.189 43.112 135.837 43.112 135.528ZM44.456 128.664C44.9787 128.813 45.5653 129 46.216 129.224C46.8667 129.437 47.5227 129.672 48.184 129.928C48.8453 130.173 49.4747 130.419 50.072 130.664C50.6693 130.909 51.176 131.133 51.592 131.336L50.872 133.08C50.424 132.835 49.9173 132.589 49.352 132.344C48.7973 132.088 48.2267 131.843 47.64 131.608C47.0533 131.373 46.4827 131.16 45.928 130.968C45.384 130.776 44.8933 130.611 44.456 130.472V128.664ZM58.168 124.936C58.3813 124.957 58.6213 124.979 58.888 125C59.1653 125.011 59.4373 125.016 59.704 125.016C59.8747 125.016 60.168 125.016 60.584 125.016C61.0107 125.016 61.4853 125.016 62.008 125.016C62.5413 125.016 63.0693 125.016 63.592 125.016C64.1253 125.016 64.6 125.016 65.016 125.016C65.4427 125.016 65.7467 125.016 65.928 125.016C66.184 125.016 66.456 125.011 66.744 125C67.0427 124.979 67.2933 124.957 67.496 124.936V126.584C67.2933 126.563 67.048 126.552 66.76 126.552C66.472 126.541 66.1893 126.536 65.912 126.536C65.7307 126.536 65.432 126.536 65.016 126.536C64.6 126.536 64.1253 126.536 63.592 126.536C63.0693 126.536 62.5413 126.536 62.008 126.536C61.4853 126.536 61.016 126.536 60.6 126.536C60.184 126.536 59.8853 126.536 59.704 126.536C59.448 126.536 59.1813 126.541 58.904 126.552C58.6373 126.552 58.392 126.563 58.168 126.584V124.936ZM68.76 129.336C68.7067 129.421 68.6533 129.517 68.6 129.624C68.5573 129.731 68.5253 129.821 68.504 129.896C68.28 130.675 67.9813 131.453 67.608 132.232C67.2347 133.011 66.7493 133.725 66.152 134.376C65.3307 135.293 64.424 136.019 63.432 136.552C62.4507 137.085 61.448 137.496 60.424 137.784L59.176 136.344C60.3387 136.099 61.4 135.731 62.36 135.24C63.32 134.739 64.1253 134.147 64.776 133.464C65.2347 132.984 65.608 132.461 65.896 131.896C66.1947 131.331 66.4133 130.787 66.552 130.264C66.4453 130.264 66.2373 130.264 65.928 130.264C65.6187 130.264 65.24 130.264 64.792 130.264C64.3547 130.264 63.8853 130.264 63.384 130.264C62.8827 130.264 62.3707 130.264 61.848 130.264C61.336 130.264 60.8507 130.264 60.392 130.264C59.9333 130.264 59.528 130.264 59.176 130.264C58.8347 130.264 58.5787 130.264 58.408 130.264C58.216 130.264 57.96 130.269 57.64 130.28C57.3307 130.291 57.0213 130.307 56.712 130.328V128.664C57.032 128.696 57.336 128.723 57.624 128.744C57.912 128.765 58.1733 128.776 58.408 128.776C58.536 128.776 58.7653 128.776 59.096 128.776C59.4267 128.776 59.816 128.776 60.264 128.776C60.712 128.776 61.192 128.776 61.704 128.776C62.2267 128.776 62.7493 128.776 63.272 128.776C63.7947 128.776 64.28 128.776 64.728 128.776C65.1867 128.776 65.5813 128.776 65.912 128.776C66.2427 128.776 66.472 128.776 66.6 128.776C66.824 128.776 67.0213 128.765 67.192 128.744C67.3733 128.712 67.5173 128.675 67.624 128.632L68.76 129.336ZM72.376 131.032C73.784 130.659 75.0747 130.216 76.248 129.704C77.432 129.181 78.4667 128.643 79.352 128.088C79.9173 127.747 80.4667 127.363 81 126.936C81.544 126.509 82.056 126.067 82.536 125.608C83.016 125.149 83.4373 124.707 83.8 124.28L85.144 125.56C84.6747 126.04 84.168 126.515 83.624 126.984C83.08 127.453 82.504 127.907 81.896 128.344C81.2987 128.771 80.6853 129.176 80.056 129.56C79.4693 129.923 78.8027 130.291 78.056 130.664C77.3093 131.027 76.52 131.379 75.688 131.72C74.856 132.051 74.0133 132.349 73.16 132.616L72.376 131.032ZM79.064 128.92L80.84 128.456V135.704C80.84 135.917 80.84 136.152 80.84 136.408C80.8507 136.653 80.8613 136.883 80.872 137.096C80.8933 137.309 80.92 137.475 80.952 137.592H78.968C78.9787 137.475 78.9947 137.309 79.016 137.096C79.0373 136.883 79.048 136.653 79.048 136.408C79.0587 136.152 79.064 135.917 79.064 135.704V128.92ZM99.352 124.904C99.4907 125.107 99.6507 125.357 99.832 125.656C100.024 125.955 100.205 126.259 100.376 126.568C100.557 126.867 100.707 127.144 100.824 127.4L99.704 127.88C99.5653 127.571 99.416 127.277 99.256 127C99.1067 126.712 98.952 126.429 98.792 126.152C98.632 125.875 98.456 125.613 98.264 125.368L99.352 124.904ZM101.496 124.136C101.645 124.328 101.811 124.568 101.992 124.856C102.184 125.144 102.371 125.443 102.552 125.752C102.733 126.051 102.888 126.323 103.016 126.568L101.896 127.064C101.757 126.755 101.603 126.461 101.432 126.184C101.272 125.907 101.107 125.635 100.936 125.368C100.765 125.101 100.584 124.845 100.392 124.6L101.496 124.136ZM92.472 124.632C92.7173 124.771 93 124.947 93.32 125.16C93.6507 125.363 93.9867 125.576 94.328 125.8C94.6693 126.013 94.9893 126.221 95.288 126.424C95.5867 126.616 95.832 126.781 96.024 126.92L95.064 128.296C94.872 128.147 94.6267 127.971 94.328 127.768C94.0293 127.565 93.7093 127.357 93.368 127.144C93.0373 126.931 92.712 126.728 92.392 126.536C92.0827 126.333 91.8053 126.163 91.56 126.024L92.472 124.632ZM89.816 136.04C90.4133 135.933 91.0213 135.8 91.64 135.64C92.2587 135.469 92.872 135.267 93.48 135.032C94.088 134.787 94.6693 134.515 95.224 134.216C96.12 133.704 96.9467 133.133 97.704 132.504C98.472 131.875 99.1653 131.203 99.784 130.488C100.403 129.773 100.925 129.037 101.352 128.28L102.328 129.976C101.613 131.064 100.717 132.104 99.64 133.096C98.5627 134.088 97.3733 134.963 96.072 135.72C95.5387 136.019 94.952 136.301 94.312 136.568C93.672 136.835 93.0427 137.064 92.424 137.256C91.8053 137.459 91.2507 137.603 90.76 137.688L89.816 136.04ZM90.024 128.264C90.28 128.392 90.5733 128.557 90.904 128.76C91.2347 128.952 91.5707 129.155 91.912 129.368C92.2533 129.581 92.5733 129.784 92.872 129.976C93.1707 130.168 93.416 130.328 93.608 130.456L92.68 131.88C92.4667 131.731 92.2107 131.555 91.912 131.352C91.6133 131.149 91.2987 130.941 90.968 130.728C90.6373 130.515 90.312 130.317 89.992 130.136C89.672 129.944 89.384 129.779 89.128 129.64L90.024 128.264ZM107.928 128.104C108.045 128.115 108.216 128.125 108.44 128.136C108.664 128.147 108.893 128.157 109.128 128.168C109.363 128.168 109.56 128.168 109.72 128.168C109.933 128.168 110.237 128.168 110.632 128.168C111.027 128.168 111.469 128.168 111.96 128.168C112.451 128.168 112.941 128.168 113.432 128.168C113.933 128.168 114.392 128.168 114.808 128.168C115.235 128.168 115.581 128.168 115.848 128.168C116.04 128.168 116.243 128.168 116.456 128.168C116.669 128.157 116.829 128.152 116.936 128.152C116.925 128.237 116.92 128.371 116.92 128.552C116.92 128.733 116.92 128.909 116.92 129.08C116.92 129.176 116.92 129.411 116.92 129.784C116.92 130.147 116.92 130.595 116.92 131.128C116.92 131.651 116.92 132.211 116.92 132.808C116.92 133.395 116.92 133.976 116.92 134.552C116.92 135.117 116.92 135.624 116.92 136.072C116.92 136.509 116.92 136.84 116.92 137.064C116.92 137.192 116.92 137.352 116.92 137.544C116.931 137.747 116.941 137.907 116.952 138.024H115.352C115.363 137.917 115.368 137.763 115.368 137.56C115.368 137.357 115.368 137.171 115.368 137C115.368 136.723 115.368 136.365 115.368 135.928C115.368 135.48 115.368 134.995 115.368 134.472C115.368 133.939 115.368 133.405 115.368 132.872C115.368 132.328 115.368 131.827 115.368 131.368C115.368 130.909 115.368 130.525 115.368 130.216C115.368 129.896 115.368 129.693 115.368 129.608C115.272 129.608 115.091 129.608 114.824 129.608C114.568 129.608 114.253 129.608 113.88 129.608C113.517 129.608 113.133 129.608 112.728 129.608C112.323 129.608 111.923 129.608 111.528 129.608C111.144 129.608 110.792 129.608 110.472 129.608C110.152 129.608 109.901 129.608 109.72 129.608C109.56 129.608 109.357 129.613 109.112 129.624C108.877 129.624 108.648 129.629 108.424 129.64C108.211 129.64 108.045 129.645 107.928 129.656V128.104ZM108.312 131.896C108.493 131.907 108.728 131.917 109.016 131.928C109.315 131.939 109.603 131.944 109.88 131.944C110.019 131.944 110.253 131.944 110.584 131.944C110.925 131.944 111.315 131.944 111.752 131.944C112.2 131.944 112.659 131.944 113.128 131.944C113.608 131.944 114.061 131.944 114.488 131.944C114.915 131.944 115.277 131.944 115.576 131.944C115.875 131.944 116.061 131.944 116.136 131.944V133.384C116.051 133.384 115.859 133.384 115.56 133.384C115.272 133.384 114.915 133.384 114.488 133.384C114.061 133.384 113.608 133.384 113.128 133.384C112.659 133.384 112.2 133.384 111.752 133.384C111.315 133.384 110.925 133.384 110.584 133.384C110.253 133.384 110.024 133.384 109.896 133.384C109.608 133.384 109.315 133.384 109.016 133.384C108.728 133.384 108.493 133.395 108.312 133.416V131.896ZM107.752 135.848C107.891 135.859 108.077 135.875 108.312 135.896C108.557 135.907 108.819 135.912 109.096 135.912C109.256 135.912 109.523 135.912 109.896 135.912C110.269 135.912 110.696 135.912 111.176 135.912C111.667 135.912 112.173 135.912 112.696 135.912C113.229 135.912 113.736 135.912 114.216 135.912C114.696 135.912 115.107 135.912 115.448 135.912C115.8 135.912 116.029 135.912 116.136 135.912V137.384C115.997 137.384 115.752 137.384 115.4 137.384C115.048 137.384 114.632 137.384 114.152 137.384C113.683 137.384 113.187 137.384 112.664 137.384C112.141 137.384 111.635 137.384 111.144 137.384C110.664 137.384 110.243 137.384 109.88 137.384C109.517 137.384 109.256 137.384 109.096 137.384C108.861 137.384 108.611 137.389 108.344 137.4C108.088 137.411 107.891 137.421 107.752 137.432V135.848ZM133.192 123.624C133.331 123.816 133.475 124.04 133.624 124.296C133.784 124.552 133.933 124.808 134.072 125.064C134.221 125.309 134.349 125.533 134.456 125.736L133.368 126.2C133.261 125.976 133.139 125.741 133 125.496C132.861 125.24 132.712 124.989 132.552 124.744C132.403 124.488 132.259 124.259 132.12 124.056L133.192 123.624ZM135.336 123.208C135.464 123.389 135.608 123.608 135.768 123.864C135.928 124.12 136.083 124.381 136.232 124.648C136.392 124.904 136.525 125.128 136.632 125.32L135.544 125.8C135.373 125.469 135.171 125.101 134.936 124.696C134.701 124.28 134.472 123.933 134.248 123.656L135.336 123.208ZM134.728 126.568C134.664 126.696 134.611 126.84 134.568 127C134.525 127.16 134.483 127.325 134.44 127.496C134.355 127.901 134.243 128.355 134.104 128.856C133.965 129.357 133.795 129.875 133.592 130.408C133.4 130.941 133.176 131.464 132.92 131.976C132.664 132.477 132.371 132.941 132.04 133.368C131.56 133.987 131.011 134.573 130.392 135.128C129.773 135.672 129.075 136.163 128.296 136.6C127.528 137.027 126.659 137.395 125.688 137.704L124.312 136.2C125.368 135.933 126.275 135.613 127.032 135.24C127.8 134.867 128.472 134.44 129.048 133.96C129.624 133.469 130.131 132.947 130.568 132.392C130.941 131.923 131.261 131.4 131.528 130.824C131.795 130.248 132.019 129.672 132.2 129.096C132.381 128.509 132.504 127.971 132.568 127.48C132.408 127.48 132.131 127.48 131.736 127.48C131.341 127.48 130.877 127.48 130.344 127.48C129.811 127.48 129.251 127.48 128.664 127.48C128.088 127.48 127.528 127.48 126.984 127.48C126.451 127.48 125.981 127.48 125.576 127.48C125.171 127.48 124.877 127.48 124.696 127.48C124.365 127.48 124.045 127.485 123.736 127.496C123.437 127.507 123.181 127.523 122.968 127.544V125.752C123.128 125.763 123.309 125.779 123.512 125.8C123.715 125.821 123.923 125.837 124.136 125.848C124.349 125.859 124.541 125.864 124.712 125.864C124.861 125.864 125.096 125.864 125.416 125.864C125.736 125.864 126.115 125.864 126.552 125.864C126.989 125.864 127.453 125.864 127.944 125.864C128.435 125.864 128.92 125.864 129.4 125.864C129.891 125.864 130.344 125.864 130.76 125.864C131.187 125.864 131.549 125.864 131.848 125.864C132.147 125.864 132.349 125.864 132.456 125.864C132.605 125.864 132.771 125.859 132.952 125.848C133.133 125.837 133.315 125.811 133.496 125.768L134.728 126.568ZM143.624 127.304H151.592V128.584H143.624V127.304ZM141.496 130.2H152.312V131.512H141.496V130.2ZM146.056 127.784H147.56V130.36C147.56 130.851 147.491 131.341 147.352 131.832C147.213 132.312 146.963 132.787 146.6 133.256C146.237 133.725 145.715 134.168 145.032 134.584C144.349 134.989 143.453 135.357 142.344 135.688C142.28 135.581 142.195 135.459 142.088 135.32C141.981 135.181 141.869 135.043 141.752 134.904C141.635 134.765 141.523 134.653 141.416 134.568C142.451 134.301 143.277 134.003 143.896 133.672C144.525 133.331 144.989 132.973 145.288 132.6C145.597 132.216 145.8 131.832 145.896 131.448C146.003 131.064 146.056 130.696 146.056 130.344V127.784ZM143.752 125.88L145.176 126.216C144.888 126.92 144.515 127.587 144.056 128.216C143.608 128.845 143.139 129.373 142.648 129.8C142.552 129.725 142.424 129.64 142.264 129.544C142.115 129.448 141.96 129.357 141.8 129.272C141.651 129.176 141.512 129.101 141.384 129.048C141.896 128.664 142.36 128.195 142.776 127.64C143.192 127.075 143.517 126.488 143.752 125.88ZM147.512 131.032C147.896 131.939 148.509 132.675 149.352 133.24C150.195 133.795 151.245 134.173 152.504 134.376C152.344 134.525 152.173 134.723 151.992 134.968C151.821 135.213 151.688 135.437 151.592 135.64C150.227 135.341 149.101 134.835 148.216 134.12C147.341 133.405 146.675 132.472 146.216 131.32L147.512 131.032ZM139.144 124.312H152.648V125.768H140.648V138.344H139.144V124.312ZM140.072 136.184H153.016V137.64H140.072V136.184ZM159.256 127.432H169.576V128.6H159.256V127.432ZM159.208 129.448L160.008 128.776C160.296 128.947 160.605 129.16 160.936 129.416C161.267 129.661 161.523 129.88 161.704 130.072L160.872 130.824C160.691 130.632 160.44 130.408 160.12 130.152C159.811 129.885 159.507 129.651 159.208 129.448ZM165.976 135.592L167.112 135.016C167.411 135.251 167.709 135.517 168.008 135.816C168.317 136.104 168.605 136.392 168.872 136.68C169.139 136.968 169.352 137.235 169.512 137.48L168.312 138.136C168.163 137.901 167.96 137.635 167.704 137.336C167.448 137.037 167.171 136.739 166.872 136.44C166.573 136.131 166.275 135.848 165.976 135.592ZM161.88 132.92V133.752H166.568V132.92H161.88ZM161.88 131.208V132.024H166.568V131.208H161.88ZM160.584 130.264H167.896V134.696H160.584V130.264ZM160.728 134.984L162.088 135.368C161.789 135.891 161.405 136.397 160.936 136.888C160.477 137.368 160.013 137.773 159.544 138.104C159.469 138.019 159.363 137.917 159.224 137.8C159.096 137.693 158.957 137.581 158.808 137.464C158.669 137.357 158.541 137.272 158.424 137.208C158.883 136.931 159.315 136.595 159.72 136.2C160.136 135.805 160.472 135.4 160.728 134.984ZM168.488 128.664L169.384 129.304C169.128 129.56 168.851 129.805 168.552 130.04C168.264 130.275 167.997 130.472 167.752 130.632L166.952 130.04C167.197 129.859 167.469 129.635 167.768 129.368C168.067 129.091 168.307 128.856 168.488 128.664ZM165.88 127.896C166.147 128.376 166.488 128.84 166.904 129.288C167.331 129.736 167.8 130.136 168.312 130.488C168.835 130.829 169.373 131.101 169.928 131.304C169.779 131.432 169.619 131.603 169.448 131.816C169.277 132.019 169.144 132.205 169.048 132.376C168.461 132.109 167.896 131.768 167.352 131.352C166.819 130.936 166.328 130.467 165.88 129.944C165.443 129.411 165.069 128.856 164.76 128.28L165.88 127.896ZM163.48 134.168H164.936V136.968C164.936 137.299 164.893 137.555 164.808 137.736C164.733 137.928 164.568 138.072 164.312 138.168C164.067 138.264 163.763 138.323 163.4 138.344C163.048 138.365 162.621 138.376 162.12 138.376C162.077 138.184 162.008 137.971 161.912 137.736C161.816 137.512 161.725 137.315 161.64 137.144C161.992 137.155 162.317 137.16 162.616 137.16C162.915 137.16 163.117 137.155 163.224 137.144C163.32 137.144 163.384 137.128 163.416 137.096C163.459 137.064 163.48 137.005 163.48 136.92V134.168ZM163.224 126.184L164.648 126.36C164.392 127.139 164.04 127.901 163.592 128.648C163.144 129.384 162.573 130.077 161.88 130.728C161.197 131.379 160.371 131.955 159.4 132.456C159.304 132.285 159.165 132.104 158.984 131.912C158.803 131.709 158.632 131.56 158.472 131.464C159.389 131.027 160.168 130.525 160.808 129.96C161.448 129.384 161.965 128.771 162.36 128.12C162.765 127.469 163.053 126.824 163.224 126.184ZM157.944 124.888H169.736V126.184H157.944V124.888ZM157.208 124.888H158.6V130.056C158.6 130.685 158.568 131.368 158.504 132.104C158.451 132.829 158.344 133.565 158.184 134.312C158.024 135.059 157.789 135.779 157.48 136.472C157.171 137.165 156.765 137.789 156.264 138.344C156.2 138.248 156.099 138.131 155.96 137.992C155.832 137.864 155.699 137.736 155.56 137.608C155.432 137.491 155.315 137.405 155.208 137.352C155.667 136.829 156.029 136.269 156.296 135.672C156.563 135.064 156.76 134.44 156.888 133.8C157.016 133.149 157.101 132.509 157.144 131.88C157.187 131.24 157.208 130.632 157.208 130.056V124.888ZM162.344 123.496H163.944V125.64H162.344V123.496ZM154.952 126.76L156.056 126.312C156.301 126.813 156.52 127.357 156.712 127.944C156.904 128.52 157.027 129.011 157.08 129.416L155.896 129.944C155.864 129.667 155.8 129.347 155.704 128.984C155.619 128.611 155.507 128.232 155.368 127.848C155.24 127.464 155.101 127.101 154.952 126.76ZM154.744 132.488C155.107 132.328 155.533 132.12 156.024 131.864C156.525 131.608 157.043 131.347 157.576 131.08L157.928 132.216C157.48 132.504 157.021 132.787 156.552 133.064C156.093 133.331 155.651 133.592 155.224 133.848L154.744 132.488ZM177.32 127.384C177.779 127.427 178.232 127.464 178.68 127.496C179.139 127.517 179.608 127.528 180.088 127.528C181.048 127.528 182.008 127.485 182.968 127.4C183.928 127.315 184.819 127.192 185.64 127.032V128.584C184.787 128.723 183.88 128.824 182.92 128.888C181.971 128.952 181.021 128.989 180.072 129C179.603 129 179.144 128.989 178.696 128.968C178.259 128.947 177.805 128.92 177.336 128.888L177.32 127.384ZM183.128 124.584C183.107 124.744 183.085 124.909 183.064 125.08C183.053 125.251 183.043 125.416 183.032 125.576C183.021 125.757 183.011 125.997 183 126.296C183 126.595 182.995 126.92 182.984 127.272C182.984 127.613 182.984 127.955 182.984 128.296C182.984 128.968 182.995 129.613 183.016 130.232C183.048 130.851 183.08 131.437 183.112 131.992C183.144 132.547 183.171 133.069 183.192 133.56C183.213 134.04 183.224 134.477 183.224 134.872C183.224 135.235 183.176 135.581 183.08 135.912C182.984 136.243 182.824 136.536 182.6 136.792C182.376 137.048 182.072 137.245 181.688 137.384C181.315 137.533 180.851 137.608 180.296 137.608C179.208 137.608 178.365 137.395 177.768 136.968C177.171 136.541 176.872 135.944 176.872 135.176C176.872 134.685 177.005 134.248 177.272 133.864C177.549 133.48 177.939 133.176 178.44 132.952C178.952 132.728 179.565 132.616 180.28 132.616C180.995 132.616 181.645 132.696 182.232 132.856C182.819 133.005 183.363 133.213 183.864 133.48C184.365 133.736 184.813 134.019 185.208 134.328C185.613 134.637 185.981 134.936 186.312 135.224L185.448 136.568C184.872 136.013 184.296 135.533 183.72 135.128C183.155 134.723 182.579 134.408 181.992 134.184C181.405 133.96 180.792 133.848 180.152 133.848C179.608 133.848 179.165 133.955 178.824 134.168C178.493 134.381 178.328 134.659 178.328 135C178.328 135.373 178.493 135.656 178.824 135.848C179.155 136.029 179.576 136.12 180.088 136.12C180.483 136.12 180.792 136.056 181.016 135.928C181.24 135.8 181.4 135.613 181.496 135.368C181.592 135.123 181.64 134.835 181.64 134.504C181.64 134.227 181.629 133.853 181.608 133.384C181.587 132.904 181.56 132.381 181.528 131.816C181.496 131.24 181.469 130.653 181.448 130.056C181.427 129.448 181.416 128.867 181.416 128.312C181.416 127.736 181.416 127.208 181.416 126.728C181.416 126.237 181.416 125.864 181.416 125.608C181.416 125.469 181.405 125.304 181.384 125.112C181.373 124.909 181.352 124.733 181.32 124.584H183.128ZM175.272 124.728C175.24 124.813 175.203 124.936 175.16 125.096C175.117 125.256 175.075 125.416 175.032 125.576C175 125.736 174.973 125.864 174.952 125.96C174.899 126.216 174.835 126.547 174.76 126.952C174.696 127.347 174.627 127.784 174.552 128.264C174.488 128.733 174.424 129.213 174.36 129.704C174.307 130.195 174.259 130.664 174.216 131.112C174.184 131.56 174.168 131.955 174.168 132.296C174.168 132.573 174.179 132.856 174.2 133.144C174.221 133.421 174.253 133.709 174.296 134.008C174.371 133.784 174.456 133.555 174.552 133.32C174.648 133.075 174.744 132.835 174.84 132.6C174.947 132.365 175.043 132.152 175.128 131.96L175.928 132.584C175.789 132.989 175.64 133.427 175.48 133.896C175.32 134.355 175.176 134.792 175.048 135.208C174.931 135.624 174.84 135.971 174.776 136.248C174.755 136.355 174.733 136.483 174.712 136.632C174.701 136.771 174.696 136.888 174.696 136.984C174.707 137.059 174.712 137.149 174.712 137.256C174.723 137.373 174.733 137.48 174.744 137.576L173.32 137.688C173.149 137.123 173 136.408 172.872 135.544C172.755 134.669 172.696 133.688 172.696 132.6C172.696 132.003 172.723 131.384 172.776 130.744C172.829 130.093 172.893 129.459 172.968 128.84C173.053 128.221 173.133 127.656 173.208 127.144C173.283 126.632 173.347 126.216 173.4 125.896C173.421 125.693 173.443 125.475 173.464 125.24C173.496 125.005 173.517 124.781 173.528 124.568L175.272 124.728ZM193.544 127.304H201.512V128.584H193.544V127.304ZM191.416 130.2H202.232V131.512H191.416V130.2ZM195.976 127.784H197.48V130.36C197.48 130.851 197.411 131.341 197.272 131.832C197.133 132.312 196.883 132.787 196.52 133.256C196.157 133.725 195.635 134.168 194.952 134.584C194.269 134.989 193.373 135.357 192.264 135.688C192.2 135.581 192.115 135.459 192.008 135.32C191.901 135.181 191.789 135.043 191.672 134.904C191.555 134.765 191.443 134.653 191.336 134.568C192.371 134.301 193.197 134.003 193.816 133.672C194.445 133.331 194.909 132.973 195.208 132.6C195.517 132.216 195.72 131.832 195.816 131.448C195.923 131.064 195.976 130.696 195.976 130.344V127.784ZM193.672 125.88L195.096 126.216C194.808 126.92 194.435 127.587 193.976 128.216C193.528 128.845 193.059 129.373 192.568 129.8C192.472 129.725 192.344 129.64 192.184 129.544C192.035 129.448 191.88 129.357 191.72 129.272C191.571 129.176 191.432 129.101 191.304 129.048C191.816 128.664 192.28 128.195 192.696 127.64C193.112 127.075 193.437 126.488 193.672 125.88ZM197.432 131.032C197.816 131.939 198.429 132.675 199.272 133.24C200.115 133.795 201.165 134.173 202.424 134.376C202.264 134.525 202.093 134.723 201.912 134.968C201.741 135.213 201.608 135.437 201.512 135.64C200.147 135.341 199.021 134.835 198.136 134.12C197.261 133.405 196.595 132.472 196.136 131.32L197.432 131.032ZM189.064 124.312H202.568V125.768H190.568V138.344H189.064V124.312ZM189.992 136.184H202.936V137.64H189.992V136.184ZM209.176 127.432H219.496V128.6H209.176V127.432ZM209.128 129.448L209.928 128.776C210.216 128.947 210.525 129.16 210.856 129.416C211.187 129.661 211.443 129.88 211.624 130.072L210.792 130.824C210.611 130.632 210.36 130.408 210.04 130.152C209.731 129.885 209.427 129.651 209.128 129.448ZM215.896 135.592L217.032 135.016C217.331 135.251 217.629 135.517 217.928 135.816C218.237 136.104 218.525 136.392 218.792 136.68C219.059 136.968 219.272 137.235 219.432 137.48L218.232 138.136C218.083 137.901 217.88 137.635 217.624 137.336C217.368 137.037 217.091 136.739 216.792 136.44C216.493 136.131 216.195 135.848 215.896 135.592ZM211.8 132.92V133.752H216.488V132.92H211.8ZM211.8 131.208V132.024H216.488V131.208H211.8ZM210.504 130.264H217.816V134.696H210.504V130.264ZM210.648 134.984L212.008 135.368C211.709 135.891 211.325 136.397 210.856 136.888C210.397 137.368 209.933 137.773 209.464 138.104C209.389 138.019 209.283 137.917 209.144 137.8C209.016 137.693 208.877 137.581 208.728 137.464C208.589 137.357 208.461 137.272 208.344 137.208C208.803 136.931 209.235 136.595 209.64 136.2C210.056 135.805 210.392 135.4 210.648 134.984ZM218.408 128.664L219.304 129.304C219.048 129.56 218.771 129.805 218.472 130.04C218.184 130.275 217.917 130.472 217.672 130.632L216.872 130.04C217.117 129.859 217.389 129.635 217.688 129.368C217.987 129.091 218.227 128.856 218.408 128.664ZM215.8 127.896C216.067 128.376 216.408 128.84 216.824 129.288C217.251 129.736 217.72 130.136 218.232 130.488C218.755 130.829 219.293 131.101 219.848 131.304C219.699 131.432 219.539 131.603 219.368 131.816C219.197 132.019 219.064 132.205 218.968 132.376C218.381 132.109 217.816 131.768 217.272 131.352C216.739 130.936 216.248 130.467 215.8 129.944C215.363 129.411 214.989 128.856 214.68 128.28L215.8 127.896ZM213.4 134.168H214.856V136.968C214.856 137.299 214.813 137.555 214.728 137.736C214.653 137.928 214.488 138.072 214.232 138.168C213.987 138.264 213.683 138.323 213.32 138.344C212.968 138.365 212.541 138.376 212.04 138.376C211.997 138.184 211.928 137.971 211.832 137.736C211.736 137.512 211.645 137.315 211.56 137.144C211.912 137.155 212.237 137.16 212.536 137.16C212.835 137.16 213.037 137.155 213.144 137.144C213.24 137.144 213.304 137.128 213.336 137.096C213.379 137.064 213.4 137.005 213.4 136.92V134.168ZM213.144 126.184L214.568 126.36C214.312 127.139 213.96 127.901 213.512 128.648C213.064 129.384 212.493 130.077 211.8 130.728C211.117 131.379 210.291 131.955 209.32 132.456C209.224 132.285 209.085 132.104 208.904 131.912C208.723 131.709 208.552 131.56 208.392 131.464C209.309 131.027 210.088 130.525 210.728 129.96C211.368 129.384 211.885 128.771 212.28 128.12C212.685 127.469 212.973 126.824 213.144 126.184ZM207.864 124.888H219.656V126.184H207.864V124.888ZM207.128 124.888H208.52V130.056C208.52 130.685 208.488 131.368 208.424 132.104C208.371 132.829 208.264 133.565 208.104 134.312C207.944 135.059 207.709 135.779 207.4 136.472C207.091 137.165 206.685 137.789 206.184 138.344C206.12 138.248 206.019 138.131 205.88 137.992C205.752 137.864 205.619 137.736 205.48 137.608C205.352 137.491 205.235 137.405 205.128 137.352C205.587 136.829 205.949 136.269 206.216 135.672C206.483 135.064 206.68 134.44 206.808 133.8C206.936 133.149 207.021 132.509 207.064 131.88C207.107 131.24 207.128 130.632 207.128 130.056V124.888ZM212.264 123.496H213.864V125.64H212.264V123.496ZM204.872 126.76L205.976 126.312C206.221 126.813 206.44 127.357 206.632 127.944C206.824 128.52 206.947 129.011 207 129.416L205.816 129.944C205.784 129.667 205.72 129.347 205.624 128.984C205.539 128.611 205.427 128.232 205.288 127.848C205.16 127.464 205.021 127.101 204.872 126.76ZM204.664 132.488C205.027 132.328 205.453 132.12 205.944 131.864C206.445 131.608 206.963 131.347 207.496 131.08L207.848 132.216C207.4 132.504 206.941 132.787 206.472 133.064C206.013 133.331 205.571 133.592 205.144 133.848L204.664 132.488ZM228.152 126.024C228.621 126.099 229.149 126.152 229.736 126.184C230.333 126.216 230.947 126.227 231.576 126.216C232.205 126.205 232.808 126.184 233.384 126.152C233.96 126.12 234.456 126.077 234.872 126.024V127.656C234.413 127.699 233.896 127.736 233.32 127.768C232.744 127.789 232.147 127.8 231.528 127.8C230.92 127.8 230.323 127.789 229.736 127.768C229.149 127.736 228.627 127.699 228.168 127.656L228.152 126.024ZM229.064 132.68C229 132.957 228.947 133.208 228.904 133.432C228.872 133.656 228.856 133.88 228.856 134.104C228.856 134.285 228.893 134.456 228.968 134.616C229.053 134.776 229.187 134.915 229.368 135.032C229.56 135.149 229.816 135.245 230.136 135.32C230.467 135.384 230.872 135.416 231.352 135.416C232.077 135.416 232.755 135.384 233.384 135.32C234.024 135.245 234.675 135.133 235.336 134.984L235.368 136.696C234.867 136.792 234.28 136.872 233.608 136.936C232.947 136.989 232.184 137.016 231.32 137.016C229.965 137.016 228.963 136.797 228.312 136.36C227.672 135.912 227.352 135.299 227.352 134.52C227.352 134.232 227.373 133.933 227.416 133.624C227.459 133.304 227.528 132.947 227.624 132.552L229.064 132.68ZM225.368 124.872C225.336 124.968 225.293 125.096 225.24 125.256C225.197 125.405 225.155 125.56 225.112 125.72C225.08 125.869 225.053 125.992 225.032 126.088C224.979 126.355 224.915 126.68 224.84 127.064C224.776 127.437 224.707 127.848 224.632 128.296C224.568 128.733 224.504 129.181 224.44 129.64C224.387 130.088 224.339 130.525 224.296 130.952C224.264 131.379 224.248 131.768 224.248 132.12C224.248 132.397 224.253 132.68 224.264 132.968C224.285 133.245 224.312 133.533 224.344 133.832C224.44 133.619 224.536 133.395 224.632 133.16C224.728 132.915 224.824 132.675 224.92 132.44C225.016 132.205 225.107 131.992 225.192 131.8L225.992 132.44C225.853 132.835 225.704 133.272 225.544 133.752C225.384 134.232 225.24 134.691 225.112 135.128C224.995 135.555 224.909 135.901 224.856 136.168C224.835 136.275 224.813 136.403 224.792 136.552C224.771 136.691 224.765 136.808 224.776 136.904C224.776 136.979 224.776 137.069 224.776 137.176C224.787 137.293 224.797 137.4 224.808 137.496L223.352 137.592C223.192 137.037 223.053 136.307 222.936 135.4C222.819 134.493 222.76 133.501 222.76 132.424C222.76 131.827 222.787 131.224 222.84 130.616C222.893 129.997 222.957 129.4 223.032 128.824C223.107 128.248 223.181 127.72 223.256 127.24C223.341 126.76 223.405 126.36 223.448 126.04C223.48 125.837 223.507 125.619 223.528 125.384C223.56 125.149 223.581 124.925 223.592 124.712L225.368 124.872ZM244.6 125.096H252.232V126.472H244.6V125.096ZM243.656 128.216H252.968V129.624H243.656V128.216ZM243.96 131.336H252.84V132.744H243.96V131.336ZM247.64 123.48H249.128V128.984H247.64V123.48ZM249.576 129.448H251.08V136.584C251.08 136.989 251.027 137.304 250.92 137.528C250.824 137.763 250.632 137.944 250.344 138.072C250.067 138.189 249.704 138.259 249.256 138.28C248.819 138.312 248.291 138.328 247.672 138.328C247.651 138.115 247.592 137.864 247.496 137.576C247.411 137.288 247.315 137.037 247.208 136.824C247.656 136.835 248.072 136.845 248.456 136.856C248.851 136.856 249.117 136.851 249.256 136.84C249.384 136.84 249.469 136.824 249.512 136.792C249.555 136.749 249.576 136.669 249.576 136.552V129.448ZM244.68 133.688L245.816 133C246.072 133.235 246.328 133.501 246.584 133.8C246.84 134.088 247.08 134.381 247.304 134.68C247.528 134.968 247.699 135.235 247.816 135.48L246.6 136.264C246.493 136.029 246.333 135.763 246.12 135.464C245.917 135.155 245.688 134.845 245.432 134.536C245.187 134.227 244.936 133.944 244.68 133.688ZM238.072 132.12C238.584 131.992 239.165 131.843 239.816 131.672C240.477 131.491 241.171 131.293 241.896 131.08C242.632 130.867 243.368 130.653 244.104 130.44L244.296 131.768C243.293 132.088 242.275 132.408 241.24 132.728C240.205 133.037 239.277 133.32 238.456 133.576L238.072 132.12ZM241 123.496H242.408V138.344H241V123.496ZM238.968 124.344L240.248 124.552C240.173 125.256 240.077 125.96 239.96 126.664C239.853 127.368 239.725 128.029 239.576 128.648C239.427 129.267 239.251 129.816 239.048 130.296C238.963 130.232 238.851 130.157 238.712 130.072C238.584 129.987 238.445 129.901 238.296 129.816C238.157 129.731 238.04 129.667 237.944 129.624C238.136 129.176 238.296 128.664 238.424 128.088C238.552 127.512 238.659 126.904 238.744 126.264C238.84 125.624 238.915 124.984 238.968 124.344ZM239.224 126.632H243.912V128.088H238.952L239.224 126.632ZM261.928 123.896H263.448V135.624C263.448 135.933 263.469 136.168 263.512 136.328C263.565 136.477 263.661 136.579 263.8 136.632C263.949 136.685 264.163 136.712 264.44 136.712C264.547 136.712 264.723 136.712 264.968 136.712C265.224 136.712 265.501 136.712 265.8 136.712C266.109 136.712 266.397 136.712 266.664 136.712C266.931 136.712 267.123 136.712 267.24 136.712C267.517 136.712 267.725 136.632 267.864 136.472C268.003 136.312 268.104 136.024 268.168 135.608C268.232 135.192 268.285 134.6 268.328 133.832C268.52 133.971 268.749 134.104 269.016 134.232C269.293 134.349 269.539 134.435 269.752 134.488C269.677 135.384 269.565 136.099 269.416 136.632C269.277 137.165 269.043 137.549 268.712 137.784C268.392 138.019 267.939 138.136 267.352 138.136C267.267 138.136 267.117 138.136 266.904 138.136C266.701 138.136 266.467 138.136 266.2 138.136C265.944 138.136 265.683 138.136 265.416 138.136C265.149 138.136 264.915 138.136 264.712 138.136C264.509 138.136 264.371 138.136 264.296 138.136C263.688 138.136 263.208 138.061 262.856 137.912C262.515 137.763 262.275 137.501 262.136 137.128C261.997 136.765 261.928 136.253 261.928 135.592V123.896ZM267.928 126.552L269.032 127.864C268.467 128.301 267.843 128.733 267.16 129.16C266.477 129.576 265.773 129.981 265.048 130.376C264.333 130.76 263.624 131.128 262.92 131.48C262.867 131.299 262.776 131.096 262.648 130.872C262.52 130.637 262.403 130.44 262.296 130.28C262.968 129.939 263.645 129.56 264.328 129.144C265.021 128.717 265.677 128.285 266.296 127.848C266.925 127.4 267.469 126.968 267.928 126.552ZM259 123.72L260.488 124.216C260.093 125.155 259.619 126.083 259.064 127C258.52 127.917 257.928 128.776 257.288 129.576C256.659 130.376 256.013 131.08 255.352 131.688C255.299 131.56 255.219 131.4 255.112 131.208C255.005 131.005 254.893 130.808 254.776 130.616C254.659 130.413 254.552 130.248 254.456 130.12C255.053 129.619 255.635 129.032 256.2 128.36C256.765 127.677 257.288 126.941 257.768 126.152C258.248 125.363 258.659 124.552 259 123.72ZM257.224 128.056L258.728 126.552L258.744 126.584V138.312H257.224V128.056ZM276.504 124.44C276.461 124.728 276.424 125.037 276.392 125.368C276.36 125.688 276.339 125.992 276.328 126.28C276.307 126.717 276.285 127.261 276.264 127.912C276.243 128.552 276.221 129.235 276.2 129.96C276.179 130.675 276.163 131.384 276.152 132.088C276.141 132.781 276.136 133.405 276.136 133.96C276.136 134.525 276.237 134.973 276.44 135.304C276.653 135.635 276.947 135.875 277.32 136.024C277.693 136.163 278.109 136.232 278.568 136.232C279.272 136.232 279.907 136.141 280.472 135.96C281.037 135.779 281.544 135.533 281.992 135.224C282.451 134.915 282.861 134.563 283.224 134.168C283.587 133.773 283.912 133.363 284.2 132.936L285.336 134.328C285.069 134.712 284.733 135.112 284.328 135.528C283.923 135.944 283.437 136.333 282.872 136.696C282.317 137.059 281.677 137.352 280.952 137.576C280.237 137.8 279.432 137.912 278.536 137.912C277.725 137.912 277.016 137.789 276.408 137.544C275.8 137.299 275.325 136.904 274.984 136.36C274.643 135.816 274.472 135.101 274.472 134.216C274.472 133.757 274.477 133.24 274.488 132.664C274.499 132.088 274.509 131.496 274.52 130.888C274.541 130.269 274.557 129.667 274.568 129.08C274.589 128.493 274.605 127.955 274.616 127.464C274.627 126.973 274.632 126.579 274.632 126.28C274.632 125.939 274.616 125.613 274.584 125.304C274.563 124.984 274.52 124.691 274.456 124.424L276.504 124.44ZM294.776 124.328C294.723 124.52 294.664 124.76 294.6 125.048C294.547 125.325 294.504 125.544 294.472 125.704C294.397 126.077 294.307 126.525 294.2 127.048C294.104 127.56 293.987 128.099 293.848 128.664C293.72 129.229 293.587 129.779 293.448 130.312C293.309 130.877 293.139 131.491 292.936 132.152C292.733 132.813 292.515 133.485 292.28 134.168C292.056 134.84 291.827 135.48 291.592 136.088C291.368 136.685 291.144 137.213 290.92 137.672L289.176 137.08C289.411 136.675 289.656 136.184 289.912 135.608C290.168 135.021 290.419 134.397 290.664 133.736C290.909 133.064 291.139 132.397 291.352 131.736C291.565 131.075 291.747 130.467 291.896 129.912C291.992 129.539 292.088 129.149 292.184 128.744C292.28 128.328 292.371 127.928 292.456 127.544C292.541 127.16 292.611 126.803 292.664 126.472C292.717 126.131 292.76 125.848 292.792 125.624C292.835 125.368 292.856 125.107 292.856 124.84C292.867 124.573 292.867 124.355 292.856 124.184L294.776 124.328ZM291 126.888C291.619 126.888 292.275 126.856 292.968 126.792C293.661 126.728 294.365 126.637 295.08 126.52C295.805 126.403 296.504 126.259 297.176 126.088V127.672C296.515 127.821 295.816 127.949 295.08 128.056C294.344 128.163 293.624 128.248 292.92 128.312C292.216 128.365 291.571 128.392 290.984 128.392C290.621 128.392 290.285 128.387 289.976 128.376C289.677 128.365 289.379 128.349 289.08 128.328L289.048 126.76C289.443 126.803 289.789 126.835 290.088 126.856C290.397 126.877 290.701 126.888 291 126.888ZM296.04 129.192C296.477 129.149 296.957 129.117 297.48 129.096C298.003 129.064 298.52 129.048 299.032 129.048C299.501 129.048 299.971 129.059 300.44 129.08C300.92 129.091 301.384 129.123 301.832 129.176L301.784 130.712C301.379 130.659 300.941 130.611 300.472 130.568C300.013 130.525 299.544 130.504 299.064 130.504C298.541 130.504 298.029 130.52 297.528 130.552C297.037 130.573 296.541 130.616 296.04 130.68V129.192ZM296.6 133.144C296.547 133.389 296.499 133.635 296.456 133.88C296.413 134.115 296.392 134.333 296.392 134.536C296.392 134.717 296.424 134.893 296.488 135.064C296.563 135.224 296.685 135.368 296.856 135.496C297.037 135.624 297.288 135.725 297.608 135.8C297.939 135.875 298.36 135.912 298.872 135.912C299.395 135.912 299.928 135.885 300.472 135.832C301.016 135.768 301.549 135.688 302.072 135.592L302.024 137.208C301.576 137.261 301.085 137.309 300.552 137.352C300.029 137.405 299.464 137.432 298.856 137.432C297.555 137.432 296.557 137.224 295.864 136.808C295.181 136.392 294.84 135.789 294.84 135C294.84 134.659 294.867 134.323 294.92 133.992C294.973 133.651 295.037 133.32 295.112 133L296.6 133.144ZM308.36 137.976C308.029 137.571 307.661 137.155 307.256 136.728C306.861 136.301 306.456 135.891 306.04 135.496C305.635 135.101 305.245 134.749 304.872 134.44L306.184 133.288C306.568 133.597 306.973 133.96 307.4 134.376C307.827 134.781 308.243 135.203 308.648 135.64C309.064 136.067 309.421 136.461 309.72 136.824L308.36 137.976ZM106.229 155.056H120.309V156.528H106.229V155.056ZM113.861 156.368C114.16 157.285 114.533 158.176 114.981 159.04C115.429 159.893 115.946 160.699 116.533 161.456C117.12 162.203 117.77 162.869 118.485 163.456C119.2 164.032 119.968 164.501 120.789 164.864C120.682 164.971 120.554 165.099 120.405 165.248C120.266 165.397 120.133 165.557 120.005 165.728C119.877 165.899 119.77 166.059 119.685 166.208C118.554 165.632 117.541 164.869 116.645 163.92C115.76 162.96 114.986 161.867 114.325 160.64C113.664 159.413 113.114 158.101 112.677 156.704L113.861 156.368ZM118.373 157.04L119.701 157.968C119.349 158.373 118.965 158.795 118.549 159.232C118.133 159.659 117.717 160.064 117.301 160.448C116.885 160.832 116.496 161.179 116.133 161.488L115.045 160.64C115.397 160.341 115.776 159.989 116.181 159.584C116.597 159.168 116.997 158.736 117.381 158.288C117.776 157.84 118.106 157.424 118.373 157.04ZM115.285 153.44L116.181 152.496C116.512 152.645 116.864 152.821 117.237 153.024C117.61 153.227 117.968 153.435 118.309 153.648C118.65 153.861 118.933 154.053 119.157 154.224L118.197 155.312C117.994 155.12 117.728 154.917 117.397 154.704C117.066 154.48 116.714 154.256 116.341 154.032C115.978 153.808 115.626 153.611 115.285 153.44ZM106.981 158.096L108.133 157.296C108.453 157.573 108.778 157.883 109.109 158.224C109.45 158.555 109.76 158.891 110.037 159.232C110.325 159.563 110.549 159.872 110.709 160.16L109.477 161.056C109.328 160.779 109.114 160.469 108.837 160.128C108.57 159.776 108.272 159.419 107.941 159.056C107.621 158.693 107.301 158.373 106.981 158.096ZM112.421 152.528H113.973V165.392C113.973 165.883 113.914 166.251 113.797 166.496C113.68 166.752 113.472 166.939 113.173 167.056C112.874 167.195 112.474 167.28 111.973 167.312C111.472 167.355 110.864 167.371 110.149 167.36C110.117 167.147 110.048 166.885 109.941 166.576C109.845 166.267 109.738 166 109.621 165.776C110.144 165.787 110.634 165.797 111.093 165.808C111.552 165.808 111.861 165.803 112.021 165.792C112.17 165.792 112.272 165.765 112.325 165.712C112.389 165.648 112.421 165.541 112.421 165.392V152.528ZM105.749 164.432C106.208 164.208 106.73 163.936 107.317 163.616C107.904 163.296 108.522 162.955 109.173 162.592C109.834 162.219 110.485 161.845 111.125 161.472L111.621 162.848C110.789 163.371 109.936 163.893 109.061 164.416C108.186 164.939 107.397 165.403 106.693 165.808L105.749 164.432ZM128.821 152.928H130.533C130.512 153.365 130.474 153.931 130.421 154.624C130.368 155.317 130.266 156.096 130.117 156.96C129.978 157.813 129.765 158.704 129.477 159.632C129.189 160.56 128.794 161.488 128.293 162.416C127.792 163.333 127.157 164.208 126.389 165.04C125.621 165.861 124.688 166.587 123.589 167.216C123.45 167.013 123.269 166.805 123.045 166.592C122.821 166.379 122.581 166.187 122.325 166.016C123.413 165.44 124.325 164.773 125.061 164.016C125.797 163.248 126.4 162.437 126.869 161.584C127.338 160.72 127.701 159.856 127.957 158.992C128.224 158.117 128.416 157.285 128.533 156.496C128.65 155.707 128.725 155.003 128.757 154.384C128.789 153.765 128.81 153.28 128.821 152.928ZM130.469 153.296C130.48 153.488 130.501 153.808 130.533 154.256C130.576 154.693 130.645 155.221 130.741 155.84C130.848 156.459 131.002 157.131 131.205 157.856C131.408 158.581 131.674 159.328 132.005 160.096C132.336 160.853 132.752 161.6 133.253 162.336C133.754 163.061 134.352 163.733 135.045 164.352C135.749 164.96 136.576 165.483 137.525 165.92C137.29 166.101 137.066 166.309 136.853 166.544C136.65 166.779 136.485 166.997 136.357 167.2C135.386 166.731 134.533 166.16 133.797 165.488C133.072 164.816 132.448 164.085 131.925 163.296C131.413 162.507 130.981 161.701 130.629 160.88C130.288 160.059 130.01 159.253 129.797 158.464C129.594 157.675 129.44 156.944 129.333 156.272C129.226 155.589 129.152 155.003 129.109 154.512C129.066 154.021 129.034 153.664 129.013 153.44L130.469 153.296ZM150.229 158.768C150.229 159.803 150.16 160.731 150.021 161.552C149.882 162.363 149.642 163.093 149.301 163.744C148.96 164.384 148.485 164.96 147.877 165.472C147.269 165.973 146.496 166.437 145.557 166.864L144.197 165.584C144.944 165.307 145.594 164.997 146.149 164.656C146.704 164.315 147.162 163.899 147.525 163.408C147.888 162.907 148.154 162.288 148.325 161.552C148.506 160.816 148.597 159.92 148.597 158.864V154.816C148.597 154.496 148.586 154.213 148.565 153.968C148.554 153.723 148.538 153.541 148.517 153.424H150.325C150.314 153.541 150.293 153.723 150.261 153.968C150.24 154.213 150.229 154.496 150.229 154.816V158.768ZM144.469 153.552C144.458 153.659 144.437 153.824 144.405 154.048C144.384 154.272 144.373 154.533 144.373 154.832V160.624C144.373 160.837 144.378 161.051 144.389 161.264C144.4 161.477 144.41 161.664 144.421 161.824C144.432 161.984 144.442 162.101 144.453 162.176H142.677C142.688 162.101 142.698 161.984 142.709 161.824C142.72 161.664 142.73 161.483 142.741 161.28C142.752 161.067 142.757 160.848 142.757 160.624V154.832C142.757 154.629 142.746 154.416 142.725 154.192C142.714 153.968 142.693 153.755 142.661 153.552H144.469ZM139.525 156.544C139.6 156.565 139.717 156.587 139.877 156.608C140.048 156.619 140.245 156.635 140.469 156.656C140.704 156.667 140.944 156.672 141.189 156.672H151.733C152.128 156.672 152.453 156.661 152.709 156.64C152.976 156.619 153.184 156.597 153.333 156.576V158.272C153.205 158.261 153.002 158.251 152.725 158.24C152.458 158.229 152.133 158.224 151.749 158.224H141.189C140.944 158.224 140.709 158.229 140.485 158.24C140.261 158.24 140.064 158.245 139.893 158.256C139.733 158.267 139.61 158.277 139.525 158.288V156.544ZM156.709 158.864C156.89 158.875 157.109 158.891 157.365 158.912C157.632 158.923 157.914 158.933 158.213 158.944C158.522 158.955 158.816 158.96 159.093 158.96C159.306 158.96 159.6 158.96 159.973 158.96C160.346 158.96 160.768 158.96 161.237 158.96C161.717 158.96 162.218 158.96 162.741 158.96C163.264 158.96 163.781 158.96 164.293 158.96C164.816 158.96 165.306 158.96 165.765 158.96C166.224 158.96 166.629 158.96 166.981 158.96C167.333 158.96 167.605 158.96 167.797 158.96C168.181 158.96 168.528 158.949 168.837 158.928C169.146 158.896 169.397 158.875 169.589 158.864V160.848C169.408 160.837 169.152 160.821 168.821 160.8C168.49 160.779 168.149 160.768 167.797 160.768C167.616 160.768 167.344 160.768 166.981 160.768C166.629 160.768 166.224 160.768 165.765 160.768C165.306 160.768 164.816 160.768 164.293 160.768C163.781 160.768 163.264 160.768 162.741 160.768C162.218 160.768 161.717 160.768 161.237 160.768C160.768 160.768 160.346 160.768 159.973 160.768C159.6 160.768 159.306 160.768 159.093 160.768C158.656 160.768 158.218 160.779 157.781 160.8C157.344 160.811 156.986 160.827 156.709 160.848V158.864ZM183.525 153.28C183.664 153.461 183.808 153.685 183.957 153.952C184.117 154.219 184.272 154.485 184.421 154.752C184.57 155.019 184.698 155.259 184.805 155.472L183.765 155.92C183.605 155.6 183.402 155.227 183.157 154.8C182.922 154.373 182.698 154.011 182.485 153.712L183.525 153.28ZM185.333 152.608C185.472 152.8 185.621 153.029 185.781 153.296C185.952 153.563 186.117 153.829 186.277 154.096C186.437 154.352 186.56 154.581 186.645 154.784L185.605 155.232C185.445 154.891 185.242 154.517 184.997 154.112C184.762 153.696 184.533 153.339 184.309 153.04L185.333 152.608ZM176.453 153.872C176.432 154.085 176.41 154.325 176.389 154.592C176.368 154.859 176.357 155.109 176.357 155.344C176.357 155.483 176.357 155.76 176.357 156.176C176.357 156.581 176.357 157.067 176.357 157.632C176.357 158.187 176.357 158.773 176.357 159.392C176.357 160 176.357 160.592 176.357 161.168C176.357 161.733 176.357 162.235 176.357 162.672C176.357 163.109 176.357 163.424 176.357 163.616C176.357 164 176.442 164.267 176.613 164.416C176.794 164.555 177.072 164.661 177.445 164.736C177.69 164.768 177.989 164.795 178.341 164.816C178.704 164.837 179.072 164.848 179.445 164.848C179.861 164.848 180.32 164.837 180.821 164.816C181.322 164.795 181.824 164.763 182.325 164.72C182.837 164.677 183.322 164.624 183.781 164.56C184.24 164.485 184.634 164.405 184.965 164.32V166.16C184.485 166.224 183.914 166.277 183.253 166.32C182.602 166.373 181.936 166.411 181.253 166.432C180.57 166.464 179.936 166.48 179.349 166.48C178.858 166.48 178.384 166.464 177.925 166.432C177.466 166.411 177.066 166.373 176.725 166.32C176.085 166.203 175.584 165.973 175.221 165.632C174.869 165.28 174.693 164.768 174.693 164.096C174.693 163.819 174.693 163.435 174.693 162.944C174.693 162.453 174.693 161.904 174.693 161.296C174.693 160.688 174.693 160.069 174.693 159.44C174.693 158.8 174.693 158.203 174.693 157.648C174.693 157.083 174.693 156.597 174.693 156.192C174.693 155.776 174.693 155.493 174.693 155.344C174.693 155.216 174.688 155.067 174.677 154.896C174.666 154.715 174.656 154.539 174.645 154.368C174.634 154.187 174.613 154.021 174.581 153.872H176.453ZM175.621 158.864C176.112 158.757 176.645 158.629 177.221 158.48C177.808 158.32 178.394 158.149 178.981 157.968C179.578 157.787 180.154 157.6 180.709 157.408C181.264 157.205 181.76 157.008 182.197 156.816C182.464 156.709 182.725 156.592 182.981 156.464C183.237 156.336 183.493 156.192 183.749 156.032L184.453 157.648C184.186 157.755 183.904 157.872 183.605 158C183.306 158.117 183.029 158.229 182.773 158.336C182.293 158.528 181.749 158.725 181.141 158.928C180.533 159.131 179.904 159.333 179.253 159.536C178.602 159.728 177.962 159.909 177.333 160.08C176.714 160.251 176.144 160.4 175.621 160.528V158.864ZM201.477 155.232C201.413 155.307 201.333 155.429 201.237 155.6C201.141 155.771 201.066 155.925 201.013 156.064C200.789 156.576 200.512 157.147 200.181 157.776C199.861 158.405 199.493 159.035 199.077 159.664C198.672 160.283 198.245 160.848 197.797 161.36C197.21 162.032 196.56 162.688 195.845 163.328C195.141 163.968 194.394 164.56 193.605 165.104C192.816 165.637 192 166.101 191.157 166.496L189.861 165.136C190.725 164.795 191.557 164.373 192.357 163.872C193.168 163.371 193.92 162.821 194.613 162.224C195.306 161.627 195.914 161.035 196.437 160.448C196.8 160.043 197.152 159.595 197.493 159.104C197.834 158.603 198.138 158.101 198.405 157.6C198.672 157.099 198.864 156.64 198.981 156.224C198.885 156.224 198.688 156.224 198.389 156.224C198.09 156.224 197.733 156.224 197.317 156.224C196.912 156.224 196.485 156.224 196.037 156.224C195.6 156.224 195.173 156.224 194.757 156.224C194.352 156.224 194 156.224 193.701 156.224C193.402 156.224 193.205 156.224 193.109 156.224C192.906 156.224 192.682 156.235 192.437 156.256C192.202 156.267 191.984 156.283 191.781 156.304C191.589 156.315 191.45 156.32 191.365 156.32V154.512C191.472 154.523 191.632 154.539 191.845 154.56C192.058 154.571 192.282 154.587 192.517 154.608C192.752 154.619 192.949 154.624 193.109 154.624C193.226 154.624 193.434 154.624 193.733 154.624C194.042 154.624 194.4 154.624 194.805 154.624C195.221 154.624 195.653 154.624 196.101 154.624C196.549 154.624 196.976 154.624 197.381 154.624C197.786 154.624 198.138 154.624 198.437 154.624C198.736 154.624 198.938 154.624 199.045 154.624C199.344 154.624 199.616 154.608 199.861 154.576C200.106 154.544 200.298 154.507 200.437 154.464L201.477 155.232ZM198.005 160.304C198.432 160.656 198.88 161.051 199.349 161.488C199.818 161.925 200.277 162.379 200.725 162.848C201.173 163.307 201.589 163.749 201.973 164.176C202.368 164.603 202.698 164.981 202.965 165.312L201.557 166.56C201.162 166.027 200.709 165.467 200.197 164.88C199.685 164.293 199.141 163.707 198.565 163.12C197.989 162.523 197.413 161.968 196.837 161.456L198.005 160.304ZM206.277 155.28C206.586 155.269 206.869 155.259 207.125 155.248C207.392 155.227 207.605 155.211 207.765 155.2C208.053 155.168 208.437 155.131 208.917 155.088C209.408 155.035 209.962 154.981 210.581 154.928C211.2 154.875 211.861 154.816 212.565 154.752C213.269 154.688 213.989 154.624 214.725 154.56C215.29 154.517 215.84 154.48 216.373 154.448C216.917 154.405 217.424 154.373 217.893 154.352C218.362 154.32 218.778 154.299 219.141 154.288V155.904C218.842 155.893 218.501 155.893 218.117 155.904C217.744 155.915 217.37 155.936 216.997 155.968C216.634 156 216.309 156.053 216.021 156.128C215.498 156.288 215.018 156.539 214.581 156.88C214.144 157.221 213.765 157.616 213.445 158.064C213.136 158.512 212.896 158.987 212.725 159.488C212.565 159.989 212.485 160.475 212.485 160.944C212.485 161.531 212.581 162.043 212.773 162.48C212.976 162.907 213.253 163.275 213.605 163.584C213.957 163.883 214.362 164.133 214.821 164.336C215.28 164.528 215.765 164.672 216.277 164.768C216.8 164.864 217.322 164.923 217.845 164.944L217.269 166.656C216.64 166.624 216.016 166.528 215.397 166.368C214.778 166.219 214.197 166.005 213.653 165.728C213.109 165.44 212.624 165.083 212.197 164.656C211.781 164.229 211.45 163.739 211.205 163.184C210.97 162.629 210.853 162 210.853 161.296C210.853 160.485 210.986 159.739 211.253 159.056C211.53 158.373 211.877 157.781 212.293 157.28C212.709 156.768 213.136 156.373 213.573 156.096C213.253 156.128 212.858 156.171 212.389 156.224C211.92 156.267 211.413 156.32 210.869 156.384C210.336 156.448 209.797 156.517 209.253 156.592C208.709 156.656 208.192 156.725 207.701 156.8C207.221 156.875 206.8 156.949 206.437 157.024L206.277 155.28ZM216.837 157.68C216.965 157.861 217.109 158.085 217.269 158.352C217.429 158.608 217.589 158.875 217.749 159.152C217.909 159.419 218.042 159.664 218.149 159.888L217.157 160.336C216.965 159.931 216.762 159.541 216.549 159.168C216.346 158.795 216.122 158.437 215.877 158.096L216.837 157.68ZM218.613 156.992C218.741 157.173 218.89 157.392 219.061 157.648C219.232 157.893 219.397 158.149 219.557 158.416C219.717 158.683 219.856 158.933 219.973 159.168L218.997 159.632C218.784 159.227 218.57 158.848 218.357 158.496C218.144 158.133 217.909 157.776 217.653 157.424L218.613 156.992ZM231.941 153.232C231.93 153.296 231.914 153.408 231.893 153.568C231.882 153.728 231.872 153.888 231.861 154.048C231.85 154.208 231.845 154.325 231.845 154.4C231.834 154.603 231.824 154.885 231.813 155.248C231.813 155.6 231.813 155.989 231.813 156.416C231.813 156.843 231.813 157.275 231.813 157.712C231.824 158.139 231.829 158.544 231.829 158.928C231.84 159.301 231.845 159.616 231.845 159.872L230.293 159.232C230.293 159.061 230.293 158.821 230.293 158.512C230.293 158.192 230.288 157.835 230.277 157.44C230.277 157.035 230.272 156.635 230.261 156.24C230.261 155.845 230.256 155.483 230.245 155.152C230.245 154.821 230.24 154.571 230.229 154.4C230.208 154.144 230.181 153.904 230.149 153.68C230.128 153.456 230.112 153.307 230.101 153.232H231.941ZM223.189 155.36C223.648 155.349 224.16 155.339 224.725 155.328C225.301 155.317 225.909 155.307 226.549 155.296C227.189 155.275 227.824 155.259 228.453 155.248C229.093 155.227 229.701 155.216 230.277 155.216C230.853 155.205 231.365 155.2 231.813 155.2C232.272 155.2 232.741 155.2 233.221 155.2C233.701 155.2 234.16 155.2 234.597 155.2C235.034 155.2 235.429 155.2 235.781 155.2C236.144 155.2 236.426 155.2 236.629 155.2L236.597 156.704C236.138 156.683 235.514 156.667 234.725 156.656C233.946 156.635 232.965 156.624 231.781 156.624C231.077 156.624 230.352 156.629 229.605 156.64C228.858 156.651 228.106 156.672 227.349 156.704C226.602 156.725 225.877 156.752 225.173 156.784C224.48 156.816 223.834 156.853 223.237 156.896L223.189 155.36ZM231.701 160.032C231.701 160.821 231.594 161.477 231.381 162C231.178 162.512 230.885 162.901 230.501 163.168C230.117 163.424 229.653 163.552 229.109 163.552C228.778 163.552 228.453 163.493 228.133 163.376C227.824 163.259 227.536 163.083 227.269 162.848C227.013 162.603 226.805 162.309 226.645 161.968C226.496 161.616 226.421 161.216 226.421 160.768C226.421 160.203 226.554 159.707 226.821 159.28C227.098 158.843 227.461 158.501 227.909 158.256C228.368 158.011 228.864 157.888 229.397 157.888C230.058 157.888 230.608 158.037 231.045 158.336C231.493 158.635 231.829 159.04 232.053 159.552C232.277 160.053 232.389 160.624 232.389 161.264C232.389 161.787 232.309 162.331 232.149 162.896C231.989 163.451 231.722 163.989 231.349 164.512C230.976 165.035 230.469 165.515 229.829 165.952C229.2 166.379 228.41 166.731 227.461 167.008L226.101 165.664C226.816 165.515 227.461 165.317 228.037 165.072C228.613 164.816 229.109 164.507 229.525 164.144C229.941 163.771 230.261 163.333 230.485 162.832C230.72 162.32 230.837 161.728 230.837 161.056C230.837 160.416 230.693 159.952 230.405 159.664C230.128 159.376 229.786 159.232 229.381 159.232C229.136 159.232 228.901 159.291 228.677 159.408C228.453 159.525 228.272 159.696 228.133 159.92C227.994 160.144 227.925 160.416 227.925 160.736C227.925 161.184 228.069 161.536 228.357 161.792C228.656 162.037 228.997 162.16 229.381 162.16C229.69 162.16 229.952 162.075 230.165 161.904C230.389 161.723 230.544 161.445 230.629 161.072C230.714 160.688 230.693 160.203 230.565 159.616L231.701 160.032ZM239.867 162.064C240.336 162.064 240.758 162.181 241.131 162.416C241.504 162.64 241.803 162.939 242.027 163.312C242.251 163.685 242.363 164.107 242.363 164.576C242.363 165.035 242.251 165.456 242.027 165.84C241.803 166.213 241.504 166.512 241.131 166.736C240.758 166.96 240.336 167.072 239.867 167.072C239.408 167.072 238.987 166.96 238.603 166.736C238.23 166.512 237.926 166.213 237.691 165.84C237.467 165.456 237.355 165.035 237.355 164.576C237.355 164.107 237.467 163.685 237.691 163.312C237.926 162.939 238.23 162.64 238.603 162.416C238.987 162.181 239.408 162.064 239.867 162.064ZM239.867 166.112C240.294 166.112 240.656 165.963 240.955 165.664C241.254 165.365 241.403 165.003 241.403 164.576C241.403 164.288 241.334 164.032 241.195 163.808C241.067 163.573 240.886 163.387 240.651 163.248C240.416 163.109 240.155 163.04 239.867 163.04C239.59 163.04 239.334 163.109 239.099 163.248C238.864 163.387 238.678 163.573 238.539 163.808C238.4 164.032 238.331 164.288 238.331 164.576C238.331 164.853 238.4 165.115 238.539 165.36C238.678 165.595 238.864 165.781 239.099 165.92C239.334 166.048 239.59 166.112 239.867 166.112Z" fill="white"/>
</g>
<ellipse cx="200.87" cy="4" rx="3.91257" ry="4" fill="white"/>
<ellipse cx="237.866" cy="4" rx="3.91257" ry="4" fill="white"/>
<defs>
<clipPath id="clip0_2201_12568">
<rect width="358" height="170" fill="white" transform="translate(0 4)"/>
</clipPath>
</defs>
</svg>
