<svg width="358" height="170" viewBox="0 0 358 170" fill="none" xmlns="http://www.w3.org/2000/svg">
<g clip-path="url(#clip0_2201_12723)">
<path d="M67.06 24.316H80.524V28.312H67.06V24.316ZM47.548 16H63.784V19.492H47.548V16ZM47.224 30.328H63.748V33.964H47.224V30.328ZM47.116 24.028H64.072V27.556H47.116V24.028ZM72.892 26.08H77.104V46.06H72.892V26.08ZM53.596 12.724H57.772V17.548H53.596V12.724ZM53.596 27.34H57.772V46.168H53.596V27.34ZM65.116 15.244L70.156 16.684C70.132 16.996 69.832 17.2 69.256 17.296V27.88C69.256 29.224 69.184 30.7 69.04 32.308C68.92 33.892 68.668 35.524 68.284 37.204C67.9 38.86 67.336 40.468 66.592 42.028C65.848 43.588 64.864 45.016 63.64 46.312C63.472 45.976 63.196 45.616 62.812 45.232C62.452 44.848 62.068 44.476 61.66 44.116C61.276 43.78 60.904 43.528 60.544 43.36C61.6 42.256 62.428 41.068 63.028 39.796C63.652 38.5 64.108 37.168 64.396 35.8C64.708 34.432 64.9 33.076 64.972 31.732C65.068 30.364 65.116 29.056 65.116 27.808V15.244ZM76.888 12.796L80.344 15.928C79.12 16.48 77.788 16.984 76.348 17.44C74.908 17.896 73.432 18.304 71.92 18.664C70.432 19 68.992 19.3 67.6 19.564C67.48 19.108 67.288 18.556 67.024 17.908C66.76 17.26 66.496 16.72 66.232 16.288C67.528 16 68.836 15.676 70.156 15.316C71.476 14.932 72.712 14.524 73.864 14.092C75.04 13.66 76.048 13.228 76.888 12.796ZM57.484 34.108C57.748 34.252 58.132 34.516 58.636 34.9C59.164 35.284 59.716 35.704 60.292 36.16C60.868 36.592 61.384 37 61.84 37.384C62.32 37.744 62.68 38.008 62.92 38.176L60.4 41.272C60.112 40.936 59.74 40.528 59.284 40.048C58.852 39.544 58.372 39.04 57.844 38.536C57.34 38.032 56.848 37.552 56.368 37.096C55.888 36.64 55.48 36.268 55.144 35.98L57.484 34.108ZM49.348 20.032L52.696 19.24C53.008 19.888 53.284 20.62 53.524 21.436C53.764 22.228 53.92 22.912 53.992 23.488L50.5 24.46C50.452 23.86 50.32 23.152 50.104 22.336C49.912 21.496 49.66 20.728 49.348 20.032ZM58.312 19.168L62.164 19.924C61.828 20.74 61.504 21.532 61.192 22.3C60.88 23.044 60.592 23.68 60.328 24.208L56.872 23.488C57.04 23.08 57.22 22.624 57.412 22.12C57.604 21.616 57.784 21.112 57.952 20.608C58.12 20.08 58.24 19.6 58.312 19.168ZM53.632 32.416L56.656 33.568C56.08 34.864 55.384 36.172 54.568 37.492C53.752 38.788 52.864 40 51.904 41.128C50.944 42.256 49.984 43.204 49.024 43.972C48.712 43.516 48.28 42.988 47.728 42.388C47.176 41.764 46.672 41.272 46.216 40.912C47.152 40.312 48.088 39.556 49.024 38.644C49.96 37.708 50.824 36.712 51.616 35.656C52.432 34.576 53.104 33.496 53.632 32.416ZM96.436 14.452C96.34 15.196 96.244 16 96.148 16.864C96.076 17.728 96.016 18.52 95.968 19.24C95.944 20.224 95.896 21.424 95.824 22.84C95.776 24.232 95.728 25.696 95.68 27.232C95.656 28.768 95.62 30.28 95.572 31.768C95.548 33.256 95.536 34.552 95.536 35.656C95.536 36.856 95.752 37.816 96.184 38.536C96.64 39.232 97.24 39.736 97.984 40.048C98.728 40.336 99.568 40.48 100.504 40.48C101.992 40.48 103.348 40.288 104.572 39.904C105.796 39.496 106.912 38.956 107.92 38.284C108.928 37.612 109.828 36.832 110.62 35.944C111.436 35.056 112.168 34.12 112.816 33.136L116.092 37.096C115.516 37.96 114.76 38.872 113.824 39.832C112.888 40.792 111.772 41.692 110.476 42.532C109.204 43.372 107.728 44.056 106.048 44.584C104.368 45.112 102.508 45.376 100.468 45.376C98.5 45.376 96.784 45.064 95.32 44.44C93.88 43.84 92.752 42.904 91.936 41.632C91.144 40.336 90.748 38.668 90.748 36.628C90.748 35.644 90.76 34.528 90.784 33.28C90.808 32.008 90.844 30.688 90.892 29.32C90.94 27.952 90.976 26.62 91 25.324C91.024 24.004 91.048 22.816 91.072 21.76C91.096 20.704 91.108 19.864 91.108 19.24C91.108 18.376 91.072 17.536 91 16.72C90.928 15.88 90.808 15.1 90.64 14.38L96.436 14.452ZM129.88 17.26C129.784 17.692 129.7 18.184 129.628 18.736C129.58 19.288 129.532 19.828 129.484 20.356C129.46 20.884 129.448 21.316 129.448 21.652C129.424 22.444 129.412 23.26 129.412 24.1C129.436 24.94 129.46 25.804 129.484 26.692C129.532 27.556 129.592 28.42 129.664 29.284C129.832 31.012 130.072 32.536 130.384 33.856C130.696 35.176 131.104 36.208 131.608 36.952C132.112 37.672 132.748 38.032 133.516 38.032C133.924 38.032 134.32 37.804 134.704 37.348C135.112 36.892 135.472 36.304 135.784 35.584C136.12 34.84 136.408 34.06 136.648 33.244C136.912 32.428 137.14 31.66 137.332 30.94L140.932 35.332C140.14 37.42 139.348 39.088 138.556 40.336C137.788 41.56 136.984 42.448 136.144 43C135.304 43.528 134.392 43.792 133.408 43.792C132.112 43.792 130.876 43.36 129.7 42.496C128.548 41.632 127.564 40.24 126.748 38.32C125.932 36.376 125.356 33.796 125.02 30.58C124.9 29.476 124.804 28.312 124.732 27.088C124.684 25.864 124.648 24.7 124.624 23.596C124.624 22.492 124.624 21.58 124.624 20.86C124.624 20.356 124.6 19.756 124.552 19.06C124.504 18.364 124.432 17.74 124.336 17.188L129.88 17.26ZM147.88 18.088C148.552 18.904 149.2 19.9 149.824 21.076C150.448 22.252 151.024 23.512 151.552 24.856C152.08 26.2 152.548 27.58 152.956 28.996C153.364 30.388 153.688 31.756 153.928 33.1C154.192 34.42 154.36 35.632 154.432 36.736L149.68 38.572C149.56 37.108 149.344 35.512 149.032 33.784C148.72 32.056 148.3 30.316 147.772 28.564C147.244 26.812 146.608 25.156 145.864 23.596C145.144 22.036 144.292 20.692 143.308 19.564L147.88 18.088ZM168.04 12.328H179.992V16.216H172.324V35.332H168.04V12.328ZM184.384 26.728H216.64V31.012H184.384V26.728ZM187.084 17.836H214.012V22.12H187.084V17.836ZM198.1 12.436H202.708V46.24H198.1V12.436ZM197.344 29.212L201.088 30.76C200.224 32.176 199.24 33.568 198.136 34.936C197.032 36.28 195.832 37.552 194.536 38.752C193.264 39.952 191.932 41.056 190.54 42.064C189.172 43.048 187.78 43.912 186.364 44.656C186.124 44.272 185.812 43.852 185.428 43.396C185.068 42.94 184.684 42.496 184.276 42.064C183.892 41.608 183.52 41.224 183.16 40.912C184.552 40.312 185.932 39.592 187.3 38.752C188.692 37.888 190.012 36.94 191.26 35.908C192.508 34.876 193.648 33.796 194.68 32.668C195.712 31.516 196.6 30.364 197.344 29.212ZM203.5 29.248C204.22 30.4 205.096 31.552 206.128 32.704C207.184 33.832 208.336 34.912 209.584 35.944C210.832 36.976 212.128 37.924 213.472 38.788C214.84 39.628 216.208 40.348 217.576 40.948C217.24 41.212 216.868 41.572 216.46 42.028C216.076 42.46 215.704 42.916 215.344 43.396C214.984 43.876 214.684 44.308 214.444 44.692C213.052 43.948 211.672 43.072 210.304 42.064C208.936 41.056 207.616 39.952 206.344 38.752C205.072 37.528 203.884 36.244 202.78 34.9C201.7 33.556 200.728 32.176 199.864 30.76L203.5 29.248ZM221.716 28.132H254.08V32.272H221.716V28.132ZM223.408 16.324H252.676V20.464H223.408V16.324ZM235.612 12.4H240.184V46.204H235.612V12.4ZM246.304 20.356L250.84 21.688C250.408 22.504 249.964 23.32 249.508 24.136C249.052 24.952 248.608 25.72 248.176 26.44C247.744 27.16 247.336 27.796 246.952 28.348L243.208 27.088C243.568 26.488 243.94 25.804 244.324 25.036C244.732 24.244 245.104 23.44 245.44 22.624C245.8 21.808 246.088 21.052 246.304 20.356ZM225.82 21.904L229.672 20.428C230.128 21.076 230.56 21.784 230.968 22.552C231.376 23.296 231.736 24.04 232.048 24.784C232.384 25.504 232.624 26.164 232.768 26.764L228.628 28.42C228.508 27.82 228.304 27.148 228.016 26.404C227.752 25.66 227.428 24.892 227.044 24.1C226.66 23.284 226.252 22.552 225.82 21.904ZM234.892 29.824L238.384 31.228C237.544 32.644 236.572 34.024 235.468 35.368C234.388 36.688 233.2 37.948 231.904 39.148C230.632 40.324 229.312 41.416 227.944 42.424C226.576 43.408 225.184 44.248 223.768 44.944C223.552 44.584 223.264 44.176 222.904 43.72C222.544 43.264 222.172 42.82 221.788 42.388C221.404 41.956 221.044 41.608 220.708 41.344C222.1 40.744 223.48 40.036 224.848 39.22C226.216 38.38 227.524 37.456 228.772 36.448C230.02 35.416 231.16 34.348 232.192 33.244C233.248 32.116 234.148 30.976 234.892 29.824ZM241.048 29.86C241.768 31.012 242.632 32.152 243.64 33.28C244.672 34.408 245.8 35.476 247.024 36.484C248.272 37.492 249.568 38.416 250.912 39.256C252.28 40.096 253.648 40.804 255.016 41.38C254.704 41.668 254.344 42.028 253.936 42.46C253.552 42.892 253.18 43.336 252.82 43.792C252.484 44.248 252.208 44.656 251.992 45.016C250.576 44.32 249.184 43.48 247.816 42.496C246.472 41.512 245.164 40.42 243.892 39.22C242.644 38.02 241.48 36.748 240.4 35.404C239.32 34.06 238.36 32.68 237.52 31.264L241.048 29.86ZM270.28 46.312H258.328V42.424H265.996V23.308H270.28V46.312ZM295.912 17.336C295.805 17.912 295.635 18.6587 295.4 19.576C295.165 20.4933 294.824 21.528 294.376 22.68C294.035 23.4693 293.64 24.2907 293.192 25.144C292.765 25.976 292.328 26.7227 291.88 27.384C292.157 27.256 292.509 27.1493 292.936 27.064C293.363 26.9573 293.8 26.8827 294.248 26.84C294.717 26.776 295.133 26.744 295.496 26.744C296.84 26.744 297.949 27.128 298.824 27.896C299.72 28.664 300.168 29.8053 300.168 31.32C300.168 31.7467 300.168 32.2693 300.168 32.888C300.189 33.5067 300.211 34.1573 300.232 34.84C300.253 35.5013 300.275 36.152 300.296 36.792C300.317 37.432 300.328 38.008 300.328 38.52H296.488C296.531 38.1573 296.552 37.7307 296.552 37.24C296.573 36.728 296.584 36.1947 296.584 35.64C296.605 35.0853 296.616 34.552 296.616 34.04C296.637 33.5067 296.648 33.0267 296.648 32.6C296.648 31.576 296.371 30.872 295.816 30.488C295.283 30.0827 294.685 29.88 294.024 29.88C293.128 29.88 292.221 30.104 291.304 30.552C290.408 30.9787 289.651 31.4907 289.032 32.088C288.563 32.5573 288.083 33.08 287.592 33.656C287.123 34.232 286.611 34.8827 286.056 35.608L282.632 33.048C284.019 31.768 285.213 30.5307 286.216 29.336C287.24 28.1413 288.104 26.9573 288.808 25.784C289.512 24.6107 290.088 23.4373 290.536 22.264C290.856 21.4107 291.112 20.5253 291.304 19.608C291.517 18.6693 291.645 17.7947 291.688 16.984L295.912 17.336ZM283.88 20.28C284.691 20.408 285.629 20.504 286.696 20.568C287.763 20.632 288.701 20.664 289.512 20.664C290.92 20.664 292.456 20.632 294.12 20.568C295.805 20.504 297.512 20.3973 299.24 20.248C300.968 20.0773 302.611 19.864 304.168 19.608L304.136 23.32C303.005 23.4693 301.779 23.608 300.456 23.736C299.155 23.8427 297.821 23.9387 296.456 24.024C295.112 24.088 293.821 24.1413 292.584 24.184C291.347 24.2053 290.248 24.216 289.288 24.216C288.861 24.216 288.328 24.216 287.688 24.216C287.069 24.1947 286.429 24.1733 285.768 24.152C285.107 24.1093 284.477 24.0667 283.88 24.024V20.28ZM309.224 29.368C308.883 29.4747 308.477 29.6133 308.008 29.784C307.56 29.9333 307.101 30.0933 306.632 30.264C306.184 30.4133 305.779 30.5627 305.416 30.712C304.392 31.1173 303.176 31.608 301.768 32.184C300.381 32.76 298.931 33.432 297.416 34.2C296.456 34.712 295.645 35.2133 294.984 35.704C294.323 36.1947 293.821 36.696 293.48 37.208C293.139 37.6987 292.968 38.2427 292.968 38.84C292.968 39.288 293.064 39.6613 293.256 39.96C293.448 40.2373 293.736 40.4613 294.12 40.632C294.504 40.8027 294.984 40.92 295.56 40.984C296.136 41.048 296.819 41.08 297.608 41.08C298.973 41.08 300.477 41.0053 302.12 40.856C303.763 40.6853 305.288 40.4613 306.696 40.184L306.568 44.312C305.885 44.3973 305.021 44.4827 303.976 44.568C302.931 44.6747 301.843 44.7493 300.712 44.792C299.603 44.8347 298.536 44.856 297.512 44.856C295.848 44.856 294.355 44.696 293.032 44.376C291.709 44.056 290.664 43.512 289.896 42.744C289.149 41.9547 288.776 40.8773 288.776 39.512C288.776 38.4027 289.021 37.4 289.512 36.504C290.024 35.608 290.696 34.7973 291.528 34.072C292.36 33.3467 293.267 32.696 294.248 32.12C295.251 31.5227 296.232 30.9787 297.192 30.488C298.173 29.976 299.059 29.5387 299.848 29.176C300.637 28.8133 301.373 28.4933 302.056 28.216C302.76 27.9173 303.432 27.6187 304.072 27.32C304.691 27.0427 305.288 26.776 305.864 26.52C306.44 26.2427 307.027 25.9547 307.624 25.656L309.224 29.368ZM56.852 76.696H76.4V80.8H56.852V76.696ZM56.852 85.048H76.4V89.152H56.852V85.048ZM56.852 93.364H76.4V97.576H56.852V93.364ZM53.756 68.38H79.424V99.844H74.816V72.592H58.112V99.844H53.756V68.38ZM101.708 66.436H106.028V76.228C106.028 76.9 106.172 77.32 106.46 77.488C106.772 77.656 107.444 77.74 108.476 77.74C108.692 77.74 108.992 77.74 109.376 77.74C109.784 77.74 110.24 77.74 110.744 77.74C111.272 77.74 111.8 77.74 112.328 77.74C112.856 77.74 113.336 77.74 113.768 77.74C114.2 77.74 114.536 77.74 114.776 77.74C115.376 77.74 115.82 77.644 116.108 77.452C116.42 77.26 116.636 76.864 116.756 76.264C116.9 75.664 117.008 74.776 117.08 73.6C117.536 73.912 118.16 74.224 118.952 74.536C119.744 74.824 120.428 75.028 121.004 75.148C120.836 76.852 120.548 78.184 120.14 79.144C119.732 80.08 119.132 80.728 118.34 81.088C117.548 81.448 116.456 81.628 115.064 81.628C114.848 81.628 114.5 81.628 114.02 81.628C113.564 81.628 113.036 81.628 112.436 81.628C111.86 81.628 111.272 81.628 110.672 81.628C110.072 81.628 109.532 81.628 109.052 81.628C108.596 81.628 108.272 81.628 108.08 81.628C106.4 81.628 105.092 81.472 104.156 81.16C103.244 80.848 102.608 80.296 102.248 79.504C101.888 78.712 101.708 77.632 101.708 76.264V66.436ZM115.64 67.984L118.844 71.116C117.524 71.644 116.072 72.148 114.488 72.628C112.904 73.084 111.284 73.504 109.628 73.888C107.996 74.272 106.412 74.608 104.876 74.896C104.78 74.44 104.6 73.9 104.336 73.276C104.072 72.652 103.832 72.124 103.616 71.692C105.056 71.38 106.508 71.032 107.972 70.648C109.46 70.24 110.864 69.808 112.184 69.352C113.528 68.872 114.68 68.416 115.64 67.984ZM101.636 83.716H119.24V100.06H114.956V87.244H105.74V100.204H101.636V83.716ZM103.796 89.476H116.396V92.824H103.796V89.476ZM103.652 95.2H116.396V98.656H103.652V95.2ZM86.876 84.796C88.004 84.556 89.276 84.268 90.692 83.932C92.132 83.596 93.632 83.236 95.192 82.852C96.776 82.444 98.348 82.036 99.908 81.628L100.448 85.588C98.288 86.188 96.104 86.776 93.896 87.352C91.712 87.928 89.72 88.456 87.92 88.936L86.876 84.796ZM87.452 73.204H99.872V77.2H87.452V73.204ZM91.952 66.4H96.164V95.56C96.164 96.616 96.056 97.432 95.84 98.008C95.624 98.584 95.204 99.052 94.58 99.412C93.98 99.724 93.236 99.928 92.348 100.024C91.46 100.12 90.38 100.168 89.108 100.168C89.036 99.616 88.88 98.956 88.64 98.188C88.424 97.42 88.184 96.76 87.92 96.208C88.616 96.232 89.288 96.256 89.936 96.28C90.584 96.28 91.028 96.28 91.268 96.28C91.508 96.256 91.676 96.196 91.772 96.1C91.892 96.004 91.952 95.836 91.952 95.596V66.4ZM147.068 67.984C147.044 68.176 147.008 68.488 146.96 68.92C146.936 69.328 146.912 69.748 146.888 70.18C146.864 70.588 146.84 70.888 146.816 71.08C146.792 71.56 146.78 72.208 146.78 73.024C146.78 73.816 146.78 74.704 146.78 75.688C146.78 76.672 146.78 77.668 146.78 78.676C146.804 79.66 146.816 80.596 146.816 81.484C146.84 82.348 146.852 83.068 146.852 83.644L142.352 82.132C142.352 81.676 142.352 81.076 142.352 80.332C142.352 79.564 142.352 78.736 142.352 77.848C142.352 76.936 142.34 76.036 142.316 75.148C142.316 74.26 142.304 73.456 142.28 72.736C142.256 72.016 142.232 71.476 142.208 71.116C142.16 70.372 142.1 69.724 142.028 69.172C141.956 68.596 141.896 68.2 141.848 67.984H147.068ZM126.728 72.448C127.784 72.448 128.984 72.436 130.328 72.412C131.672 72.388 133.076 72.364 134.54 72.34C136.004 72.316 137.444 72.292 138.86 72.268C140.276 72.244 141.608 72.232 142.856 72.232C144.104 72.208 145.184 72.196 146.096 72.196C147.008 72.196 148.004 72.196 149.084 72.196C150.164 72.172 151.232 72.16 152.288 72.16C153.344 72.16 154.304 72.16 155.168 72.16C156.056 72.16 156.74 72.16 157.22 72.16L157.184 76.408C156.056 76.36 154.568 76.324 152.72 76.3C150.872 76.252 148.616 76.228 145.952 76.228C144.32 76.228 142.664 76.252 140.984 76.3C139.304 76.324 137.636 76.36 135.98 76.408C134.324 76.456 132.728 76.516 131.192 76.588C129.656 76.636 128.204 76.708 126.836 76.804L126.728 72.448ZM146.204 83.104C146.204 85.072 145.964 86.704 145.484 88C145.028 89.296 144.332 90.28 143.396 90.952C142.46 91.6 141.296 91.924 139.904 91.924C139.232 91.924 138.524 91.78 137.78 91.492C137.06 91.204 136.388 90.784 135.764 90.232C135.14 89.68 134.636 88.996 134.252 88.18C133.892 87.364 133.712 86.404 133.712 85.3C133.712 83.932 134.036 82.756 134.684 81.772C135.332 80.764 136.196 79.984 137.276 79.432C138.38 78.856 139.592 78.568 140.912 78.568C142.496 78.568 143.816 78.928 144.872 79.648C145.952 80.344 146.756 81.292 147.284 82.492C147.836 83.692 148.112 85.048 148.112 86.56C148.112 87.736 147.92 88.96 147.536 90.232C147.152 91.504 146.516 92.752 145.628 93.976C144.764 95.176 143.588 96.268 142.1 97.252C140.636 98.236 138.8 99.04 136.592 99.664L132.74 95.848C134.276 95.536 135.704 95.128 137.024 94.624C138.344 94.12 139.496 93.484 140.48 92.716C141.488 91.948 142.268 91 142.82 89.872C143.396 88.744 143.684 87.388 143.684 85.804C143.684 84.652 143.396 83.788 142.82 83.212C142.268 82.636 141.596 82.348 140.804 82.348C140.348 82.348 139.904 82.456 139.472 82.672C139.04 82.888 138.692 83.212 138.428 83.644C138.164 84.076 138.032 84.604 138.032 85.228C138.032 86.044 138.308 86.704 138.86 87.208C139.436 87.688 140.084 87.928 140.804 87.928C141.38 87.928 141.884 87.748 142.316 87.388C142.772 87.028 143.072 86.428 143.216 85.588C143.36 84.748 143.24 83.62 142.856 82.204L146.204 83.104ZM178.856 68.02C178.76 68.356 178.664 68.692 178.568 69.028C178.496 69.34 178.424 69.64 178.352 69.928C178.136 71.056 177.932 72.352 177.74 73.816C177.548 75.256 177.392 76.768 177.272 78.352C177.152 79.912 177.092 81.448 177.092 82.96C177.092 84.832 177.188 86.56 177.38 88.144C177.572 89.704 177.836 91.156 178.172 92.5C178.532 93.82 178.916 95.08 179.324 96.28L175.184 97.54C174.824 96.46 174.476 95.176 174.14 93.688C173.828 92.2 173.564 90.604 173.348 88.9C173.132 87.172 173.024 85.432 173.024 83.68C173.024 82.48 173.06 81.28 173.132 80.08C173.228 78.856 173.324 77.656 173.42 76.48C173.516 75.28 173.624 74.14 173.744 73.06C173.888 71.956 174.008 70.96 174.104 70.072C174.128 69.736 174.152 69.376 174.176 68.992C174.2 68.584 174.2 68.224 174.176 67.912L178.856 68.02ZM172.448 72.016C174.728 72.016 176.864 71.968 178.856 71.872C180.872 71.776 182.804 71.608 184.652 71.368C186.524 71.128 188.384 70.78 190.232 70.324L190.268 74.5C189.02 74.716 187.64 74.92 186.128 75.112C184.64 75.28 183.08 75.424 181.448 75.544C179.84 75.664 178.256 75.76 176.696 75.832C175.136 75.88 173.672 75.904 172.304 75.904C171.68 75.904 170.972 75.892 170.18 75.868C169.412 75.844 168.644 75.82 167.876 75.796C167.132 75.748 166.484 75.712 165.932 75.688L165.824 71.512C166.232 71.56 166.82 71.632 167.588 71.728C168.356 71.8 169.172 71.872 170.036 71.944C170.924 71.992 171.728 72.016 172.448 72.016ZM187.964 77.272C187.892 77.488 187.784 77.788 187.64 78.172C187.496 78.556 187.352 78.952 187.208 79.36C187.088 79.768 186.992 80.092 186.92 80.332C186.224 82.492 185.372 84.472 184.364 86.272C183.38 88.048 182.312 89.608 181.16 90.952C180.008 92.272 178.868 93.352 177.74 94.192C176.564 95.08 175.22 95.86 173.708 96.532C172.196 97.18 170.672 97.504 169.136 97.504C168.272 97.504 167.468 97.324 166.724 96.964C165.98 96.604 165.38 96.04 164.924 95.272C164.492 94.48 164.276 93.484 164.276 92.284C164.276 90.988 164.54 89.716 165.068 88.468C165.596 87.22 166.328 86.032 167.264 84.904C168.2 83.776 169.292 82.78 170.54 81.916C171.788 81.028 173.132 80.332 174.572 79.828C175.748 79.396 177.032 79.048 178.424 78.784C179.84 78.52 181.232 78.388 182.6 78.388C184.832 78.388 186.824 78.796 188.576 79.612C190.352 80.428 191.744 81.544 192.752 82.96C193.76 84.376 194.264 86.032 194.264 87.928C194.264 89.2 194.06 90.448 193.652 91.672C193.244 92.872 192.572 93.988 191.636 95.02C190.724 96.052 189.512 96.94 188 97.684C186.488 98.428 184.628 98.968 182.42 99.304L180.044 95.524C182.348 95.26 184.22 94.744 185.66 93.976C187.1 93.184 188.144 92.236 188.792 91.132C189.464 90.028 189.8 88.888 189.8 87.712C189.8 86.656 189.512 85.708 188.936 84.868C188.384 84.028 187.544 83.356 186.416 82.852C185.312 82.324 183.944 82.06 182.312 82.06C180.68 82.06 179.216 82.24 177.92 82.6C176.648 82.96 175.58 83.344 174.716 83.752C173.516 84.328 172.448 85.06 171.512 85.948C170.576 86.812 169.844 87.724 169.316 88.684C168.788 89.644 168.524 90.532 168.524 91.348C168.524 91.924 168.656 92.368 168.92 92.68C169.184 92.968 169.604 93.112 170.18 93.112C171.044 93.112 172.04 92.836 173.168 92.284C174.296 91.708 175.412 90.904 176.516 89.872C177.812 88.672 179.036 87.232 180.188 85.552C181.34 83.872 182.288 81.784 183.032 79.288C183.104 79.048 183.176 78.736 183.248 78.352C183.32 77.968 183.38 77.584 183.428 77.2C183.5 76.792 183.548 76.468 183.572 76.228L187.964 77.272ZM201.428 73.42C202.196 73.516 203.012 73.588 203.876 73.636C204.764 73.66 205.544 73.672 206.216 73.672C207.704 73.672 209.204 73.588 210.716 73.42C212.252 73.252 213.728 73.036 215.144 72.772C216.56 72.484 217.844 72.16 218.996 71.8L219.14 75.976C218.108 76.24 216.872 76.516 215.432 76.804C214.016 77.068 212.516 77.296 210.932 77.488C209.348 77.656 207.788 77.74 206.252 77.74C205.532 77.74 204.8 77.728 204.056 77.704C203.312 77.68 202.544 77.644 201.752 77.596L201.428 73.42ZM215.432 68.02C215.288 68.62 215.096 69.4 214.856 70.36C214.616 71.32 214.34 72.328 214.028 73.384C213.74 74.44 213.428 75.484 213.092 76.516C212.564 78.244 211.868 80.08 211.004 82.024C210.14 83.968 209.204 85.864 208.196 87.712C207.188 89.56 206.168 91.204 205.136 92.644L200.78 90.412C201.596 89.404 202.4 88.288 203.192 87.064C203.984 85.84 204.728 84.58 205.424 83.284C206.12 81.988 206.744 80.74 207.296 79.54C207.872 78.316 208.328 77.212 208.664 76.228C209.12 74.956 209.516 73.54 209.852 71.98C210.212 70.396 210.416 68.908 210.464 67.516L215.432 68.02ZM223.856 79.216C223.808 79.984 223.784 80.752 223.784 81.52C223.808 82.264 223.832 83.032 223.856 83.824C223.88 84.376 223.904 85.084 223.928 85.948C223.976 86.788 224.024 87.688 224.072 88.648C224.12 89.584 224.156 90.484 224.18 91.348C224.228 92.188 224.252 92.86 224.252 93.364C224.252 94.468 224.024 95.476 223.568 96.388C223.112 97.276 222.38 97.984 221.372 98.512C220.388 99.04 219.032 99.304 217.304 99.304C215.816 99.304 214.472 99.076 213.272 98.62C212.072 98.188 211.112 97.54 210.392 96.676C209.672 95.788 209.312 94.684 209.312 93.364C209.312 92.188 209.624 91.132 210.248 90.196C210.872 89.236 211.772 88.492 212.948 87.964C214.148 87.412 215.588 87.136 217.268 87.136C219.38 87.136 221.324 87.436 223.1 88.036C224.876 88.612 226.472 89.356 227.888 90.268C229.304 91.18 230.516 92.092 231.524 93.004L229.112 96.856C228.464 96.28 227.72 95.632 226.88 94.912C226.064 94.192 225.14 93.52 224.108 92.896C223.1 92.272 221.996 91.756 220.796 91.348C219.62 90.94 218.348 90.736 216.98 90.736C215.948 90.736 215.12 90.94 214.496 91.348C213.872 91.756 213.56 92.284 213.56 92.932C213.56 93.604 213.824 94.144 214.352 94.552C214.904 94.96 215.672 95.164 216.656 95.164C217.472 95.164 218.12 95.032 218.6 94.768C219.08 94.48 219.416 94.084 219.608 93.58C219.8 93.052 219.896 92.464 219.896 91.816C219.896 91.264 219.872 90.484 219.824 89.476C219.776 88.468 219.716 87.352 219.644 86.128C219.596 84.904 219.548 83.68 219.5 82.456C219.452 81.232 219.404 80.152 219.356 79.216H223.856ZM230.048 81.124C229.352 80.548 228.488 79.936 227.456 79.288C226.424 78.64 225.356 78.028 224.252 77.452C223.172 76.852 222.224 76.372 221.408 76.012L223.712 72.448C224.36 72.736 225.092 73.096 225.908 73.528C226.748 73.936 227.588 74.368 228.428 74.824C229.292 75.28 230.084 75.736 230.804 76.192C231.548 76.624 232.148 77.008 232.604 77.344L230.048 81.124ZM252.944 68.272C252.8 68.752 252.656 69.34 252.512 70.036C252.368 70.732 252.26 71.272 252.188 71.656C252.02 72.472 251.804 73.468 251.54 74.644C251.3 75.82 251.024 77.068 250.712 78.388C250.424 79.708 250.124 80.968 249.812 82.168C249.5 83.44 249.116 84.82 248.66 86.308C248.204 87.772 247.712 89.272 247.184 90.808C246.68 92.32 246.164 93.772 245.636 95.164C245.108 96.532 244.592 97.756 244.088 98.836L239.084 97.144C239.612 96.232 240.176 95.128 240.776 93.832C241.376 92.512 241.952 91.096 242.504 89.584C243.08 88.072 243.608 86.572 244.088 85.084C244.568 83.596 244.976 82.216 245.312 80.944C245.552 80.104 245.78 79.24 245.996 78.352C246.212 77.464 246.404 76.6 246.572 75.76C246.74 74.92 246.884 74.14 247.004 73.42C247.148 72.676 247.256 72.028 247.328 71.476C247.4 70.804 247.448 70.132 247.472 69.46C247.496 68.788 247.484 68.248 247.436 67.84L252.944 68.272ZM243.764 73.636C245.228 73.636 246.752 73.564 248.336 73.42C249.92 73.276 251.516 73.072 253.124 72.808C254.732 72.544 256.328 72.232 257.912 71.872V76.372C256.424 76.708 254.84 76.996 253.16 77.236C251.48 77.476 249.824 77.668 248.192 77.812C246.56 77.932 245.06 77.992 243.692 77.992C242.828 77.992 242.048 77.98 241.352 77.956C240.656 77.908 239.984 77.872 239.336 77.848L239.228 73.348C240.164 73.444 240.968 73.516 241.64 73.564C242.312 73.612 243.02 73.636 243.764 73.636ZM255.068 79.144C256.076 79.048 257.192 78.964 258.416 78.892C259.64 78.82 260.828 78.784 261.98 78.784C263.012 78.784 264.056 78.808 265.112 78.856C266.192 78.904 267.26 78.988 268.316 79.108L268.208 83.428C267.32 83.308 266.336 83.212 265.256 83.14C264.2 83.044 263.12 82.996 262.016 82.996C260.792 82.996 259.604 83.032 258.452 83.104C257.324 83.152 256.196 83.248 255.068 83.392V79.144ZM257.012 88.216C256.868 88.72 256.748 89.248 256.652 89.8C256.556 90.328 256.508 90.796 256.508 91.204C256.508 91.588 256.592 91.948 256.76 92.284C256.928 92.62 257.192 92.92 257.552 93.184C257.912 93.424 258.404 93.616 259.028 93.76C259.676 93.904 260.48 93.976 261.44 93.976C262.664 93.976 263.888 93.916 265.112 93.796C266.36 93.652 267.632 93.46 268.928 93.22L268.748 97.828C267.74 97.948 266.624 98.056 265.4 98.152C264.176 98.272 262.844 98.332 261.404 98.332C258.38 98.332 256.064 97.84 254.456 96.856C252.872 95.848 252.08 94.432 252.08 92.608C252.08 91.792 252.152 90.964 252.296 90.124C252.44 89.284 252.584 88.504 252.728 87.784L257.012 88.216ZM274.652 86.272C275.204 85.84 275.708 85.408 276.164 84.976C276.644 84.52 277.16 84.016 277.712 83.464C278.12 83.032 278.588 82.504 279.116 81.88C279.644 81.232 280.208 80.536 280.808 79.792C281.408 79.048 282.008 78.304 282.608 77.56C283.232 76.792 283.82 76.084 284.372 75.436C285.644 73.996 286.88 73.228 288.08 73.132C289.28 73.012 290.54 73.6 291.86 74.896C292.676 75.688 293.516 76.588 294.38 77.596C295.268 78.604 296.132 79.612 296.972 80.62C297.812 81.628 298.592 82.516 299.312 83.284C299.888 83.932 300.5 84.604 301.148 85.3C301.82 85.996 302.528 86.728 303.272 87.496C304.016 88.264 304.796 89.032 305.612 89.8C306.428 90.568 307.256 91.336 308.096 92.104L304.388 96.424C303.548 95.584 302.66 94.672 301.724 93.688C300.788 92.704 299.864 91.696 298.952 90.664C298.064 89.632 297.224 88.684 296.432 87.82C295.712 86.932 294.944 85.996 294.128 85.012C293.336 84.004 292.568 83.044 291.824 82.132C291.08 81.22 290.42 80.452 289.844 79.828C289.436 79.348 289.064 79.048 288.728 78.928C288.416 78.808 288.104 78.832 287.792 79C287.504 79.168 287.192 79.48 286.856 79.936C286.496 80.392 286.076 80.932 285.596 81.556C285.14 82.18 284.648 82.852 284.12 83.572C283.616 84.268 283.124 84.952 282.644 85.624C282.164 86.272 281.72 86.848 281.312 87.352C280.904 87.952 280.496 88.552 280.088 89.152C279.704 89.752 279.356 90.292 279.044 90.772L274.652 86.272Z" fill="white"/>
<path d="M43.112 131.528C43.112 131.357 43.112 131.048 43.112 130.6C43.112 130.141 43.112 129.603 43.112 128.984C43.112 128.355 43.112 127.704 43.112 127.032C43.112 126.349 43.112 125.688 43.112 125.048C43.112 124.408 43.112 123.843 43.112 123.352C43.112 122.861 43.112 122.504 43.112 122.28C43.112 122.024 43.1013 121.731 43.08 121.4C43.0587 121.059 43.0213 120.755 42.968 120.488H44.936C44.9147 120.744 44.888 121.037 44.856 121.368C44.8347 121.699 44.824 122.003 44.824 122.28C44.824 122.643 44.824 123.101 44.824 123.656C44.824 124.2 44.824 124.792 44.824 125.432C44.824 126.072 44.824 126.717 44.824 127.368C44.824 128.019 44.824 128.632 44.824 129.208C44.824 129.773 44.824 130.264 44.824 130.68C44.824 131.096 44.824 131.379 44.824 131.528C44.824 131.699 44.8293 131.907 44.84 132.152C44.8507 132.397 44.8667 132.648 44.888 132.904C44.9093 133.149 44.9307 133.373 44.952 133.576H42.984C43.0267 133.299 43.0587 132.968 43.08 132.584C43.1013 132.189 43.112 131.837 43.112 131.528ZM44.456 124.664C44.9787 124.813 45.5653 125 46.216 125.224C46.8667 125.437 47.5227 125.672 48.184 125.928C48.8453 126.173 49.4747 126.419 50.072 126.664C50.6693 126.909 51.176 127.133 51.592 127.336L50.872 129.08C50.424 128.835 49.9173 128.589 49.352 128.344C48.7973 128.088 48.2267 127.843 47.64 127.608C47.0533 127.373 46.4827 127.16 45.928 126.968C45.384 126.776 44.8933 126.611 44.456 126.472V124.664ZM58.168 120.936C58.3813 120.957 58.6213 120.979 58.888 121C59.1653 121.011 59.4373 121.016 59.704 121.016C59.8747 121.016 60.168 121.016 60.584 121.016C61.0107 121.016 61.4853 121.016 62.008 121.016C62.5413 121.016 63.0693 121.016 63.592 121.016C64.1253 121.016 64.6 121.016 65.016 121.016C65.4427 121.016 65.7467 121.016 65.928 121.016C66.184 121.016 66.456 121.011 66.744 121C67.0427 120.979 67.2933 120.957 67.496 120.936V122.584C67.2933 122.563 67.048 122.552 66.76 122.552C66.472 122.541 66.1893 122.536 65.912 122.536C65.7307 122.536 65.432 122.536 65.016 122.536C64.6 122.536 64.1253 122.536 63.592 122.536C63.0693 122.536 62.5413 122.536 62.008 122.536C61.4853 122.536 61.016 122.536 60.6 122.536C60.184 122.536 59.8853 122.536 59.704 122.536C59.448 122.536 59.1813 122.541 58.904 122.552C58.6373 122.552 58.392 122.563 58.168 122.584V120.936ZM68.76 125.336C68.7067 125.421 68.6533 125.517 68.6 125.624C68.5573 125.731 68.5253 125.821 68.504 125.896C68.28 126.675 67.9813 127.453 67.608 128.232C67.2347 129.011 66.7493 129.725 66.152 130.376C65.3307 131.293 64.424 132.019 63.432 132.552C62.4507 133.085 61.448 133.496 60.424 133.784L59.176 132.344C60.3387 132.099 61.4 131.731 62.36 131.24C63.32 130.739 64.1253 130.147 64.776 129.464C65.2347 128.984 65.608 128.461 65.896 127.896C66.1947 127.331 66.4133 126.787 66.552 126.264C66.4453 126.264 66.2373 126.264 65.928 126.264C65.6187 126.264 65.24 126.264 64.792 126.264C64.3547 126.264 63.8853 126.264 63.384 126.264C62.8827 126.264 62.3707 126.264 61.848 126.264C61.336 126.264 60.8507 126.264 60.392 126.264C59.9333 126.264 59.528 126.264 59.176 126.264C58.8347 126.264 58.5787 126.264 58.408 126.264C58.216 126.264 57.96 126.269 57.64 126.28C57.3307 126.291 57.0213 126.307 56.712 126.328V124.664C57.032 124.696 57.336 124.723 57.624 124.744C57.912 124.765 58.1733 124.776 58.408 124.776C58.536 124.776 58.7653 124.776 59.096 124.776C59.4267 124.776 59.816 124.776 60.264 124.776C60.712 124.776 61.192 124.776 61.704 124.776C62.2267 124.776 62.7493 124.776 63.272 124.776C63.7947 124.776 64.28 124.776 64.728 124.776C65.1867 124.776 65.5813 124.776 65.912 124.776C66.2427 124.776 66.472 124.776 66.6 124.776C66.824 124.776 67.0213 124.765 67.192 124.744C67.3733 124.712 67.5173 124.675 67.624 124.632L68.76 125.336ZM72.376 127.032C73.784 126.659 75.0747 126.216 76.248 125.704C77.432 125.181 78.4667 124.643 79.352 124.088C79.9173 123.747 80.4667 123.363 81 122.936C81.544 122.509 82.056 122.067 82.536 121.608C83.016 121.149 83.4373 120.707 83.8 120.28L85.144 121.56C84.6747 122.04 84.168 122.515 83.624 122.984C83.08 123.453 82.504 123.907 81.896 124.344C81.2987 124.771 80.6853 125.176 80.056 125.56C79.4693 125.923 78.8027 126.291 78.056 126.664C77.3093 127.027 76.52 127.379 75.688 127.72C74.856 128.051 74.0133 128.349 73.16 128.616L72.376 127.032ZM79.064 124.92L80.84 124.456V131.704C80.84 131.917 80.84 132.152 80.84 132.408C80.8507 132.653 80.8613 132.883 80.872 133.096C80.8933 133.309 80.92 133.475 80.952 133.592H78.968C78.9787 133.475 78.9947 133.309 79.016 133.096C79.0373 132.883 79.048 132.653 79.048 132.408C79.0587 132.152 79.064 131.917 79.064 131.704V124.92ZM99.352 120.904C99.4907 121.107 99.6507 121.357 99.832 121.656C100.024 121.955 100.205 122.259 100.376 122.568C100.557 122.867 100.707 123.144 100.824 123.4L99.704 123.88C99.5653 123.571 99.416 123.277 99.256 123C99.1067 122.712 98.952 122.429 98.792 122.152C98.632 121.875 98.456 121.613 98.264 121.368L99.352 120.904ZM101.496 120.136C101.645 120.328 101.811 120.568 101.992 120.856C102.184 121.144 102.371 121.443 102.552 121.752C102.733 122.051 102.888 122.323 103.016 122.568L101.896 123.064C101.757 122.755 101.603 122.461 101.432 122.184C101.272 121.907 101.107 121.635 100.936 121.368C100.765 121.101 100.584 120.845 100.392 120.6L101.496 120.136ZM92.472 120.632C92.7173 120.771 93 120.947 93.32 121.16C93.6507 121.363 93.9867 121.576 94.328 121.8C94.6693 122.013 94.9893 122.221 95.288 122.424C95.5867 122.616 95.832 122.781 96.024 122.92L95.064 124.296C94.872 124.147 94.6267 123.971 94.328 123.768C94.0293 123.565 93.7093 123.357 93.368 123.144C93.0373 122.931 92.712 122.728 92.392 122.536C92.0827 122.333 91.8053 122.163 91.56 122.024L92.472 120.632ZM89.816 132.04C90.4133 131.933 91.0213 131.8 91.64 131.64C92.2587 131.469 92.872 131.267 93.48 131.032C94.088 130.787 94.6693 130.515 95.224 130.216C96.12 129.704 96.9467 129.133 97.704 128.504C98.472 127.875 99.1653 127.203 99.784 126.488C100.403 125.773 100.925 125.037 101.352 124.28L102.328 125.976C101.613 127.064 100.717 128.104 99.64 129.096C98.5627 130.088 97.3733 130.963 96.072 131.72C95.5387 132.019 94.952 132.301 94.312 132.568C93.672 132.835 93.0427 133.064 92.424 133.256C91.8053 133.459 91.2507 133.603 90.76 133.688L89.816 132.04ZM90.024 124.264C90.28 124.392 90.5733 124.557 90.904 124.76C91.2347 124.952 91.5707 125.155 91.912 125.368C92.2533 125.581 92.5733 125.784 92.872 125.976C93.1707 126.168 93.416 126.328 93.608 126.456L92.68 127.88C92.4667 127.731 92.2107 127.555 91.912 127.352C91.6133 127.149 91.2987 126.941 90.968 126.728C90.6373 126.515 90.312 126.317 89.992 126.136C89.672 125.944 89.384 125.779 89.128 125.64L90.024 124.264ZM107.928 124.104C108.045 124.115 108.216 124.125 108.44 124.136C108.664 124.147 108.893 124.157 109.128 124.168C109.363 124.168 109.56 124.168 109.72 124.168C109.933 124.168 110.237 124.168 110.632 124.168C111.027 124.168 111.469 124.168 111.96 124.168C112.451 124.168 112.941 124.168 113.432 124.168C113.933 124.168 114.392 124.168 114.808 124.168C115.235 124.168 115.581 124.168 115.848 124.168C116.04 124.168 116.243 124.168 116.456 124.168C116.669 124.157 116.829 124.152 116.936 124.152C116.925 124.237 116.92 124.371 116.92 124.552C116.92 124.733 116.92 124.909 116.92 125.08C116.92 125.176 116.92 125.411 116.92 125.784C116.92 126.147 116.92 126.595 116.92 127.128C116.92 127.651 116.92 128.211 116.92 128.808C116.92 129.395 116.92 129.976 116.92 130.552C116.92 131.117 116.92 131.624 116.92 132.072C116.92 132.509 116.92 132.84 116.92 133.064C116.92 133.192 116.92 133.352 116.92 133.544C116.931 133.747 116.941 133.907 116.952 134.024H115.352C115.363 133.917 115.368 133.763 115.368 133.56C115.368 133.357 115.368 133.171 115.368 133C115.368 132.723 115.368 132.365 115.368 131.928C115.368 131.48 115.368 130.995 115.368 130.472C115.368 129.939 115.368 129.405 115.368 128.872C115.368 128.328 115.368 127.827 115.368 127.368C115.368 126.909 115.368 126.525 115.368 126.216C115.368 125.896 115.368 125.693 115.368 125.608C115.272 125.608 115.091 125.608 114.824 125.608C114.568 125.608 114.253 125.608 113.88 125.608C113.517 125.608 113.133 125.608 112.728 125.608C112.323 125.608 111.923 125.608 111.528 125.608C111.144 125.608 110.792 125.608 110.472 125.608C110.152 125.608 109.901 125.608 109.72 125.608C109.56 125.608 109.357 125.613 109.112 125.624C108.877 125.624 108.648 125.629 108.424 125.64C108.211 125.64 108.045 125.645 107.928 125.656V124.104ZM108.312 127.896C108.493 127.907 108.728 127.917 109.016 127.928C109.315 127.939 109.603 127.944 109.88 127.944C110.019 127.944 110.253 127.944 110.584 127.944C110.925 127.944 111.315 127.944 111.752 127.944C112.2 127.944 112.659 127.944 113.128 127.944C113.608 127.944 114.061 127.944 114.488 127.944C114.915 127.944 115.277 127.944 115.576 127.944C115.875 127.944 116.061 127.944 116.136 127.944V129.384C116.051 129.384 115.859 129.384 115.56 129.384C115.272 129.384 114.915 129.384 114.488 129.384C114.061 129.384 113.608 129.384 113.128 129.384C112.659 129.384 112.2 129.384 111.752 129.384C111.315 129.384 110.925 129.384 110.584 129.384C110.253 129.384 110.024 129.384 109.896 129.384C109.608 129.384 109.315 129.384 109.016 129.384C108.728 129.384 108.493 129.395 108.312 129.416V127.896ZM107.752 131.848C107.891 131.859 108.077 131.875 108.312 131.896C108.557 131.907 108.819 131.912 109.096 131.912C109.256 131.912 109.523 131.912 109.896 131.912C110.269 131.912 110.696 131.912 111.176 131.912C111.667 131.912 112.173 131.912 112.696 131.912C113.229 131.912 113.736 131.912 114.216 131.912C114.696 131.912 115.107 131.912 115.448 131.912C115.8 131.912 116.029 131.912 116.136 131.912V133.384C115.997 133.384 115.752 133.384 115.4 133.384C115.048 133.384 114.632 133.384 114.152 133.384C113.683 133.384 113.187 133.384 112.664 133.384C112.141 133.384 111.635 133.384 111.144 133.384C110.664 133.384 110.243 133.384 109.88 133.384C109.517 133.384 109.256 133.384 109.096 133.384C108.861 133.384 108.611 133.389 108.344 133.4C108.088 133.411 107.891 133.421 107.752 133.432V131.848ZM133.192 119.624C133.331 119.816 133.475 120.04 133.624 120.296C133.784 120.552 133.933 120.808 134.072 121.064C134.221 121.309 134.349 121.533 134.456 121.736L133.368 122.2C133.261 121.976 133.139 121.741 133 121.496C132.861 121.24 132.712 120.989 132.552 120.744C132.403 120.488 132.259 120.259 132.12 120.056L133.192 119.624ZM135.336 119.208C135.464 119.389 135.608 119.608 135.768 119.864C135.928 120.12 136.083 120.381 136.232 120.648C136.392 120.904 136.525 121.128 136.632 121.32L135.544 121.8C135.373 121.469 135.171 121.101 134.936 120.696C134.701 120.28 134.472 119.933 134.248 119.656L135.336 119.208ZM134.728 122.568C134.664 122.696 134.611 122.84 134.568 123C134.525 123.16 134.483 123.325 134.44 123.496C134.355 123.901 134.243 124.355 134.104 124.856C133.965 125.357 133.795 125.875 133.592 126.408C133.4 126.941 133.176 127.464 132.92 127.976C132.664 128.477 132.371 128.941 132.04 129.368C131.56 129.987 131.011 130.573 130.392 131.128C129.773 131.672 129.075 132.163 128.296 132.6C127.528 133.027 126.659 133.395 125.688 133.704L124.312 132.2C125.368 131.933 126.275 131.613 127.032 131.24C127.8 130.867 128.472 130.44 129.048 129.96C129.624 129.469 130.131 128.947 130.568 128.392C130.941 127.923 131.261 127.4 131.528 126.824C131.795 126.248 132.019 125.672 132.2 125.096C132.381 124.509 132.504 123.971 132.568 123.48C132.408 123.48 132.131 123.48 131.736 123.48C131.341 123.48 130.877 123.48 130.344 123.48C129.811 123.48 129.251 123.48 128.664 123.48C128.088 123.48 127.528 123.48 126.984 123.48C126.451 123.48 125.981 123.48 125.576 123.48C125.171 123.48 124.877 123.48 124.696 123.48C124.365 123.48 124.045 123.485 123.736 123.496C123.437 123.507 123.181 123.523 122.968 123.544V121.752C123.128 121.763 123.309 121.779 123.512 121.8C123.715 121.821 123.923 121.837 124.136 121.848C124.349 121.859 124.541 121.864 124.712 121.864C124.861 121.864 125.096 121.864 125.416 121.864C125.736 121.864 126.115 121.864 126.552 121.864C126.989 121.864 127.453 121.864 127.944 121.864C128.435 121.864 128.92 121.864 129.4 121.864C129.891 121.864 130.344 121.864 130.76 121.864C131.187 121.864 131.549 121.864 131.848 121.864C132.147 121.864 132.349 121.864 132.456 121.864C132.605 121.864 132.771 121.859 132.952 121.848C133.133 121.837 133.315 121.811 133.496 121.768L134.728 122.568ZM145.656 121.016C145.24 121.72 144.696 122.435 144.024 123.16C143.352 123.875 142.6 124.557 141.768 125.208C140.936 125.859 140.067 126.435 139.16 126.936C139.096 126.808 139.011 126.669 138.904 126.52C138.797 126.36 138.685 126.211 138.568 126.072C138.451 125.923 138.333 125.795 138.216 125.688C139.155 125.208 140.051 124.627 140.904 123.944C141.757 123.251 142.52 122.515 143.192 121.736C143.864 120.957 144.392 120.2 144.776 119.464H146.392C146.797 120.125 147.261 120.76 147.784 121.368C148.317 121.976 148.883 122.541 149.48 123.064C150.088 123.576 150.712 124.04 151.352 124.456C152.003 124.861 152.648 125.203 153.288 125.48C153.107 125.672 152.931 125.891 152.76 126.136C152.589 126.381 152.435 126.616 152.296 126.84C151.443 126.392 150.595 125.859 149.752 125.24C148.909 124.611 148.131 123.933 147.416 123.208C146.701 122.472 146.115 121.741 145.656 121.016ZM147.704 125.224H149.272V134.328H147.704V125.224ZM142.088 125.304H143.64V127.432C143.64 127.997 143.603 128.589 143.528 129.208C143.453 129.816 143.299 130.424 143.064 131.032C142.84 131.64 142.488 132.227 142.008 132.792C141.539 133.357 140.909 133.88 140.12 134.36C140.035 134.243 139.917 134.115 139.768 133.976C139.619 133.848 139.464 133.715 139.304 133.576C139.155 133.448 139.011 133.347 138.872 133.272C139.597 132.856 140.173 132.408 140.6 131.928C141.037 131.437 141.357 130.936 141.56 130.424C141.773 129.901 141.912 129.389 141.976 128.888C142.051 128.376 142.088 127.88 142.088 127.4V125.304ZM160.6 129.432H168.056V130.552H160.6V129.432ZM167.672 129.432H167.944L168.2 129.384L169.064 129.832C168.691 130.525 168.2 131.128 167.592 131.64C166.995 132.152 166.317 132.589 165.56 132.952C164.803 133.304 163.992 133.597 163.128 133.832C162.264 134.067 161.373 134.248 160.456 134.376C160.403 134.205 160.312 134.003 160.184 133.768C160.067 133.544 159.949 133.363 159.832 133.224C160.675 133.139 161.496 133.005 162.296 132.824C163.107 132.632 163.864 132.392 164.568 132.104C165.272 131.805 165.891 131.453 166.424 131.048C166.957 130.632 167.373 130.157 167.672 129.624V129.432ZM163.032 130.408C163.459 130.888 164.019 131.315 164.712 131.688C165.405 132.051 166.195 132.36 167.08 132.616C167.976 132.861 168.909 133.037 169.88 133.144C169.731 133.283 169.571 133.469 169.4 133.704C169.24 133.949 169.112 134.163 169.016 134.344C168.013 134.195 167.053 133.965 166.136 133.656C165.229 133.347 164.403 132.963 163.656 132.504C162.92 132.035 162.301 131.496 161.8 130.888L163.032 130.408ZM160.36 120.408H169.592V121.528H160.36V120.408ZM162.056 124.888H168.824V125.704H162.056V124.888ZM162.056 126.36H168.824V127.176H162.056V126.36ZM162.552 119.48H163.912V122.344H162.552V119.48ZM164.712 123.704H166.024V128.536H164.712V123.704ZM166.088 119.48H167.448V122.344H166.088V119.48ZM161.992 122.024L163.192 122.328C162.904 123.011 162.536 123.672 162.088 124.312C161.651 124.952 161.197 125.491 160.728 125.928C160.664 125.853 160.568 125.768 160.44 125.672C160.323 125.565 160.2 125.464 160.072 125.368C159.944 125.272 159.832 125.192 159.736 125.128C160.205 124.744 160.637 124.28 161.032 123.736C161.427 123.181 161.747 122.611 161.992 122.024ZM165.176 122.088L166.552 122.344C166.392 122.653 166.232 122.947 166.072 123.224C165.912 123.491 165.768 123.731 165.64 123.944L164.472 123.688C164.6 123.443 164.728 123.171 164.856 122.872C164.995 122.573 165.101 122.312 165.176 122.088ZM169.176 123.272V124.264H162.776V127.848H169.56V128.824H161.432V123.272H169.176ZM155.576 124.36H159.752V125.528H155.576V124.36ZM155.672 120.024H159.704V121.208H155.672V120.024ZM155.576 126.52H159.752V127.688H155.576V126.52ZM154.92 122.152H160.152V123.368H154.92V122.152ZM156.264 128.712H159.736V133.448H156.264V132.232H158.488V129.928H156.264V128.712ZM155.544 128.712H156.744V134.152H155.544V128.712ZM177.32 123.384C177.779 123.427 178.232 123.464 178.68 123.496C179.139 123.517 179.608 123.528 180.088 123.528C181.048 123.528 182.008 123.485 182.968 123.4C183.928 123.315 184.819 123.192 185.64 123.032V124.584C184.787 124.723 183.88 124.824 182.92 124.888C181.971 124.952 181.021 124.989 180.072 125C179.603 125 179.144 124.989 178.696 124.968C178.259 124.947 177.805 124.92 177.336 124.888L177.32 123.384ZM183.128 120.584C183.107 120.744 183.085 120.909 183.064 121.08C183.053 121.251 183.043 121.416 183.032 121.576C183.021 121.757 183.011 121.997 183 122.296C183 122.595 182.995 122.92 182.984 123.272C182.984 123.613 182.984 123.955 182.984 124.296C182.984 124.968 182.995 125.613 183.016 126.232C183.048 126.851 183.08 127.437 183.112 127.992C183.144 128.547 183.171 129.069 183.192 129.56C183.213 130.04 183.224 130.477 183.224 130.872C183.224 131.235 183.176 131.581 183.08 131.912C182.984 132.243 182.824 132.536 182.6 132.792C182.376 133.048 182.072 133.245 181.688 133.384C181.315 133.533 180.851 133.608 180.296 133.608C179.208 133.608 178.365 133.395 177.768 132.968C177.171 132.541 176.872 131.944 176.872 131.176C176.872 130.685 177.005 130.248 177.272 129.864C177.549 129.48 177.939 129.176 178.44 128.952C178.952 128.728 179.565 128.616 180.28 128.616C180.995 128.616 181.645 128.696 182.232 128.856C182.819 129.005 183.363 129.213 183.864 129.48C184.365 129.736 184.813 130.019 185.208 130.328C185.613 130.637 185.981 130.936 186.312 131.224L185.448 132.568C184.872 132.013 184.296 131.533 183.72 131.128C183.155 130.723 182.579 130.408 181.992 130.184C181.405 129.96 180.792 129.848 180.152 129.848C179.608 129.848 179.165 129.955 178.824 130.168C178.493 130.381 178.328 130.659 178.328 131C178.328 131.373 178.493 131.656 178.824 131.848C179.155 132.029 179.576 132.12 180.088 132.12C180.483 132.12 180.792 132.056 181.016 131.928C181.24 131.8 181.4 131.613 181.496 131.368C181.592 131.123 181.64 130.835 181.64 130.504C181.64 130.227 181.629 129.853 181.608 129.384C181.587 128.904 181.56 128.381 181.528 127.816C181.496 127.24 181.469 126.653 181.448 126.056C181.427 125.448 181.416 124.867 181.416 124.312C181.416 123.736 181.416 123.208 181.416 122.728C181.416 122.237 181.416 121.864 181.416 121.608C181.416 121.469 181.405 121.304 181.384 121.112C181.373 120.909 181.352 120.733 181.32 120.584H183.128ZM175.272 120.728C175.24 120.813 175.203 120.936 175.16 121.096C175.117 121.256 175.075 121.416 175.032 121.576C175 121.736 174.973 121.864 174.952 121.96C174.899 122.216 174.835 122.547 174.76 122.952C174.696 123.347 174.627 123.784 174.552 124.264C174.488 124.733 174.424 125.213 174.36 125.704C174.307 126.195 174.259 126.664 174.216 127.112C174.184 127.56 174.168 127.955 174.168 128.296C174.168 128.573 174.179 128.856 174.2 129.144C174.221 129.421 174.253 129.709 174.296 130.008C174.371 129.784 174.456 129.555 174.552 129.32C174.648 129.075 174.744 128.835 174.84 128.6C174.947 128.365 175.043 128.152 175.128 127.96L175.928 128.584C175.789 128.989 175.64 129.427 175.48 129.896C175.32 130.355 175.176 130.792 175.048 131.208C174.931 131.624 174.84 131.971 174.776 132.248C174.755 132.355 174.733 132.483 174.712 132.632C174.701 132.771 174.696 132.888 174.696 132.984C174.707 133.059 174.712 133.149 174.712 133.256C174.723 133.373 174.733 133.48 174.744 133.576L173.32 133.688C173.149 133.123 173 132.408 172.872 131.544C172.755 130.669 172.696 129.688 172.696 128.6C172.696 128.003 172.723 127.384 172.776 126.744C172.829 126.093 172.893 125.459 172.968 124.84C173.053 124.221 173.133 123.656 173.208 123.144C173.283 122.632 173.347 122.216 173.4 121.896C173.421 121.693 173.443 121.475 173.464 121.24C173.496 121.005 173.517 120.781 173.528 120.568L175.272 120.728ZM195.576 121.016C195.16 121.72 194.616 122.435 193.944 123.16C193.272 123.875 192.52 124.557 191.688 125.208C190.856 125.859 189.987 126.435 189.08 126.936C189.016 126.808 188.931 126.669 188.824 126.52C188.717 126.36 188.605 126.211 188.488 126.072C188.371 125.923 188.253 125.795 188.136 125.688C189.075 125.208 189.971 124.627 190.824 123.944C191.677 123.251 192.44 122.515 193.112 121.736C193.784 120.957 194.312 120.2 194.696 119.464H196.312C196.717 120.125 197.181 120.76 197.704 121.368C198.237 121.976 198.803 122.541 199.4 123.064C200.008 123.576 200.632 124.04 201.272 124.456C201.923 124.861 202.568 125.203 203.208 125.48C203.027 125.672 202.851 125.891 202.68 126.136C202.509 126.381 202.355 126.616 202.216 126.84C201.363 126.392 200.515 125.859 199.672 125.24C198.829 124.611 198.051 123.933 197.336 123.208C196.621 122.472 196.035 121.741 195.576 121.016ZM197.624 125.224H199.192V134.328H197.624V125.224ZM192.008 125.304H193.56V127.432C193.56 127.997 193.523 128.589 193.448 129.208C193.373 129.816 193.219 130.424 192.984 131.032C192.76 131.64 192.408 132.227 191.928 132.792C191.459 133.357 190.829 133.88 190.04 134.36C189.955 134.243 189.837 134.115 189.688 133.976C189.539 133.848 189.384 133.715 189.224 133.576C189.075 133.448 188.931 133.347 188.792 133.272C189.517 132.856 190.093 132.408 190.52 131.928C190.957 131.437 191.277 130.936 191.48 130.424C191.693 129.901 191.832 129.389 191.896 128.888C191.971 128.376 192.008 127.88 192.008 127.4V125.304ZM210.52 129.432H217.976V130.552H210.52V129.432ZM217.592 129.432H217.864L218.12 129.384L218.984 129.832C218.611 130.525 218.12 131.128 217.512 131.64C216.915 132.152 216.237 132.589 215.48 132.952C214.723 133.304 213.912 133.597 213.048 133.832C212.184 134.067 211.293 134.248 210.376 134.376C210.323 134.205 210.232 134.003 210.104 133.768C209.987 133.544 209.869 133.363 209.752 133.224C210.595 133.139 211.416 133.005 212.216 132.824C213.027 132.632 213.784 132.392 214.488 132.104C215.192 131.805 215.811 131.453 216.344 131.048C216.877 130.632 217.293 130.157 217.592 129.624V129.432ZM212.952 130.408C213.379 130.888 213.939 131.315 214.632 131.688C215.325 132.051 216.115 132.36 217 132.616C217.896 132.861 218.829 133.037 219.8 133.144C219.651 133.283 219.491 133.469 219.32 133.704C219.16 133.949 219.032 134.163 218.936 134.344C217.933 134.195 216.973 133.965 216.056 133.656C215.149 133.347 214.323 132.963 213.576 132.504C212.84 132.035 212.221 131.496 211.72 130.888L212.952 130.408ZM210.28 120.408H219.512V121.528H210.28V120.408ZM211.976 124.888H218.744V125.704H211.976V124.888ZM211.976 126.36H218.744V127.176H211.976V126.36ZM212.472 119.48H213.832V122.344H212.472V119.48ZM214.632 123.704H215.944V128.536H214.632V123.704ZM216.008 119.48H217.368V122.344H216.008V119.48ZM211.912 122.024L213.112 122.328C212.824 123.011 212.456 123.672 212.008 124.312C211.571 124.952 211.117 125.491 210.648 125.928C210.584 125.853 210.488 125.768 210.36 125.672C210.243 125.565 210.12 125.464 209.992 125.368C209.864 125.272 209.752 125.192 209.656 125.128C210.125 124.744 210.557 124.28 210.952 123.736C211.347 123.181 211.667 122.611 211.912 122.024ZM215.096 122.088L216.472 122.344C216.312 122.653 216.152 122.947 215.992 123.224C215.832 123.491 215.688 123.731 215.56 123.944L214.392 123.688C214.52 123.443 214.648 123.171 214.776 122.872C214.915 122.573 215.021 122.312 215.096 122.088ZM219.096 123.272V124.264H212.696V127.848H219.48V128.824H211.352V123.272H219.096ZM205.496 124.36H209.672V125.528H205.496V124.36ZM205.592 120.024H209.624V121.208H205.592V120.024ZM205.496 126.52H209.672V127.688H205.496V126.52ZM204.84 122.152H210.072V123.368H204.84V122.152ZM206.184 128.712H209.656V133.448H206.184V132.232H208.408V129.928H206.184V128.712ZM205.464 128.712H206.664V134.152H205.464V128.712ZM228.152 122.024C228.621 122.099 229.149 122.152 229.736 122.184C230.333 122.216 230.947 122.227 231.576 122.216C232.205 122.205 232.808 122.184 233.384 122.152C233.96 122.12 234.456 122.077 234.872 122.024V123.656C234.413 123.699 233.896 123.736 233.32 123.768C232.744 123.789 232.147 123.8 231.528 123.8C230.92 123.8 230.323 123.789 229.736 123.768C229.149 123.736 228.627 123.699 228.168 123.656L228.152 122.024ZM229.064 128.68C229 128.957 228.947 129.208 228.904 129.432C228.872 129.656 228.856 129.88 228.856 130.104C228.856 130.285 228.893 130.456 228.968 130.616C229.053 130.776 229.187 130.915 229.368 131.032C229.56 131.149 229.816 131.245 230.136 131.32C230.467 131.384 230.872 131.416 231.352 131.416C232.077 131.416 232.755 131.384 233.384 131.32C234.024 131.245 234.675 131.133 235.336 130.984L235.368 132.696C234.867 132.792 234.28 132.872 233.608 132.936C232.947 132.989 232.184 133.016 231.32 133.016C229.965 133.016 228.963 132.797 228.312 132.36C227.672 131.912 227.352 131.299 227.352 130.52C227.352 130.232 227.373 129.933 227.416 129.624C227.459 129.304 227.528 128.947 227.624 128.552L229.064 128.68ZM225.368 120.872C225.336 120.968 225.293 121.096 225.24 121.256C225.197 121.405 225.155 121.56 225.112 121.72C225.08 121.869 225.053 121.992 225.032 122.088C224.979 122.355 224.915 122.68 224.84 123.064C224.776 123.437 224.707 123.848 224.632 124.296C224.568 124.733 224.504 125.181 224.44 125.64C224.387 126.088 224.339 126.525 224.296 126.952C224.264 127.379 224.248 127.768 224.248 128.12C224.248 128.397 224.253 128.68 224.264 128.968C224.285 129.245 224.312 129.533 224.344 129.832C224.44 129.619 224.536 129.395 224.632 129.16C224.728 128.915 224.824 128.675 224.92 128.44C225.016 128.205 225.107 127.992 225.192 127.8L225.992 128.44C225.853 128.835 225.704 129.272 225.544 129.752C225.384 130.232 225.24 130.691 225.112 131.128C224.995 131.555 224.909 131.901 224.856 132.168C224.835 132.275 224.813 132.403 224.792 132.552C224.771 132.691 224.765 132.808 224.776 132.904C224.776 132.979 224.776 133.069 224.776 133.176C224.787 133.293 224.797 133.4 224.808 133.496L223.352 133.592C223.192 133.037 223.053 132.307 222.936 131.4C222.819 130.493 222.76 129.501 222.76 128.424C222.76 127.827 222.787 127.224 222.84 126.616C222.893 125.997 222.957 125.4 223.032 124.824C223.107 124.248 223.181 123.72 223.256 123.24C223.341 122.76 223.405 122.36 223.448 122.04C223.48 121.837 223.507 121.619 223.528 121.384C223.56 121.149 223.581 120.925 223.592 120.712L225.368 120.872ZM244.6 121.096H252.232V122.472H244.6V121.096ZM243.656 124.216H252.968V125.624H243.656V124.216ZM243.96 127.336H252.84V128.744H243.96V127.336ZM247.64 119.48H249.128V124.984H247.64V119.48ZM249.576 125.448H251.08V132.584C251.08 132.989 251.027 133.304 250.92 133.528C250.824 133.763 250.632 133.944 250.344 134.072C250.067 134.189 249.704 134.259 249.256 134.28C248.819 134.312 248.291 134.328 247.672 134.328C247.651 134.115 247.592 133.864 247.496 133.576C247.411 133.288 247.315 133.037 247.208 132.824C247.656 132.835 248.072 132.845 248.456 132.856C248.851 132.856 249.117 132.851 249.256 132.84C249.384 132.84 249.469 132.824 249.512 132.792C249.555 132.749 249.576 132.669 249.576 132.552V125.448ZM244.68 129.688L245.816 129C246.072 129.235 246.328 129.501 246.584 129.8C246.84 130.088 247.08 130.381 247.304 130.68C247.528 130.968 247.699 131.235 247.816 131.48L246.6 132.264C246.493 132.029 246.333 131.763 246.12 131.464C245.917 131.155 245.688 130.845 245.432 130.536C245.187 130.227 244.936 129.944 244.68 129.688ZM238.072 128.12C238.584 127.992 239.165 127.843 239.816 127.672C240.477 127.491 241.171 127.293 241.896 127.08C242.632 126.867 243.368 126.653 244.104 126.44L244.296 127.768C243.293 128.088 242.275 128.408 241.24 128.728C240.205 129.037 239.277 129.32 238.456 129.576L238.072 128.12ZM241 119.496H242.408V134.344H241V119.496ZM238.968 120.344L240.248 120.552C240.173 121.256 240.077 121.96 239.96 122.664C239.853 123.368 239.725 124.029 239.576 124.648C239.427 125.267 239.251 125.816 239.048 126.296C238.963 126.232 238.851 126.157 238.712 126.072C238.584 125.987 238.445 125.901 238.296 125.816C238.157 125.731 238.04 125.667 237.944 125.624C238.136 125.176 238.296 124.664 238.424 124.088C238.552 123.512 238.659 122.904 238.744 122.264C238.84 121.624 238.915 120.984 238.968 120.344ZM239.224 122.632H243.912V124.088H238.952L239.224 122.632ZM261.928 119.896H263.448V131.624C263.448 131.933 263.469 132.168 263.512 132.328C263.565 132.477 263.661 132.579 263.8 132.632C263.949 132.685 264.163 132.712 264.44 132.712C264.547 132.712 264.723 132.712 264.968 132.712C265.224 132.712 265.501 132.712 265.8 132.712C266.109 132.712 266.397 132.712 266.664 132.712C266.931 132.712 267.123 132.712 267.24 132.712C267.517 132.712 267.725 132.632 267.864 132.472C268.003 132.312 268.104 132.024 268.168 131.608C268.232 131.192 268.285 130.6 268.328 129.832C268.52 129.971 268.749 130.104 269.016 130.232C269.293 130.349 269.539 130.435 269.752 130.488C269.677 131.384 269.565 132.099 269.416 132.632C269.277 133.165 269.043 133.549 268.712 133.784C268.392 134.019 267.939 134.136 267.352 134.136C267.267 134.136 267.117 134.136 266.904 134.136C266.701 134.136 266.467 134.136 266.2 134.136C265.944 134.136 265.683 134.136 265.416 134.136C265.149 134.136 264.915 134.136 264.712 134.136C264.509 134.136 264.371 134.136 264.296 134.136C263.688 134.136 263.208 134.061 262.856 133.912C262.515 133.763 262.275 133.501 262.136 133.128C261.997 132.765 261.928 132.253 261.928 131.592V119.896ZM267.928 122.552L269.032 123.864C268.467 124.301 267.843 124.733 267.16 125.16C266.477 125.576 265.773 125.981 265.048 126.376C264.333 126.76 263.624 127.128 262.92 127.48C262.867 127.299 262.776 127.096 262.648 126.872C262.52 126.637 262.403 126.44 262.296 126.28C262.968 125.939 263.645 125.56 264.328 125.144C265.021 124.717 265.677 124.285 266.296 123.848C266.925 123.4 267.469 122.968 267.928 122.552ZM259 119.72L260.488 120.216C260.093 121.155 259.619 122.083 259.064 123C258.52 123.917 257.928 124.776 257.288 125.576C256.659 126.376 256.013 127.08 255.352 127.688C255.299 127.56 255.219 127.4 255.112 127.208C255.005 127.005 254.893 126.808 254.776 126.616C254.659 126.413 254.552 126.248 254.456 126.12C255.053 125.619 255.635 125.032 256.2 124.36C256.765 123.677 257.288 122.941 257.768 122.152C258.248 121.363 258.659 120.552 259 119.72ZM257.224 124.056L258.728 122.552L258.744 122.584V134.312H257.224V124.056ZM276.504 120.44C276.461 120.728 276.424 121.037 276.392 121.368C276.36 121.688 276.339 121.992 276.328 122.28C276.307 122.717 276.285 123.261 276.264 123.912C276.243 124.552 276.221 125.235 276.2 125.96C276.179 126.675 276.163 127.384 276.152 128.088C276.141 128.781 276.136 129.405 276.136 129.96C276.136 130.525 276.237 130.973 276.44 131.304C276.653 131.635 276.947 131.875 277.32 132.024C277.693 132.163 278.109 132.232 278.568 132.232C279.272 132.232 279.907 132.141 280.472 131.96C281.037 131.779 281.544 131.533 281.992 131.224C282.451 130.915 282.861 130.563 283.224 130.168C283.587 129.773 283.912 129.363 284.2 128.936L285.336 130.328C285.069 130.712 284.733 131.112 284.328 131.528C283.923 131.944 283.437 132.333 282.872 132.696C282.317 133.059 281.677 133.352 280.952 133.576C280.237 133.8 279.432 133.912 278.536 133.912C277.725 133.912 277.016 133.789 276.408 133.544C275.8 133.299 275.325 132.904 274.984 132.36C274.643 131.816 274.472 131.101 274.472 130.216C274.472 129.757 274.477 129.24 274.488 128.664C274.499 128.088 274.509 127.496 274.52 126.888C274.541 126.269 274.557 125.667 274.568 125.08C274.589 124.493 274.605 123.955 274.616 123.464C274.627 122.973 274.632 122.579 274.632 122.28C274.632 121.939 274.616 121.613 274.584 121.304C274.563 120.984 274.52 120.691 274.456 120.424L276.504 120.44ZM294.776 120.328C294.723 120.52 294.664 120.76 294.6 121.048C294.547 121.325 294.504 121.544 294.472 121.704C294.397 122.077 294.307 122.525 294.2 123.048C294.104 123.56 293.987 124.099 293.848 124.664C293.72 125.229 293.587 125.779 293.448 126.312C293.309 126.877 293.139 127.491 292.936 128.152C292.733 128.813 292.515 129.485 292.28 130.168C292.056 130.84 291.827 131.48 291.592 132.088C291.368 132.685 291.144 133.213 290.92 133.672L289.176 133.08C289.411 132.675 289.656 132.184 289.912 131.608C290.168 131.021 290.419 130.397 290.664 129.736C290.909 129.064 291.139 128.397 291.352 127.736C291.565 127.075 291.747 126.467 291.896 125.912C291.992 125.539 292.088 125.149 292.184 124.744C292.28 124.328 292.371 123.928 292.456 123.544C292.541 123.16 292.611 122.803 292.664 122.472C292.717 122.131 292.76 121.848 292.792 121.624C292.835 121.368 292.856 121.107 292.856 120.84C292.867 120.573 292.867 120.355 292.856 120.184L294.776 120.328ZM291 122.888C291.619 122.888 292.275 122.856 292.968 122.792C293.661 122.728 294.365 122.637 295.08 122.52C295.805 122.403 296.504 122.259 297.176 122.088V123.672C296.515 123.821 295.816 123.949 295.08 124.056C294.344 124.163 293.624 124.248 292.92 124.312C292.216 124.365 291.571 124.392 290.984 124.392C290.621 124.392 290.285 124.387 289.976 124.376C289.677 124.365 289.379 124.349 289.08 124.328L289.048 122.76C289.443 122.803 289.789 122.835 290.088 122.856C290.397 122.877 290.701 122.888 291 122.888ZM296.04 125.192C296.477 125.149 296.957 125.117 297.48 125.096C298.003 125.064 298.52 125.048 299.032 125.048C299.501 125.048 299.971 125.059 300.44 125.08C300.92 125.091 301.384 125.123 301.832 125.176L301.784 126.712C301.379 126.659 300.941 126.611 300.472 126.568C300.013 126.525 299.544 126.504 299.064 126.504C298.541 126.504 298.029 126.52 297.528 126.552C297.037 126.573 296.541 126.616 296.04 126.68V125.192ZM296.6 129.144C296.547 129.389 296.499 129.635 296.456 129.88C296.413 130.115 296.392 130.333 296.392 130.536C296.392 130.717 296.424 130.893 296.488 131.064C296.563 131.224 296.685 131.368 296.856 131.496C297.037 131.624 297.288 131.725 297.608 131.8C297.939 131.875 298.36 131.912 298.872 131.912C299.395 131.912 299.928 131.885 300.472 131.832C301.016 131.768 301.549 131.688 302.072 131.592L302.024 133.208C301.576 133.261 301.085 133.309 300.552 133.352C300.029 133.405 299.464 133.432 298.856 133.432C297.555 133.432 296.557 133.224 295.864 132.808C295.181 132.392 294.84 131.789 294.84 131C294.84 130.659 294.867 130.323 294.92 129.992C294.973 129.651 295.037 129.32 295.112 129L296.6 129.144ZM308.36 133.976C308.029 133.571 307.661 133.155 307.256 132.728C306.861 132.301 306.456 131.891 306.04 131.496C305.635 131.101 305.245 130.749 304.872 130.44L306.184 129.288C306.568 129.597 306.973 129.96 307.4 130.376C307.827 130.781 308.243 131.203 308.648 131.64C309.064 132.067 309.421 132.461 309.72 132.824L308.36 133.976ZM106.229 151.056H120.309V152.528H106.229V151.056ZM113.861 152.368C114.16 153.285 114.533 154.176 114.981 155.04C115.429 155.893 115.946 156.699 116.533 157.456C117.12 158.203 117.77 158.869 118.485 159.456C119.2 160.032 119.968 160.501 120.789 160.864C120.682 160.971 120.554 161.099 120.405 161.248C120.266 161.397 120.133 161.557 120.005 161.728C119.877 161.899 119.77 162.059 119.685 162.208C118.554 161.632 117.541 160.869 116.645 159.92C115.76 158.96 114.986 157.867 114.325 156.64C113.664 155.413 113.114 154.101 112.677 152.704L113.861 152.368ZM118.373 153.04L119.701 153.968C119.349 154.373 118.965 154.795 118.549 155.232C118.133 155.659 117.717 156.064 117.301 156.448C116.885 156.832 116.496 157.179 116.133 157.488L115.045 156.64C115.397 156.341 115.776 155.989 116.181 155.584C116.597 155.168 116.997 154.736 117.381 154.288C117.776 153.84 118.106 153.424 118.373 153.04ZM115.285 149.44L116.181 148.496C116.512 148.645 116.864 148.821 117.237 149.024C117.61 149.227 117.968 149.435 118.309 149.648C118.65 149.861 118.933 150.053 119.157 150.224L118.197 151.312C117.994 151.12 117.728 150.917 117.397 150.704C117.066 150.48 116.714 150.256 116.341 150.032C115.978 149.808 115.626 149.611 115.285 149.44ZM106.981 154.096L108.133 153.296C108.453 153.573 108.778 153.883 109.109 154.224C109.45 154.555 109.76 154.891 110.037 155.232C110.325 155.563 110.549 155.872 110.709 156.16L109.477 157.056C109.328 156.779 109.114 156.469 108.837 156.128C108.57 155.776 108.272 155.419 107.941 155.056C107.621 154.693 107.301 154.373 106.981 154.096ZM112.421 148.528H113.973V161.392C113.973 161.883 113.914 162.251 113.797 162.496C113.68 162.752 113.472 162.939 113.173 163.056C112.874 163.195 112.474 163.28 111.973 163.312C111.472 163.355 110.864 163.371 110.149 163.36C110.117 163.147 110.048 162.885 109.941 162.576C109.845 162.267 109.738 162 109.621 161.776C110.144 161.787 110.634 161.797 111.093 161.808C111.552 161.808 111.861 161.803 112.021 161.792C112.17 161.792 112.272 161.765 112.325 161.712C112.389 161.648 112.421 161.541 112.421 161.392V148.528ZM105.749 160.432C106.208 160.208 106.73 159.936 107.317 159.616C107.904 159.296 108.522 158.955 109.173 158.592C109.834 158.219 110.485 157.845 111.125 157.472L111.621 158.848C110.789 159.371 109.936 159.893 109.061 160.416C108.186 160.939 107.397 161.403 106.693 161.808L105.749 160.432ZM128.821 148.928H130.533C130.512 149.365 130.474 149.931 130.421 150.624C130.368 151.317 130.266 152.096 130.117 152.96C129.978 153.813 129.765 154.704 129.477 155.632C129.189 156.56 128.794 157.488 128.293 158.416C127.792 159.333 127.157 160.208 126.389 161.04C125.621 161.861 124.688 162.587 123.589 163.216C123.45 163.013 123.269 162.805 123.045 162.592C122.821 162.379 122.581 162.187 122.325 162.016C123.413 161.44 124.325 160.773 125.061 160.016C125.797 159.248 126.4 158.437 126.869 157.584C127.338 156.72 127.701 155.856 127.957 154.992C128.224 154.117 128.416 153.285 128.533 152.496C128.65 151.707 128.725 151.003 128.757 150.384C128.789 149.765 128.81 149.28 128.821 148.928ZM130.469 149.296C130.48 149.488 130.501 149.808 130.533 150.256C130.576 150.693 130.645 151.221 130.741 151.84C130.848 152.459 131.002 153.131 131.205 153.856C131.408 154.581 131.674 155.328 132.005 156.096C132.336 156.853 132.752 157.6 133.253 158.336C133.754 159.061 134.352 159.733 135.045 160.352C135.749 160.96 136.576 161.483 137.525 161.92C137.29 162.101 137.066 162.309 136.853 162.544C136.65 162.779 136.485 162.997 136.357 163.2C135.386 162.731 134.533 162.16 133.797 161.488C133.072 160.816 132.448 160.085 131.925 159.296C131.413 158.507 130.981 157.701 130.629 156.88C130.288 156.059 130.01 155.253 129.797 154.464C129.594 153.675 129.44 152.944 129.333 152.272C129.226 151.589 129.152 151.003 129.109 150.512C129.066 150.021 129.034 149.664 129.013 149.44L130.469 149.296ZM150.229 154.768C150.229 155.803 150.16 156.731 150.021 157.552C149.882 158.363 149.642 159.093 149.301 159.744C148.96 160.384 148.485 160.96 147.877 161.472C147.269 161.973 146.496 162.437 145.557 162.864L144.197 161.584C144.944 161.307 145.594 160.997 146.149 160.656C146.704 160.315 147.162 159.899 147.525 159.408C147.888 158.907 148.154 158.288 148.325 157.552C148.506 156.816 148.597 155.92 148.597 154.864V150.816C148.597 150.496 148.586 150.213 148.565 149.968C148.554 149.723 148.538 149.541 148.517 149.424H150.325C150.314 149.541 150.293 149.723 150.261 149.968C150.24 150.213 150.229 150.496 150.229 150.816V154.768ZM144.469 149.552C144.458 149.659 144.437 149.824 144.405 150.048C144.384 150.272 144.373 150.533 144.373 150.832V156.624C144.373 156.837 144.378 157.051 144.389 157.264C144.4 157.477 144.41 157.664 144.421 157.824C144.432 157.984 144.442 158.101 144.453 158.176H142.677C142.688 158.101 142.698 157.984 142.709 157.824C142.72 157.664 142.73 157.483 142.741 157.28C142.752 157.067 142.757 156.848 142.757 156.624V150.832C142.757 150.629 142.746 150.416 142.725 150.192C142.714 149.968 142.693 149.755 142.661 149.552H144.469ZM139.525 152.544C139.6 152.565 139.717 152.587 139.877 152.608C140.048 152.619 140.245 152.635 140.469 152.656C140.704 152.667 140.944 152.672 141.189 152.672H151.733C152.128 152.672 152.453 152.661 152.709 152.64C152.976 152.619 153.184 152.597 153.333 152.576V154.272C153.205 154.261 153.002 154.251 152.725 154.24C152.458 154.229 152.133 154.224 151.749 154.224H141.189C140.944 154.224 140.709 154.229 140.485 154.24C140.261 154.24 140.064 154.245 139.893 154.256C139.733 154.267 139.61 154.277 139.525 154.288V152.544ZM156.709 154.864C156.89 154.875 157.109 154.891 157.365 154.912C157.632 154.923 157.914 154.933 158.213 154.944C158.522 154.955 158.816 154.96 159.093 154.96C159.306 154.96 159.6 154.96 159.973 154.96C160.346 154.96 160.768 154.96 161.237 154.96C161.717 154.96 162.218 154.96 162.741 154.96C163.264 154.96 163.781 154.96 164.293 154.96C164.816 154.96 165.306 154.96 165.765 154.96C166.224 154.96 166.629 154.96 166.981 154.96C167.333 154.96 167.605 154.96 167.797 154.96C168.181 154.96 168.528 154.949 168.837 154.928C169.146 154.896 169.397 154.875 169.589 154.864V156.848C169.408 156.837 169.152 156.821 168.821 156.8C168.49 156.779 168.149 156.768 167.797 156.768C167.616 156.768 167.344 156.768 166.981 156.768C166.629 156.768 166.224 156.768 165.765 156.768C165.306 156.768 164.816 156.768 164.293 156.768C163.781 156.768 163.264 156.768 162.741 156.768C162.218 156.768 161.717 156.768 161.237 156.768C160.768 156.768 160.346 156.768 159.973 156.768C159.6 156.768 159.306 156.768 159.093 156.768C158.656 156.768 158.218 156.779 157.781 156.8C157.344 156.811 156.986 156.827 156.709 156.848V154.864ZM183.525 149.28C183.664 149.461 183.808 149.685 183.957 149.952C184.117 150.219 184.272 150.485 184.421 150.752C184.57 151.019 184.698 151.259 184.805 151.472L183.765 151.92C183.605 151.6 183.402 151.227 183.157 150.8C182.922 150.373 182.698 150.011 182.485 149.712L183.525 149.28ZM185.333 148.608C185.472 148.8 185.621 149.029 185.781 149.296C185.952 149.563 186.117 149.829 186.277 150.096C186.437 150.352 186.56 150.581 186.645 150.784L185.605 151.232C185.445 150.891 185.242 150.517 184.997 150.112C184.762 149.696 184.533 149.339 184.309 149.04L185.333 148.608ZM176.453 149.872C176.432 150.085 176.41 150.325 176.389 150.592C176.368 150.859 176.357 151.109 176.357 151.344C176.357 151.483 176.357 151.76 176.357 152.176C176.357 152.581 176.357 153.067 176.357 153.632C176.357 154.187 176.357 154.773 176.357 155.392C176.357 156 176.357 156.592 176.357 157.168C176.357 157.733 176.357 158.235 176.357 158.672C176.357 159.109 176.357 159.424 176.357 159.616C176.357 160 176.442 160.267 176.613 160.416C176.794 160.555 177.072 160.661 177.445 160.736C177.69 160.768 177.989 160.795 178.341 160.816C178.704 160.837 179.072 160.848 179.445 160.848C179.861 160.848 180.32 160.837 180.821 160.816C181.322 160.795 181.824 160.763 182.325 160.72C182.837 160.677 183.322 160.624 183.781 160.56C184.24 160.485 184.634 160.405 184.965 160.32V162.16C184.485 162.224 183.914 162.277 183.253 162.32C182.602 162.373 181.936 162.411 181.253 162.432C180.57 162.464 179.936 162.48 179.349 162.48C178.858 162.48 178.384 162.464 177.925 162.432C177.466 162.411 177.066 162.373 176.725 162.32C176.085 162.203 175.584 161.973 175.221 161.632C174.869 161.28 174.693 160.768 174.693 160.096C174.693 159.819 174.693 159.435 174.693 158.944C174.693 158.453 174.693 157.904 174.693 157.296C174.693 156.688 174.693 156.069 174.693 155.44C174.693 154.8 174.693 154.203 174.693 153.648C174.693 153.083 174.693 152.597 174.693 152.192C174.693 151.776 174.693 151.493 174.693 151.344C174.693 151.216 174.688 151.067 174.677 150.896C174.666 150.715 174.656 150.539 174.645 150.368C174.634 150.187 174.613 150.021 174.581 149.872H176.453ZM175.621 154.864C176.112 154.757 176.645 154.629 177.221 154.48C177.808 154.32 178.394 154.149 178.981 153.968C179.578 153.787 180.154 153.6 180.709 153.408C181.264 153.205 181.76 153.008 182.197 152.816C182.464 152.709 182.725 152.592 182.981 152.464C183.237 152.336 183.493 152.192 183.749 152.032L184.453 153.648C184.186 153.755 183.904 153.872 183.605 154C183.306 154.117 183.029 154.229 182.773 154.336C182.293 154.528 181.749 154.725 181.141 154.928C180.533 155.131 179.904 155.333 179.253 155.536C178.602 155.728 177.962 155.909 177.333 156.08C176.714 156.251 176.144 156.4 175.621 156.528V154.864ZM201.477 151.232C201.413 151.307 201.333 151.429 201.237 151.6C201.141 151.771 201.066 151.925 201.013 152.064C200.789 152.576 200.512 153.147 200.181 153.776C199.861 154.405 199.493 155.035 199.077 155.664C198.672 156.283 198.245 156.848 197.797 157.36C197.21 158.032 196.56 158.688 195.845 159.328C195.141 159.968 194.394 160.56 193.605 161.104C192.816 161.637 192 162.101 191.157 162.496L189.861 161.136C190.725 160.795 191.557 160.373 192.357 159.872C193.168 159.371 193.92 158.821 194.613 158.224C195.306 157.627 195.914 157.035 196.437 156.448C196.8 156.043 197.152 155.595 197.493 155.104C197.834 154.603 198.138 154.101 198.405 153.6C198.672 153.099 198.864 152.64 198.981 152.224C198.885 152.224 198.688 152.224 198.389 152.224C198.09 152.224 197.733 152.224 197.317 152.224C196.912 152.224 196.485 152.224 196.037 152.224C195.6 152.224 195.173 152.224 194.757 152.224C194.352 152.224 194 152.224 193.701 152.224C193.402 152.224 193.205 152.224 193.109 152.224C192.906 152.224 192.682 152.235 192.437 152.256C192.202 152.267 191.984 152.283 191.781 152.304C191.589 152.315 191.45 152.32 191.365 152.32V150.512C191.472 150.523 191.632 150.539 191.845 150.56C192.058 150.571 192.282 150.587 192.517 150.608C192.752 150.619 192.949 150.624 193.109 150.624C193.226 150.624 193.434 150.624 193.733 150.624C194.042 150.624 194.4 150.624 194.805 150.624C195.221 150.624 195.653 150.624 196.101 150.624C196.549 150.624 196.976 150.624 197.381 150.624C197.786 150.624 198.138 150.624 198.437 150.624C198.736 150.624 198.938 150.624 199.045 150.624C199.344 150.624 199.616 150.608 199.861 150.576C200.106 150.544 200.298 150.507 200.437 150.464L201.477 151.232ZM198.005 156.304C198.432 156.656 198.88 157.051 199.349 157.488C199.818 157.925 200.277 158.379 200.725 158.848C201.173 159.307 201.589 159.749 201.973 160.176C202.368 160.603 202.698 160.981 202.965 161.312L201.557 162.56C201.162 162.027 200.709 161.467 200.197 160.88C199.685 160.293 199.141 159.707 198.565 159.12C197.989 158.523 197.413 157.968 196.837 157.456L198.005 156.304ZM206.277 151.28C206.586 151.269 206.869 151.259 207.125 151.248C207.392 151.227 207.605 151.211 207.765 151.2C208.053 151.168 208.437 151.131 208.917 151.088C209.408 151.035 209.962 150.981 210.581 150.928C211.2 150.875 211.861 150.816 212.565 150.752C213.269 150.688 213.989 150.624 214.725 150.56C215.29 150.517 215.84 150.48 216.373 150.448C216.917 150.405 217.424 150.373 217.893 150.352C218.362 150.32 218.778 150.299 219.141 150.288V151.904C218.842 151.893 218.501 151.893 218.117 151.904C217.744 151.915 217.37 151.936 216.997 151.968C216.634 152 216.309 152.053 216.021 152.128C215.498 152.288 215.018 152.539 214.581 152.88C214.144 153.221 213.765 153.616 213.445 154.064C213.136 154.512 212.896 154.987 212.725 155.488C212.565 155.989 212.485 156.475 212.485 156.944C212.485 157.531 212.581 158.043 212.773 158.48C212.976 158.907 213.253 159.275 213.605 159.584C213.957 159.883 214.362 160.133 214.821 160.336C215.28 160.528 215.765 160.672 216.277 160.768C216.8 160.864 217.322 160.923 217.845 160.944L217.269 162.656C216.64 162.624 216.016 162.528 215.397 162.368C214.778 162.219 214.197 162.005 213.653 161.728C213.109 161.44 212.624 161.083 212.197 160.656C211.781 160.229 211.45 159.739 211.205 159.184C210.97 158.629 210.853 158 210.853 157.296C210.853 156.485 210.986 155.739 211.253 155.056C211.53 154.373 211.877 153.781 212.293 153.28C212.709 152.768 213.136 152.373 213.573 152.096C213.253 152.128 212.858 152.171 212.389 152.224C211.92 152.267 211.413 152.32 210.869 152.384C210.336 152.448 209.797 152.517 209.253 152.592C208.709 152.656 208.192 152.725 207.701 152.8C207.221 152.875 206.8 152.949 206.437 153.024L206.277 151.28ZM216.837 153.68C216.965 153.861 217.109 154.085 217.269 154.352C217.429 154.608 217.589 154.875 217.749 155.152C217.909 155.419 218.042 155.664 218.149 155.888L217.157 156.336C216.965 155.931 216.762 155.541 216.549 155.168C216.346 154.795 216.122 154.437 215.877 154.096L216.837 153.68ZM218.613 152.992C218.741 153.173 218.89 153.392 219.061 153.648C219.232 153.893 219.397 154.149 219.557 154.416C219.717 154.683 219.856 154.933 219.973 155.168L218.997 155.632C218.784 155.227 218.57 154.848 218.357 154.496C218.144 154.133 217.909 153.776 217.653 153.424L218.613 152.992ZM231.941 149.232C231.93 149.296 231.914 149.408 231.893 149.568C231.882 149.728 231.872 149.888 231.861 150.048C231.85 150.208 231.845 150.325 231.845 150.4C231.834 150.603 231.824 150.885 231.813 151.248C231.813 151.6 231.813 151.989 231.813 152.416C231.813 152.843 231.813 153.275 231.813 153.712C231.824 154.139 231.829 154.544 231.829 154.928C231.84 155.301 231.845 155.616 231.845 155.872L230.293 155.232C230.293 155.061 230.293 154.821 230.293 154.512C230.293 154.192 230.288 153.835 230.277 153.44C230.277 153.035 230.272 152.635 230.261 152.24C230.261 151.845 230.256 151.483 230.245 151.152C230.245 150.821 230.24 150.571 230.229 150.4C230.208 150.144 230.181 149.904 230.149 149.68C230.128 149.456 230.112 149.307 230.101 149.232H231.941ZM223.189 151.36C223.648 151.349 224.16 151.339 224.725 151.328C225.301 151.317 225.909 151.307 226.549 151.296C227.189 151.275 227.824 151.259 228.453 151.248C229.093 151.227 229.701 151.216 230.277 151.216C230.853 151.205 231.365 151.2 231.813 151.2C232.272 151.2 232.741 151.2 233.221 151.2C233.701 151.2 234.16 151.2 234.597 151.2C235.034 151.2 235.429 151.2 235.781 151.2C236.144 151.2 236.426 151.2 236.629 151.2L236.597 152.704C236.138 152.683 235.514 152.667 234.725 152.656C233.946 152.635 232.965 152.624 231.781 152.624C231.077 152.624 230.352 152.629 229.605 152.64C228.858 152.651 228.106 152.672 227.349 152.704C226.602 152.725 225.877 152.752 225.173 152.784C224.48 152.816 223.834 152.853 223.237 152.896L223.189 151.36ZM231.701 156.032C231.701 156.821 231.594 157.477 231.381 158C231.178 158.512 230.885 158.901 230.501 159.168C230.117 159.424 229.653 159.552 229.109 159.552C228.778 159.552 228.453 159.493 228.133 159.376C227.824 159.259 227.536 159.083 227.269 158.848C227.013 158.603 226.805 158.309 226.645 157.968C226.496 157.616 226.421 157.216 226.421 156.768C226.421 156.203 226.554 155.707 226.821 155.28C227.098 154.843 227.461 154.501 227.909 154.256C228.368 154.011 228.864 153.888 229.397 153.888C230.058 153.888 230.608 154.037 231.045 154.336C231.493 154.635 231.829 155.04 232.053 155.552C232.277 156.053 232.389 156.624 232.389 157.264C232.389 157.787 232.309 158.331 232.149 158.896C231.989 159.451 231.722 159.989 231.349 160.512C230.976 161.035 230.469 161.515 229.829 161.952C229.2 162.379 228.41 162.731 227.461 163.008L226.101 161.664C226.816 161.515 227.461 161.317 228.037 161.072C228.613 160.816 229.109 160.507 229.525 160.144C229.941 159.771 230.261 159.333 230.485 158.832C230.72 158.32 230.837 157.728 230.837 157.056C230.837 156.416 230.693 155.952 230.405 155.664C230.128 155.376 229.786 155.232 229.381 155.232C229.136 155.232 228.901 155.291 228.677 155.408C228.453 155.525 228.272 155.696 228.133 155.92C227.994 156.144 227.925 156.416 227.925 156.736C227.925 157.184 228.069 157.536 228.357 157.792C228.656 158.037 228.997 158.16 229.381 158.16C229.69 158.16 229.952 158.075 230.165 157.904C230.389 157.723 230.544 157.445 230.629 157.072C230.714 156.688 230.693 156.203 230.565 155.616L231.701 156.032ZM239.867 158.064C240.336 158.064 240.758 158.181 241.131 158.416C241.504 158.64 241.803 158.939 242.027 159.312C242.251 159.685 242.363 160.107 242.363 160.576C242.363 161.035 242.251 161.456 242.027 161.84C241.803 162.213 241.504 162.512 241.131 162.736C240.758 162.96 240.336 163.072 239.867 163.072C239.408 163.072 238.987 162.96 238.603 162.736C238.23 162.512 237.926 162.213 237.691 161.84C237.467 161.456 237.355 161.035 237.355 160.576C237.355 160.107 237.467 159.685 237.691 159.312C237.926 158.939 238.23 158.64 238.603 158.416C238.987 158.181 239.408 158.064 239.867 158.064ZM239.867 162.112C240.294 162.112 240.656 161.963 240.955 161.664C241.254 161.365 241.403 161.003 241.403 160.576C241.403 160.288 241.334 160.032 241.195 159.808C241.067 159.573 240.886 159.387 240.651 159.248C240.416 159.109 240.155 159.04 239.867 159.04C239.59 159.04 239.334 159.109 239.099 159.248C238.864 159.387 238.678 159.573 238.539 159.808C238.4 160.032 238.331 160.288 238.331 160.576C238.331 160.853 238.4 161.115 238.539 161.36C238.678 161.595 238.864 161.781 239.099 161.92C239.334 162.048 239.59 162.112 239.867 162.112Z" fill="white"/>
</g>
<defs>
<clipPath id="clip0_2201_12723">
<rect width="358" height="170" fill="white"/>
</clipPath>
</defs>
</svg>
