<svg width="40" height="40" viewBox="0 0 40 40" fill="none" xmlns="http://www.w3.org/2000/svg">
<path d="M0 20C0 8.9543 8.9543 0 20 0C31.0457 0 40 8.9543 40 20C40 31.0457 31.0457 40 20 40C8.9543 40 0 31.0457 0 20Z" fill="#00B900"/>
<path d="M20.3332 9.33301C13.5332 9.33301 8 13.7905 8 19.2695C8 24.1814 12.3877 28.2949 18.3146 29.0728C18.7163 29.1587 19.2629 29.3357 19.4012 29.6765C19.5256 29.9861 19.4825 30.4711 19.4409 30.7838C19.4409 30.7838 19.2962 31.6478 19.265 31.8318C19.2113 32.1414 19.0172 33.0425 20.3332 32.4919C21.6497 31.9412 27.4361 28.3398 30.0236 25.3829C31.8105 23.437 32.6667 21.4623 32.6667 19.2695C32.6667 13.7905 27.1342 9.33301 20.3332 9.33301Z" fill="white"/>
<path d="M16.9042 16.667C16.7728 16.667 16.666 16.7773 16.666 16.9127V22.4213C16.666 22.557 16.7728 22.667 16.9042 22.667H17.7614C17.8928 22.667 17.9994 22.557 17.9994 22.4213V16.9127C17.9994 16.7773 17.8928 16.667 17.7614 16.667H16.9042Z" fill="#00B900"/>
<path d="M23.7508 16.667H22.8485C22.7101 16.667 22.5979 16.7773 22.5979 16.9127V20.1854L20.0294 16.7763C20.0235 16.7676 20.0168 16.7593 20.0099 16.7513L20.0082 16.7499C20.0033 16.7443 19.9983 16.7395 19.9932 16.7346C19.9917 16.7332 19.9902 16.7319 19.9885 16.7305C19.9843 16.7266 19.9798 16.723 19.9752 16.7196C19.9732 16.7176 19.971 16.7162 19.9688 16.7145C19.9643 16.7116 19.9601 16.7084 19.9557 16.7058C19.9532 16.7041 19.9508 16.7026 19.948 16.7014C19.9436 16.6987 19.9392 16.6961 19.9347 16.6939C19.932 16.6927 19.9295 16.6912 19.9268 16.6903C19.9221 16.6881 19.9175 16.6859 19.9125 16.6842C19.9096 16.6832 19.9071 16.6823 19.9044 16.6813C19.8995 16.6796 19.8945 16.6779 19.8893 16.6767C19.8866 16.6757 19.8837 16.6752 19.8807 16.6743C19.8758 16.6733 19.8711 16.6721 19.8664 16.6711C19.863 16.6706 19.8593 16.6701 19.8558 16.6699C19.8514 16.6689 19.8469 16.6687 19.8425 16.6682C19.8383 16.6677 19.8341 16.6677 19.8297 16.6675C19.8265 16.6675 19.824 16.667 19.8208 16.667H18.9188C18.7804 16.667 18.668 16.7773 18.668 16.9127V22.4213C18.668 22.557 18.7804 22.667 18.9188 22.667H19.8208C19.9594 22.667 20.0716 22.557 20.0716 22.4213V19.1496L22.6433 22.563C22.6611 22.5877 22.683 22.6079 22.7069 22.6239C22.7077 22.6243 22.7087 22.6251 22.7094 22.6258C22.7146 22.6289 22.7198 22.6321 22.7249 22.635C22.7274 22.6365 22.7296 22.6374 22.7321 22.6386C22.7358 22.6408 22.74 22.6428 22.7439 22.6445C22.7481 22.6461 22.7518 22.6478 22.7562 22.6495C22.7587 22.6505 22.7612 22.6515 22.7636 22.6522C22.7696 22.6544 22.775 22.6561 22.7807 22.6578C22.7819 22.6578 22.7831 22.6583 22.7844 22.6585C22.8048 22.6638 22.8263 22.667 22.8485 22.667H23.7508C23.8893 22.667 24.0013 22.557 24.0013 22.4213V16.9127C24.0013 16.7773 23.8893 16.667 23.7508 16.667Z" fill="#00B900"/>
<path d="M15.7564 21.2876H13.3675V16.9132C13.3675 16.7773 13.2581 16.667 13.1236 16.667H12.2441C12.1093 16.667 12 16.7773 12 16.9132V22.4205V22.421C12 22.4872 12.0262 22.547 12.0682 22.5911C12.0692 22.5924 12.0702 22.5936 12.0716 22.5948C12.0728 22.596 12.074 22.597 12.0752 22.5982C12.1192 22.6408 12.1783 22.667 12.2439 22.667H15.7564C15.8912 22.667 16 22.5565 16 22.4205V21.5338C16 21.3979 15.8912 21.2876 15.7564 21.2876Z" fill="#00B900"/>
<path d="M28.4243 18.0464C28.5591 18.0464 28.668 17.9363 28.668 17.8002V16.9134C28.668 16.7775 28.5591 16.667 28.4243 16.667H24.9121H24.9116C24.8458 16.667 24.7864 16.6936 24.7425 16.7365C24.7415 16.7375 24.7403 16.7382 24.7396 16.7392C24.7381 16.7407 24.7369 16.7421 24.7357 16.7436C24.6939 16.7877 24.668 16.8473 24.668 16.9132V16.9134V22.4208V22.421C24.668 22.4872 24.6942 22.547 24.7362 22.5911C24.7372 22.5924 24.7384 22.5938 24.7396 22.5948C24.7405 22.596 24.742 22.5972 24.7432 22.5982C24.7869 22.6406 24.8463 22.667 24.9116 22.667H28.4243C28.5591 22.667 28.668 22.5565 28.668 22.4208V21.5338C28.668 21.3981 28.5591 21.2876 28.4243 21.2876H26.0357V20.3566H28.4243C28.5591 20.3566 28.668 20.2463 28.668 20.1103V19.2236C28.668 19.0877 28.5591 18.9772 28.4243 18.9772H26.0357V18.0464H28.4243Z" fill="#00B900"/>
</svg>
