<svg width="21" height="20" viewBox="0 0 21 20" fill="none" xmlns="http://www.w3.org/2000/svg">
<g clip-path="url(#clip0_1234_6710)">
<path d="M10.4906 1.66699C5.89056 1.66699 2.15723 5.40033 2.15723 10.0003C2.15723 14.6003 5.89056 18.3337 10.4906 18.3337C15.0906 18.3337 18.8239 14.6003 18.8239 10.0003C18.8239 5.40033 15.0906 1.66699 10.4906 1.66699ZM10.4906 16.667C6.81556 16.667 3.82389 13.6753 3.82389 10.0003C3.82389 6.32533 6.81556 3.33366 10.4906 3.33366C14.1656 3.33366 17.1572 6.32533 17.1572 10.0003C17.1572 13.6753 14.1656 16.667 10.4906 16.667ZM14.3156 6.31699L8.82389 11.8087L6.66556 9.65866L5.49056 10.8337L8.82389 14.167L15.4906 7.50033L14.3156 6.31699Z" fill="#DD6E21"/>
</g>
<defs>
<clipPath id="clip0_1234_6710">
<rect width="20" height="20" fill="white" transform="translate(0.490234)"/>
</clipPath>
</defs>
</svg>
