<svg width="32" height="32" viewBox="0 0 32 32" fill="none" xmlns="http://www.w3.org/2000/svg">
<path d="M19.3333 15.6667C18.8667 15.6667 18.4724 15.5053 18.1507 15.1827C17.828 14.8609 17.6667 14.4667 17.6667 14C17.6667 13.5333 17.828 13.1391 18.1507 12.8173C18.4724 12.4947 18.8667 12.3333 19.3333 12.3333C19.8 12.3333 20.1942 12.4947 20.516 12.8173C20.8387 13.1391 21 13.5333 21 14C21 14.4667 20.8387 14.8609 20.516 15.1827C20.1942 15.5053 19.8 15.6667 19.3333 15.6667ZM12.6667 15.6667C12.2 15.6667 11.8058 15.5053 11.484 15.1827C11.1613 14.8609 11 14.4667 11 14C11 13.5333 11.1613 13.1391 11.484 12.8173C11.8058 12.4947 12.2 12.3333 12.6667 12.3333C13.1333 12.3333 13.5276 12.4947 13.8493 12.8173C14.172 13.1391 14.3333 13.5333 14.3333 14C14.3333 14.4667 14.172 14.8609 13.8493 15.1827C13.5276 15.5053 13.1333 15.6667 12.6667 15.6667ZM16 22.6667C14.6667 22.6667 13.4613 22.3 12.384 21.5667C11.3058 20.8333 10.5111 19.8667 10 18.6667H22C21.4889 19.8667 20.6947 20.8333 19.6173 21.5667C18.5391 22.3 17.3333 22.6667 16 22.6667ZM16 28C14.3333 28 12.7724 27.6836 11.3173 27.0507C9.86133 26.4169 8.59467 25.5609 7.51733 24.4827C6.43911 23.4053 5.58311 22.1387 4.94933 20.6827C4.31644 19.2276 4 17.6667 4 16C4 14.3333 4.31644 12.772 4.94933 11.316C5.58311 9.86089 6.43911 8.59422 7.51733 7.516C8.59467 6.43867 9.86133 5.58311 11.3173 4.94933C12.7724 4.31644 14.3333 4 16 4C17.6667 4 19.228 4.31644 20.684 4.94933C22.1391 5.58311 23.4058 6.43867 24.484 7.516C25.5613 8.59422 26.4169 9.86089 27.0507 11.316C27.6836 12.772 28 14.3333 28 16C28 17.6667 27.6836 19.2276 27.0507 20.6827C26.4169 22.1387 25.5613 23.4053 24.484 24.4827C23.4058 25.5609 22.1391 26.4169 20.684 27.0507C19.228 27.6836 17.6667 28 16 28ZM16 25.3333C18.5778 25.3333 20.7778 24.4222 22.6 22.6C24.4222 20.7778 25.3333 18.5778 25.3333 16C25.3333 13.4222 24.4222 11.2222 22.6 9.4C20.7778 7.57778 18.5778 6.66667 16 6.66667H15.6C15.4667 6.66667 15.3333 6.68889 15.2 6.73333C15.0667 6.86667 14.9778 7.01111 14.9333 7.16667C14.8889 7.32222 14.8667 7.48889 14.8667 7.66667C14.8667 8.13333 15.0276 8.52756 15.3493 8.84933C15.672 9.172 16.0667 9.33333 16.5333 9.33333C16.7333 9.33333 16.9164 9.3 17.0827 9.23333C17.2498 9.16667 17.4222 9.13333 17.6 9.13333C17.8667 9.13333 18.0889 9.23333 18.2667 9.43333C18.4444 9.63333 18.5333 9.86667 18.5333 10.1333C18.5333 10.6444 18.2947 10.972 17.8173 11.116C17.3391 11.2609 16.9111 11.3333 16.5333 11.3333C15.5333 11.3333 14.6724 10.9724 13.9507 10.2507C13.228 9.528 12.8667 8.66667 12.8667 7.66667V7.46667C12.8667 7.4 12.8778 7.31111 12.9 7.2C11.0556 7.86667 9.55556 8.98889 8.4 10.5667C7.24444 12.1444 6.66667 13.9556 6.66667 16C6.66667 18.5778 7.57778 20.7778 9.4 22.6C11.2222 24.4222 13.4222 25.3333 16 25.3333Z" fill="#C75100"/>
</svg>
