<svg width="32" height="32" viewBox="0 0 32 32" fill="none" xmlns="http://www.w3.org/2000/svg">
<path d="M13.7482 4.93321C13.7482 4.08446 14.0466 3.26391 14.5315 2.77903C15.57 1.74032 17.8006 1.74032 18.8391 2.77903C19.8777 3.81773 19.8777 6.04868 18.8391 7.08738C17.8006 8.12609 15.57 8.12609 14.5315 7.08738C14.0466 6.6025 13.7482 5.78195 13.7482 4.93321Z" stroke="#DE3547" stroke-width="2"/>
<path d="M11.3986 14.9486C11.3986 12.2919 11.5466 11.3037 12.0138 10.836C12.4732 10.3766 13.4432 10.2207 15.839 10.2207C18.7017 10.2207 19.2178 10.3375 20.6084 11.2978C21.8302 12.1419 22.7611 12.4172 24.9091 12.5707C27.5199 12.7572 27.6503 12.8132 27.6503 13.7458C27.6503 14.7014 27.5736 14.7277 24.4305 14.8385C22.113 14.9204 20.8837 14.7829 20.0441 14.3489C18.4538 13.5264 18.4475 13.5303 18.4475 15.3794C18.4475 17.9037 17.7097 18.4458 14.275 18.4458H11.3986V14.9486Z" stroke="#DE3547" stroke-width="2"/>
<path d="M17.8848 20.7958L20.2219 18.4328L22.5594 16.0703L26.2797 16.1808C29.9573 16.2904 30 16.303 30 17.2708C30 18.2942 29.5872 18.4689 25.8293 19.0345C24.5883 19.2217 24.1811 19.5859 22.7364 21.8039C20.377 25.4257 20.2294 25.4958 14.9646 25.4958C9.98254 25.4958 9.04894 25.1198 9.04894 23.1129C9.04894 21.1718 9.86584 20.7958 14.0823 20.7958H17.8848Z" stroke="#DE3547" stroke-width="2"/>
<path d="M2 21.3833C2 20.5345 2.29841 19.714 2.78322 19.2291C3.26803 18.7442 4.08845 18.4458 4.93706 18.4458C5.78567 18.4458 6.60609 18.7442 7.0909 19.2291C8.12945 20.2678 8.12945 22.4988 7.0909 23.5375C6.60609 24.0224 5.78567 24.3208 4.93706 24.3208C3.13645 24.3208 2 23.1842 2 21.3833Z" stroke="#DE3547" stroke-width="2"/>
<path fill-rule="evenodd" clip-rule="evenodd" d="M23.0591 24.3263L22.384 25.5244H26.4755C30 25.5244 30 25.5244 30 24.3212C30 23.118 30 23.1505 26.8671 23.1505C23.7343 23.1505 23.7335 23.1297 23.0591 24.3263ZM2 27.2258C2 27.4588 2.00003 28.2422 2.00008 28.8904L2.00003 30.0004H16.0979H30V29.0212V27.8505H19.0471C11.986 27.8505 8.85317 27.8505 7.76881 27.8505C7.76881 27.6547 7.76881 27.6175 7.76881 27.2258C7.76881 26.4797 2 26.4797 2 27.2258Z" fill="#DE3547"/>
</svg>
