<svg width="32" height="32" viewBox="0 0 32 32" fill="none" xmlns="http://www.w3.org/2000/svg">
<path d="M11.5 28C9.41111 28 7.63889 27.2722 6.18333 25.8167C4.72778 24.3611 4 22.5889 4 20.5C4 19.5 4.18889 18.5444 4.56667 17.6333C4.94444 16.7222 5.48889 15.9111 6.2 15.2L15.2 6.2C15.9111 5.48889 16.7222 4.94444 17.6333 4.56667C18.5444 4.18889 19.5 4 20.5 4C22.5889 4 24.3611 4.72778 25.8167 6.18333C27.2722 7.63889 28 9.41111 28 11.5C28 12.5 27.8111 13.4556 27.4333 14.3667C27.0556 15.2778 26.5111 16.0889 25.8 16.8L16.8 25.8C16.0889 26.5111 15.2778 27.0556 14.3667 27.4333C13.4556 27.8111 12.5 28 11.5 28ZM20.3667 18.4667L23.9333 14.9333C24.3778 14.4889 24.7222 13.9667 24.9667 13.3667C25.2111 12.7667 25.3333 12.1444 25.3333 11.5C25.3333 10.1667 24.8611 9.02778 23.9167 8.08333C22.9722 7.13889 21.8333 6.66667 20.5 6.66667C19.8556 6.66667 19.2333 6.78889 18.6333 7.03333C18.0333 7.27778 17.5111 7.62222 17.0667 8.06667L13.5333 11.6333L20.3667 18.4667ZM11.5 25.3333C12.1444 25.3333 12.7667 25.2111 13.3667 24.9667C13.9667 24.7222 14.4889 24.3778 14.9333 23.9333L18.4667 20.3667L11.6333 13.5333L8.06667 17.0667C7.62222 17.5111 7.27778 18.0333 7.03333 18.6333C6.78889 19.2333 6.66667 19.8556 6.66667 20.5C6.66667 21.8333 7.13889 22.9722 8.08333 23.9167C9.02778 24.8611 10.1667 25.3333 11.5 25.3333Z" fill="#DE3547"/>
</svg>
